Vaigai-Italic.ufo
<glyph name="exclam" format="2">
  <advance width="190"/>
  <unicode hex="0021"/>
  <outline>
    <contour>
      <point x="205" y="618" type="line"/>
      <point x="188" y="631" type="line"/>
      <point x="164" y="624"/>
      <point x="122" y="598"/>
      <point x="102" y="586" type="curve"/>
      <point x="69" y="165" type="line"/>
      <point x="80" y="156" type="line"/>
      <point x="94" y="160"/>
      <point x="106" y="166"/>
      <point x="117" y="174" type="curve"/>
    </contour>
    <contour>
      <point x="134" y="68" type="curve"/>
      <point x="134" y="94"/>
      <point x="118" y="112"/>
      <point x="92" y="112" type="curve" smooth="yes"/>
      <point x="51" y="112"/>
      <point x="21" y="67"/>
      <point x="21" y="32" type="curve" smooth="yes"/>
      <point x="21" y="4"/>
      <point x="36" y="-13"/>
      <point x="63" y="-13" type="curve" smooth="yes"/>
      <point x="107" y="-13"/>
      <point x="134" y="31"/>
    </contour>
  </outline>
</glyph>
<glyph name="quotedbl" format="2">
  <advance width="264"/>
  <unicode hex="0022"/>
  <outline>
    <contour>
      <point x="300" y="540" type="curve" smooth="yes"/>
      <point x="300" y="560"/>
      <point x="286" y="571"/>
      <point x="267" y="571" type="curve" smooth="yes"/>
      <point x="231" y="571"/>
      <point x="219" y="548"/>
      <point x="217" y="516" type="curve"/>
      <point x="207" y="337" type="line"/>
      <point x="233" y="337" type="line"/>
      <point x="241" y="359"/>
      <point x="300" y="523"/>
    </contour>
    <contour>
      <point x="171" y="540" type="curve" smooth="yes"/>
      <point x="171" y="560"/>
      <point x="157" y="571"/>
      <point x="139" y="571" type="curve" smooth="yes"/>
      <point x="103" y="571"/>
      <point x="92" y="548"/>
      <point x="90" y="516" type="curve" smooth="yes"/>
      <point x="80" y="337" type="line"/>
      <point x="105" y="337" type="line"/>
      <point x="113" y="359"/>
      <point x="171" y="523"/>
    </contour>
  </outline>
</glyph>
<glyph name="numbersign" format="2">
  <advance width="361"/>
  <unicode hex="0023"/>
  <outline>
    <contour>
      <point x="408" y="411" type="curve"/>
      <point x="400" y="422" type="line"/>
      <point x="100" y="422" type="line"/>
      <point x="94" y="410"/>
      <point x="87" y="395"/>
      <point x="82" y="382" type="curve"/>
      <point x="90" y="371" type="line"/>
      <point x="390" y="371" type="line"/>
      <point x="395" y="381"/>
      <point x="404" y="398"/>
    </contour>
    <contour>
      <point x="388" y="558" type="line"/>
      <point x="378" y="567" type="line"/>
      <point x="366" y="562"/>
      <point x="352" y="558"/>
      <point x="340" y="549" type="curve"/>
      <point x="161" y="64" type="line"/>
      <point x="170" y="55" type="line"/>
      <point x="185" y="61"/>
      <point x="199" y="66"/>
      <point x="209" y="74" type="curve"/>
    </contour>
    <contour>
      <point x="266" y="558" type="line"/>
      <point x="256" y="567" type="line"/>
      <point x="243" y="562"/>
      <point x="230" y="558"/>
      <point x="217" y="549" type="curve"/>
      <point x="37" y="64" type="line"/>
      <point x="47" y="55" type="line"/>
      <point x="62" y="61"/>
      <point x="76" y="66"/>
      <point x="87" y="74" type="curve"/>
    </contour>
    <contour>
      <point x="350" y="247" type="curve"/>
      <point x="341" y="259" type="line"/>
      <point x="42" y="259" type="line"/>
      <point x="36" y="247"/>
      <point x="29" y="231"/>
      <point x="24" y="219" type="curve"/>
      <point x="32" y="208" type="line"/>
      <point x="333" y="208" type="line"/>
      <point x="338" y="218"/>
      <point x="345" y="235"/>
    </contour>
  </outline>
</glyph>
<glyph name="dollar" format="2">
  <advance width="377"/>
  <unicode hex="0024"/>
  <outline>
    <contour>
      <point x="257" y="592" type="line"/>
      <point x="246" y="603" type="line"/>
      <point x="231" y="598"/>
      <point x="232" y="597"/>
      <point x="217" y="587" type="curve"/>
      <point x="124" y="-64" type="line"/>
      <point x="134" y="-74" type="line"/>
      <point x="148" y="-71"/>
      <point x="155" y="-68"/>
      <point x="165" y="-59" type="curve"/>
    </contour>
    <contour>
      <point x="364" y="502" type="curve"/>
      <point x="337" y="522"/>
      <point x="295" y="540"/>
      <point x="251" y="540" type="curve" smooth="yes"/>
      <point x="127" y="540"/>
      <point x="55" y="462"/>
      <point x="55" y="387" type="curve" smooth="yes"/>
      <point x="55" y="340"/>
      <point x="84" y="298"/>
      <point x="158" y="265" type="curve" smooth="yes"/>
      <point x="243" y="226"/>
      <point x="274" y="196"/>
      <point x="274" y="150" type="curve" smooth="yes"/>
      <point x="274" y="88"/>
      <point x="221" y="42"/>
      <point x="154" y="42" type="curve" smooth="yes"/>
      <point x="81" y="42"/>
      <point x="57" y="120"/>
      <point x="43" y="120" type="curve" smooth="yes"/>
      <point x="27" y="120"/>
      <point x="-5" y="66"/>
      <point x="-5" y="50" type="curve" smooth="yes"/>
      <point x="-5" y="20"/>
      <point x="75" y="-13"/>
      <point x="121" y="-13" type="curve" smooth="yes"/>
      <point x="247" y="-13"/>
      <point x="340" y="79"/>
      <point x="340" y="183" type="curve" smooth="yes"/>
      <point x="340" y="249"/>
      <point x="298" y="285"/>
      <point x="208" y="328" type="curve" smooth="yes"/>
      <point x="133" y="363"/>
      <point x="118" y="390"/>
      <point x="118" y="417" type="curve" smooth="yes"/>
      <point x="118" y="454"/>
      <point x="156" y="494"/>
      <point x="214" y="494" type="curve" smooth="yes"/>
      <point x="254" y="494"/>
      <point x="288" y="466"/>
      <point x="304" y="434" type="curve"/>
      <point x="321" y="432" type="line"/>
      <point x="332" y="438"/>
      <point x="371" y="498"/>
    </contour>
  </outline>
</glyph>
<glyph name="percent" format="2">
  <advance width="588"/>
  <unicode hex="0025"/>
  <outline>
    <contour>
      <point x="289" y="427" type="curve"/>
      <point x="289" y="494"/>
      <point x="252" y="543"/>
      <point x="195" y="543" type="curve" smooth="yes"/>
      <point x="102" y="543"/>
      <point x="44" y="442"/>
      <point x="44" y="361" type="curve" smooth="yes"/>
      <point x="44" y="296"/>
      <point x="81" y="244"/>
      <point x="139" y="244" type="curve" smooth="yes"/>
      <point x="232" y="244"/>
      <point x="289" y="346"/>
    </contour>
    <contour>
      <point x="545" y="529" type="line"/>
      <point x="534" y="543" type="line"/>
      <point x="519" y="539"/>
      <point x="491" y="532"/>
      <point x="476" y="523" type="curve"/>
      <point x="45" y="0" type="line"/>
      <point x="54" y="-14" type="line"/>
      <point x="68" y="-10"/>
      <point x="102" y="-1"/>
      <point x="114" y="5" type="curve"/>
    </contour>
    <contour>
      <point x="546" y="169" type="curve"/>
      <point x="546" y="236"/>
      <point x="509" y="284"/>
      <point x="451" y="284" type="curve" smooth="yes"/>
      <point x="359" y="284"/>
      <point x="301" y="183"/>
      <point x="301" y="103" type="curve" smooth="yes"/>
      <point x="301" y="38"/>
      <point x="338" y="-13"/>
      <point x="396" y="-13" type="curve" smooth="yes"/>
      <point x="488" y="-13"/>
      <point x="546" y="87"/>
    </contour>
    <contour>
      <point x="222" y="432" type="curve"/>
      <point x="222" y="383"/>
      <point x="204" y="279"/>
      <point x="155" y="279" type="curve" smooth="yes"/>
      <point x="129" y="279"/>
      <point x="112" y="302"/>
      <point x="112" y="350" type="curve" smooth="yes"/>
      <point x="112" y="394"/>
      <point x="125" y="508"/>
      <point x="178" y="508" type="curve" smooth="yes"/>
      <point x="203" y="508"/>
      <point x="222" y="484"/>
    </contour>
    <contour>
      <point x="478" y="174" type="curve"/>
      <point x="478" y="125"/>
      <point x="461" y="21"/>
      <point x="412" y="21" type="curve" smooth="yes"/>
      <point x="385" y="21"/>
      <point x="369" y="43"/>
      <point x="369" y="91" type="curve" smooth="yes"/>
      <point x="369" y="135"/>
      <point x="382" y="249"/>
      <point x="436" y="249" type="curve" smooth="yes"/>
      <point x="459" y="249"/>
      <point x="478" y="226"/>
    </contour>
  </outline>
</glyph>
<glyph name="ampersand" format="2">
  <advance width="538"/>
  <unicode hex="0026"/>
  <outline>
    <contour>
      <point x="573" y="328" type="curve"/>
      <point x="565" y="345" type="line"/>
      <point x="383" y="345" type="line"/>
      <point x="371" y="341"/>
      <point x="355" y="327"/>
      <point x="348" y="319" type="curve"/>
      <point x="356" y="306" type="line"/>
      <point x="384" y="306"/>
      <point x="409" y="276"/>
      <point x="409" y="231" type="curve" smooth="yes"/>
      <point x="409" y="225"/>
      <point x="408" y="220"/>
      <point x="407" y="213" type="curve" smooth="yes"/>
      <point x="396" y="139"/>
      <point x="312" y="41"/>
      <point x="204" y="41" type="curve" smooth="yes"/>
      <point x="154" y="41"/>
      <point x="107" y="77"/>
      <point x="107" y="145" type="curve" smooth="yes"/>
      <point x="107" y="152"/>
      <point x="107" y="159"/>
      <point x="108" y="167" type="curve" smooth="yes"/>
      <point x="118" y="235"/>
      <point x="160" y="287"/>
      <point x="282" y="364" type="curve" smooth="yes"/>
      <point x="350" y="407"/>
      <point x="407" y="466"/>
      <point x="416" y="525" type="curve" smooth="yes"/>
      <point x="417" y="533"/>
      <point x="418" y="540"/>
      <point x="418" y="548" type="curve" smooth="yes"/>
      <point x="418" y="596"/>
      <point x="393" y="637"/>
      <point x="330" y="637" type="curve" smooth="yes"/>
      <point x="254" y="637"/>
      <point x="180" y="566"/>
      <point x="167" y="471" type="curve" smooth="yes"/>
      <point x="166" y="459"/>
      <point x="165" y="448"/>
      <point x="165" y="436" type="curve" smooth="yes"/>
      <point x="165" y="237"/>
      <point x="371" y="-13"/>
      <point x="411" y="-13" type="curve" smooth="yes"/>
      <point x="422" y="-13"/>
      <point x="466" y="0"/>
      <point x="516" y="21" type="curve"/>
      <point x="514" y="45" type="line"/>
      <point x="506" y="43"/>
      <point x="498" y="41"/>
      <point x="490" y="41" type="curve" smooth="yes"/>
      <point x="471" y="41"/>
      <point x="454" y="49"/>
      <point x="439" y="64" type="curve" smooth="yes"/>
      <point x="359" y="146"/>
      <point x="233" y="331"/>
      <point x="233" y="468" type="curve" smooth="yes"/>
      <point x="233" y="478"/>
      <point x="234" y="487"/>
      <point x="235" y="496" type="curve" smooth="yes"/>
      <point x="241" y="542"/>
      <point x="262" y="586"/>
      <point x="301" y="586" type="curve" smooth="yes"/>
      <point x="332" y="586"/>
      <point x="347" y="565"/>
      <point x="347" y="533" type="curve" smooth="yes"/>
      <point x="347" y="526"/>
      <point x="346" y="518"/>
      <point x="345" y="511" type="curve" smooth="yes"/>
      <point x="339" y="473"/>
      <point x="313" y="429"/>
      <point x="245" y="391" type="curve" smooth="yes"/>
      <point x="117" y="318"/>
      <point x="40" y="237"/>
      <point x="29" y="157" type="curve" smooth="yes"/>
      <point x="28" y="146"/>
      <point x="27" y="136"/>
      <point x="27" y="126" type="curve" smooth="yes"/>
      <point x="27" y="36"/>
      <point x="88" y="-13"/>
      <point x="181" y="-13" type="curve" smooth="yes"/>
      <point x="328" y="-13"/>
      <point x="452" y="130"/>
      <point x="466" y="231" type="curve" smooth="yes"/>
      <point x="468" y="245"/>
      <point x="469" y="256"/>
      <point x="469" y="266" type="curve" smooth="yes"/>
      <point x="469" y="280"/>
      <point x="467" y="291"/>
      <point x="462" y="303" type="curve"/>
      <point x="480" y="302"/>
      <point x="508" y="294"/>
      <point x="526" y="284" type="curve"/>
      <point x="540" y="294"/>
      <point x="558" y="310"/>
    </contour>
  </outline>
</glyph>
<glyph name="quotesingle" format="2">
  <advance width="180"/>
  <unicode hex="0027"/>
  <outline>
    <contour>
      <point x="184" y="619" type="line"/>
      <point x="168" y="628" type="line"/>
      <point x="155" y="625"/>
      <point x="129" y="614"/>
      <point x="116" y="607" type="curve"/>
      <point x="101" y="377" type="line"/>
      <point x="114" y="377"/>
      <point x="124" y="378"/>
      <point x="134" y="384" type="curve"/>
    </contour>
  </outline>
</glyph>
<glyph name="parenleft" format="2">
  <advance width="269"/>
  <unicode hex="0028"/>
  <outline>
    <contour>
      <point x="316" y="680" type="curve"/>
      <point x="303" y="704" type="line"/>
      <point x="176" y="644"/>
      <point x="79" y="475"/>
      <point x="52" y="282" type="curve" smooth="yes"/>
      <point x="25" y="96"/>
      <point x="73" y="-76"/>
      <point x="185" y="-138" type="curve"/>
      <point x="204" y="-114" type="line"/>
      <point x="136" y="-34"/>
      <point x="112" y="125"/>
      <point x="135" y="296" type="curve"/>
      <point x="162" y="484"/>
      <point x="236" y="621"/>
    </contour>
  </outline>
</glyph>
<glyph name="parenright" format="2">
  <advance width="269"/>
  <unicode hex="0029"/>
  <outline>
    <contour>
      <point x="226" y="276" type="curve"/>
      <point x="252" y="463"/>
      <point x="205" y="642"/>
      <point x="93" y="704" type="curve"/>
      <point x="73" y="680" type="line"/>
      <point x="142" y="600"/>
      <point x="166" y="434"/>
      <point x="142" y="263" type="curve"/>
      <point x="116" y="75"/>
      <point x="41" y="-55"/>
      <point x="-38" y="-114" type="curve"/>
      <point x="-25" y="-138" type="line"/>
      <point x="101" y="-77"/>
      <point x="198" y="83"/>
    </contour>
  </outline>
</glyph>
<glyph name="asterisk" format="2">
  <advance width="318"/>
  <unicode hex="002A"/>
  <outline>
    <contour>
      <point x="126" y="311" type="line"/>
      <point x="137" y="314"/>
      <point x="159" y="324"/>
      <point x="171" y="332" type="curve"/>
      <point x="176" y="474" type="line"/>
      <point x="279" y="381" type="line"/>
      <point x="295" y="391" type="line"/>
      <point x="300" y="404"/>
      <point x="304" y="427"/>
      <point x="306" y="442" type="curve"/>
      <point x="192" y="498" type="line"/>
      <point x="333" y="560" type="line"/>
      <point x="335" y="578" type="line"/>
      <point x="329" y="588"/>
      <point x="311" y="600"/>
      <point x="301" y="608" type="curve"/>
      <point x="182" y="522" type="line"/>
      <point x="221" y="676" type="line"/>
      <point x="206" y="685" type="line"/>
      <point x="194" y="682"/>
      <point x="173" y="671"/>
      <point x="161" y="664" type="curve"/>
      <point x="156" y="522" type="line"/>
      <point x="54" y="614" type="line"/>
      <point x="37" y="604" type="line"/>
      <point x="32" y="593"/>
      <point x="29" y="568"/>
      <point x="25" y="554" type="curve"/>
      <point x="141" y="497" type="line"/>
      <point x="0" y="436" type="line"/>
      <point x="-2" y="417" type="line"/>
      <point x="3" y="408"/>
      <point x="20" y="395"/>
      <point x="31" y="388" type="curve"/>
      <point x="150" y="474" type="line"/>
      <point x="112" y="319" type="line"/>
    </contour>
  </outline>
</glyph>
<glyph name="plus" format="2">
  <advance width="345"/>
  <unicode hex="002B"/>
  <outline>
    <contour>
      <point x="226" y="386" type="line"/>
      <point x="215" y="397" type="line"/>
      <point x="204" y="394"/>
      <point x="179" y="387"/>
      <point x="168" y="383" type="curve"/>
      <point x="130" y="108" type="line"/>
      <point x="141" y="97" type="line"/>
      <point x="153" y="99"/>
      <point x="176" y="107"/>
      <point x="187" y="112" type="curve"/>
    </contour>
    <contour>
      <point x="323" y="263" type="curve"/>
      <point x="314" y="274" type="line"/>
      <point x="50" y="274" type="line"/>
      <point x="44" y="263"/>
      <point x="34" y="243"/>
      <point x="30" y="231" type="curve"/>
      <point x="39" y="220" type="line"/>
      <point x="303" y="220" type="line"/>
      <point x="309" y="229"/>
      <point x="319" y="251"/>
    </contour>
  </outline>
</glyph>
<glyph name="comma" format="2">
  <advance width="190"/>
  <unicode hex="002C"/>
  <outline>
    <contour>
      <point x="143" y="47" type="curve"/>
      <point x="143" y="83"/>
      <point x="134" y="93"/>
      <point x="114" y="105" type="curve"/>
      <point x="93" y="105"/>
      <point x="23" y="74"/>
      <point x="8" y="59" type="curve"/>
      <point x="12" y="35" type="line"/>
      <point x="47" y="40"/>
      <point x="60" y="18"/>
      <point x="60" y="-3" type="curve" smooth="yes"/>
      <point x="60" y="-36"/>
      <point x="37" y="-78"/>
      <point x="-7" y="-126" type="curve"/>
      <point x="11" y="-143" type="line"/>
      <point x="72" y="-107"/>
      <point x="143" y="-6"/>
    </contour>
  </outline>
</glyph>
<glyph name="hyphen" format="2">
  <advance width="400"/>
  <unicode hex="002D"/>
  <outline>
    <contour>
      <point x="351" y="191" type="line"/>
      <point x="365" y="261" type="line"/>
      <point x="85" y="261" type="line"/>
      <point x="71" y="191" type="line"/>
    </contour>
  </outline>
</glyph>
<glyph name="period" format="2">
  <advance width="190"/>
  <unicode hex="002E"/>
  <outline>
    <contour>
      <point x="134" y="68" type="curve"/>
      <point x="134" y="94"/>
      <point x="118" y="112"/>
      <point x="92" y="112" type="curve" smooth="yes"/>
      <point x="51" y="112"/>
      <point x="21" y="67"/>
      <point x="21" y="32" type="curve" smooth="yes"/>
      <point x="21" y="4"/>
      <point x="36" y="-13"/>
      <point x="63" y="-13" type="curve" smooth="yes"/>
      <point x="107" y="-13"/>
      <point x="134" y="31"/>
    </contour>
  </outline>
</glyph>
<glyph name="slash" format="2">
  <advance width="370"/>
  <unicode hex="002F"/>
  <outline>
    <contour>
      <point x="422" y="691" type="line"/>
      <point x="407" y="702" type="line"/>
      <point x="390" y="698"/>
      <point x="363" y="689"/>
      <point x="347" y="678" type="curve"/>
      <point x="-48" y="-135" type="line"/>
      <point x="-34" y="-147" type="line"/>
      <point x="-20" y="-143"/>
      <point x="15" y="-130"/>
      <point x="27" y="-123" type="curve"/>
    </contour>
  </outline>
</glyph>
<glyph name="zero" format="2">
  <advance width="361"/>
  <unicode hex="0030"/>
  <outline>
    <contour>
      <point x="352" y="344" type="curve"/>
      <point x="352" y="458"/>
      <point x="314" y="542"/>
      <point x="232" y="542" type="curve" smooth="yes"/>
      <point x="162" y="542"/>
      <point x="112" y="489"/>
      <point x="75" y="422" type="curve" smooth="yes"/>
      <point x="34" y="344"/>
      <point x="20" y="254"/>
      <point x="20" y="185" type="curve" smooth="yes"/>
      <point x="20" y="72"/>
      <point x="58" y="-13"/>
      <point x="140" y="-13" type="curve" smooth="yes"/>
      <point x="208" y="-13"/>
      <point x="256" y="38"/>
      <point x="295" y="103" type="curve" smooth="yes"/>
      <point x="340" y="179"/>
      <point x="352" y="274"/>
    </contour>
    <contour>
      <point x="285" y="345" type="curve"/>
      <point x="285" y="261"/>
      <point x="265" y="37"/>
      <point x="163" y="37" type="curve" smooth="yes"/>
      <point x="116" y="37"/>
      <point x="87" y="90"/>
      <point x="87" y="193" type="curve" smooth="yes"/>
      <point x="87" y="275"/>
      <point x="110" y="492"/>
      <point x="209" y="492" type="curve" smooth="yes"/>
      <point x="250" y="492"/>
      <point x="285" y="442"/>
    </contour>
  </outline>
</glyph>
<glyph name="one" format="2">
  <advance width="377"/>
  <unicode hex="0031"/>
  <outline>
    <contour>
      <point x="312" y="27" type="line"/>
      <point x="233" y="38"/>
      <point x="215" y="55"/>
      <point x="217" y="67" type="curve" smooth="yes"/>
      <point x="280" y="530" type="line"/>
      <point x="267" y="547" type="line"/>
      <point x="228" y="526"/>
      <point x="126" y="485"/>
      <point x="80" y="472" type="curve"/>
      <point x="86" y="445" type="line"/>
      <point x="158" y="461"/>
      <point x="185" y="459"/>
      <point x="190" y="451" type="curve" smooth="yes"/>
      <point x="196" y="443"/>
      <point x="195" y="431"/>
      <point x="192" y="408" type="curve" smooth="yes"/>
      <point x="145" y="67" type="line" smooth="yes"/>
      <point x="143" y="54"/>
      <point x="117" y="38"/>
      <point x="32" y="27" type="curve"/>
      <point x="28" y="0" type="line"/>
      <point x="308" y="0" type="line"/>
    </contour>
  </outline>
</glyph>
<glyph name="two" format="2">
  <advance width="377"/>
  <unicode hex="0032"/>
  <outline>
    <contour>
      <point x="359" y="444" type="curve"/>
      <point x="359" y="514"/>
      <point x="307" y="542"/>
      <point x="246" y="542" type="curve" smooth="yes"/>
      <point x="158" y="542"/>
      <point x="73" y="463"/>
      <point x="64" y="403" type="curve"/>
      <point x="74" y="384" type="line"/>
      <point x="98" y="387"/>
      <point x="122" y="397"/>
      <point x="141" y="408" type="curve"/>
      <point x="144" y="449"/>
      <point x="170" y="498"/>
      <point x="213" y="498" type="curve" smooth="yes"/>
      <point x="257" y="498"/>
      <point x="282" y="471"/>
      <point x="282" y="429" type="curve" smooth="yes"/>
      <point x="282" y="355"/>
      <point x="210" y="244"/>
      <point x="-1" y="32" type="curve"/>
      <point x="5" y="0" type="line"/>
      <point x="299" y="0" type="line"/>
      <point x="323" y="136" type="line"/>
      <point x="300" y="142" type="line"/>
      <point x="300" y="142"/>
      <point x="283" y="58"/>
      <point x="248" y="58" type="curve" smooth="yes"/>
      <point x="85" y="58" type="line"/>
      <point x="304" y="281"/>
      <point x="359" y="371"/>
    </contour>
  </outline>
</glyph>
<glyph name="three" format="2">
  <advance width="377"/>
  <unicode hex="0033"/>
  <outline>
    <contour>
      <point x="337" y="439" type="curve"/>
      <point x="337" y="493"/>
      <point x="305" y="542"/>
      <point x="226" y="542" type="curve" smooth="yes"/>
      <point x="145" y="542"/>
      <point x="67" y="471"/>
      <point x="60" y="421" type="curve"/>
      <point x="70" y="403" type="line"/>
      <point x="93" y="405"/>
      <point x="118" y="414"/>
      <point x="139" y="425" type="curve"/>
      <point x="138" y="466"/>
      <point x="164" y="498"/>
      <point x="202" y="498" type="curve" smooth="yes"/>
      <point x="243" y="498"/>
      <point x="260" y="466"/>
      <point x="260" y="429" type="curve" smooth="yes"/>
      <point x="260" y="354"/>
      <point x="204" y="317"/>
      <point x="133" y="298" type="curve"/>
      <point x="136" y="267" type="line"/>
      <point x="152" y="270"/>
      <point x="150" y="270"/>
      <point x="164" y="270" type="curve" smooth="yes"/>
      <point x="207" y="270"/>
      <point x="248" y="241"/>
      <point x="248" y="176" type="curve" smooth="yes"/>
      <point x="248" y="100"/>
      <point x="204" y="37"/>
      <point x="129" y="37" type="curve" smooth="yes"/>
      <point x="88" y="37"/>
      <point x="60" y="48"/>
      <point x="16" y="88" type="curve"/>
      <point x="-3" y="54" type="line"/>
      <point x="39" y="8"/>
      <point x="86" y="-13"/>
      <point x="127" y="-13" type="curve" smooth="yes"/>
      <point x="245" y="-13"/>
      <point x="326" y="78"/>
      <point x="326" y="188" type="curve" smooth="yes"/>
      <point x="326" y="246"/>
      <point x="292" y="299"/>
      <point x="236" y="306" type="curve"/>
      <point x="293" y="330"/>
      <point x="337" y="376"/>
    </contour>
  </outline>
</glyph>
<glyph name="four" format="2">
  <advance width="377"/>
  <unicode hex="0034"/>
  <outline>
    <contour>
      <point x="349" y="189" type="curve"/>
      <point x="339" y="203" type="line"/>
      <point x="289" y="203" type="line"/>
      <point x="333" y="530" type="line"/>
      <point x="320" y="547" type="line"/>
      <point x="301" y="538"/>
      <point x="275" y="525"/>
      <point x="249" y="514" type="curve"/>
      <point x="6" y="167" type="line"/>
      <point x="19" y="151" type="line"/>
      <point x="213" y="151" type="line"/>
      <point x="201" y="54" type="line" smooth="yes"/>
      <point x="199" y="44"/>
      <point x="183" y="36"/>
      <point x="112" y="23" type="curve"/>
      <point x="109" y="0" type="line"/>
      <point x="317" y="0" type="line"/>
      <point x="320" y="23" type="line"/>
      <point x="277" y="34"/>
      <point x="266" y="41"/>
      <point x="268" y="50" type="curve"/>
      <point x="282" y="151" type="line"/>
      <point x="309" y="151" type="line"/>
      <point x="322" y="161"/>
      <point x="334" y="171"/>
    </contour>
    <contour>
      <point x="255" y="448" type="line"/>
      <point x="221" y="202" type="line"/>
      <point x="81" y="202" type="line"/>
    </contour>
  </outline>
</glyph>
<glyph name="five" format="2">
  <advance width="361"/>
  <unicode hex="0035"/>
  <outline>
    <contour>
      <point x="351" y="524" type="curve"/>
      <point x="341" y="537" type="line"/>
      <point x="341" y="537"/>
      <point x="322" y="529"/>
      <point x="292" y="529" type="curve" smooth="yes"/>
      <point x="119" y="529" type="line"/>
      <point x="108" y="467"/>
      <point x="70" y="337"/>
      <point x="52" y="273" type="curve"/>
      <point x="68" y="259" type="line"/>
      <point x="99" y="282"/>
      <point x="130" y="294"/>
      <point x="160" y="294" type="curve" smooth="yes"/>
      <point x="218" y="294"/>
      <point x="252" y="252"/>
      <point x="252" y="195" type="curve" smooth="yes"/>
      <point x="252" y="117"/>
      <point x="217" y="31"/>
      <point x="129" y="31" type="curve" smooth="yes"/>
      <point x="99" y="31"/>
      <point x="69" y="40"/>
      <point x="16" y="81" type="curve"/>
      <point x="-1" y="52" type="line"/>
      <point x="39" y="6"/>
      <point x="84" y="-13"/>
      <point x="133" y="-13" type="curve" smooth="yes"/>
      <point x="249" y="-13"/>
      <point x="317" y="104"/>
      <point x="317" y="209" type="curve" smooth="yes"/>
      <point x="317" y="279"/>
      <point x="271" y="342"/>
      <point x="190" y="342" type="curve" smooth="yes"/>
      <point x="163" y="342"/>
      <point x="132" y="338"/>
      <point x="110" y="331" type="curve"/>
      <point x="118" y="357"/>
      <point x="141" y="439"/>
      <point x="148" y="474" type="curve"/>
      <point x="301" y="474" type="line"/>
      <point x="315" y="484"/>
      <point x="336" y="505"/>
    </contour>
  </outline>
</glyph>
<glyph name="six" format="2">
  <advance width="332"/>
  <unicode hex="0036"/>
  <outline>
    <contour>
      <point x="167" y="-9" type="curve" smooth="yes"/>
      <point x="298" y="-9"/>
      <point x="347" y="120"/>
      <point x="347" y="186" type="curve" smooth="yes"/>
      <point x="347" y="280"/>
      <point x="267" y="285"/>
      <point x="250" y="285" type="curve" smooth="yes"/>
      <point x="219" y="285"/>
      <point x="203" y="281"/>
      <point x="155" y="255" type="curve"/>
      <point x="189" y="346"/>
      <point x="278" y="427"/>
      <point x="392" y="444" type="curve"/>
      <point x="394" y="455" type="line"/>
      <point x="315" y="455"/>
      <point x="244" y="428"/>
      <point x="179" y="375" type="curve" smooth="yes"/>
      <point x="92" y="303"/>
      <point x="56" y="216"/>
      <point x="56" y="122" type="curve" smooth="yes"/>
      <point x="56" y="4"/>
      <point x="133" y="-9"/>
    </contour>
    <contour>
      <point x="283" y="175" type="curve" smooth="yes"/>
      <point x="283" y="135"/>
      <point x="264" y="9"/>
      <point x="181" y="9" type="curve" smooth="yes"/>
      <point x="121" y="9"/>
      <point x="113" y="73"/>
      <point x="113" y="105" type="curve" smooth="yes"/>
      <point x="113" y="126"/>
      <point x="115" y="146"/>
      <point x="120" y="167" type="curve" smooth="yes"/>
      <point x="128" y="208"/>
      <point x="138" y="254"/>
      <point x="215" y="254" type="curve" smooth="yes"/>
      <point x="269" y="254"/>
      <point x="283" y="215"/>
    </contour>
  </outline>
</glyph>
<glyph name="seven" format="2">
  <advance width="332"/>
  <unicode hex="0037"/>
  <outline>
    <contour>
      <point x="185" y="391" type="curve" smooth="yes"/>
      <point x="329" y="391" type="line"/>
      <point x="329" y="389"/>
      <point x="115" y="-1"/>
      <point x="113" y="-5" type="curve"/>
      <point x="157" y="-5" type="line"/>
      <point x="390" y="430" type="line"/>
      <point x="393" y="440" type="line"/>
      <point x="147" y="440" type="line"/>
      <point x="86" y="342" type="line"/>
      <point x="97" y="337" type="line"/>
      <point x="128" y="375"/>
      <point x="146" y="391"/>
    </contour>
  </outline>
</glyph>
<glyph name="eight" format="2">
  <advance width="377"/>
  <unicode hex="0038"/>
  <outline>
    <contour>
      <point x="358" y="439" type="curve"/>
      <point x="358" y="499"/>
      <point x="320" y="542"/>
      <point x="242" y="542" type="curve" smooth="yes"/>
      <point x="153" y="542"/>
      <point x="72" y="476"/>
      <point x="72" y="390" type="curve" smooth="yes"/>
      <point x="72" y="254"/>
      <point x="263" y="282"/>
      <point x="263" y="150" type="curve" smooth="yes"/>
      <point x="263" y="94"/>
      <point x="230" y="34"/>
      <point x="170" y="34" type="curve" smooth="yes"/>
      <point x="123" y="34"/>
      <point x="92" y="70"/>
      <point x="92" y="120" type="curve" smooth="yes"/>
      <point x="92" y="190"/>
      <point x="128" y="230"/>
      <point x="183" y="269" type="curve"/>
      <point x="151" y="286" type="line"/>
      <point x="83" y="250"/>
      <point x="14" y="191"/>
      <point x="14" y="109" type="curve" smooth="yes"/>
      <point x="14" y="44"/>
      <point x="58" y="-13"/>
      <point x="147" y="-13" type="curve" smooth="yes"/>
      <point x="250" y="-13"/>
      <point x="342" y="74"/>
      <point x="342" y="174" type="curve" smooth="yes"/>
      <point x="342" y="327"/>
      <point x="140" y="314"/>
      <point x="140" y="413" type="curve" smooth="yes"/>
      <point x="140" y="455"/>
      <point x="173" y="498"/>
      <point x="216" y="498" type="curve" smooth="yes"/>
      <point x="258" y="498"/>
      <point x="285" y="473"/>
      <point x="285" y="428" type="curve" smooth="yes"/>
      <point x="285" y="372"/>
      <point x="251" y="338"/>
      <point x="210" y="311" type="curve"/>
      <point x="240" y="292" type="line"/>
      <point x="294" y="325"/>
      <point x="358" y="369"/>
    </contour>
  </outline>
</glyph>
<glyph name="nine" format="2">
  <advance width="377"/>
  <unicode hex="0039"/>
  <outline>
    <contour>
      <point x="368" y="378" type="curve"/>
      <point x="368" y="490"/>
      <point x="312" y="542"/>
      <point x="241" y="542" type="curve" smooth="yes"/>
      <point x="129" y="542"/>
      <point x="45" y="419"/>
      <point x="45" y="318" type="curve" smooth="yes"/>
      <point x="45" y="247"/>
      <point x="88" y="191"/>
      <point x="162" y="191" type="curve" smooth="yes"/>
      <point x="223" y="191"/>
      <point x="274" y="235"/>
      <point x="306" y="287" type="curve"/>
      <point x="307" y="337" type="line"/>
      <point x="281" y="288"/>
      <point x="243" y="246"/>
      <point x="190" y="246" type="curve" smooth="yes"/>
      <point x="161" y="246"/>
      <point x="120" y="265"/>
      <point x="120" y="338" type="curve" smooth="yes"/>
      <point x="120" y="403"/>
      <point x="143" y="493"/>
      <point x="219" y="493" type="curve" smooth="yes"/>
      <point x="254" y="493"/>
      <point x="288" y="461"/>
      <point x="288" y="369" type="curve" smooth="yes"/>
      <point x="288" y="186"/>
      <point x="216" y="54"/>
      <point x="31" y="11" type="curve"/>
      <point x="36" y="-18" type="line"/>
      <point x="251" y="7"/>
      <point x="368" y="178"/>
    </contour>
  </outline>
</glyph>
<glyph name="colon" format="2">
  <advance width="190"/>
  <unicode hex="003A"/>
  <outline>
    <contour>
      <point x="106" y="297" type="curve" smooth="yes"/>
      <point x="150" y="297"/>
      <point x="177" y="342"/>
      <point x="177" y="379" type="curve"/>
      <point x="177" y="405"/>
      <point x="161" y="422"/>
      <point x="135" y="422" type="curve" smooth="yes"/>
      <point x="94" y="422"/>
      <point x="64" y="377"/>
      <point x="64" y="342" type="curve" smooth="yes"/>
      <point x="64" y="315"/>
      <point x="78" y="297"/>
    </contour>
    <contour>
      <point x="63" y="-13" type="curve" smooth="yes"/>
      <point x="107" y="-13"/>
      <point x="134" y="31"/>
      <point x="134" y="68" type="curve"/>
      <point x="134" y="94"/>
      <point x="118" y="112"/>
      <point x="92" y="112" type="curve" smooth="yes"/>
      <point x="51" y="112"/>
      <point x="21" y="67"/>
      <point x="21" y="32" type="curve" smooth="yes"/>
      <point x="21" y="4"/>
      <point x="36" y="-13"/>
    </contour>
  </outline>
</glyph>
<glyph name="semicolon" format="2">
  <advance width="190"/>
  <unicode hex="003B"/>
  <outline>
    <contour>
      <point x="11" y="-143" type="line"/>
      <point x="72" y="-107"/>
      <point x="143" y="-6"/>
      <point x="143" y="47" type="curve"/>
      <point x="143" y="83"/>
      <point x="134" y="93"/>
      <point x="114" y="105" type="curve"/>
      <point x="93" y="105"/>
      <point x="23" y="74"/>
      <point x="8" y="59" type="curve"/>
      <point x="12" y="35" type="line"/>
      <point x="47" y="40"/>
      <point x="60" y="18"/>
      <point x="60" y="-3" type="curve" smooth="yes"/>
      <point x="60" y="-36"/>
      <point x="37" y="-78"/>
      <point x="-7" y="-126" type="curve"/>
    </contour>
    <contour>
      <point x="107" y="297" type="curve" smooth="yes"/>
      <point x="151" y="297"/>
      <point x="177" y="342"/>
      <point x="177" y="378" type="curve"/>
      <point x="177" y="405"/>
      <point x="161" y="422"/>
      <point x="135" y="422" type="curve" smooth="yes"/>
      <point x="94" y="422"/>
      <point x="64" y="377"/>
      <point x="64" y="342" type="curve" smooth="yes"/>
      <point x="64" y="315"/>
      <point x="79" y="297"/>
    </contour>
  </outline>
</glyph>
<glyph name="less" format="2">
  <advance width="369"/>
  <unicode hex="003C"/>
  <outline>
    <contour>
      <point x="281" y="112" type="line"/>
      <point x="299" y="123"/>
      <point x="304" y="127"/>
      <point x="317" y="139" type="curve"/>
      <point x="312" y="155" type="line"/>
      <point x="100" y="247" type="line"/>
      <point x="337" y="339" type="line"/>
      <point x="342" y="350"/>
      <point x="348" y="372"/>
      <point x="353" y="384" type="curve"/>
      <point x="345" y="395" type="line"/>
      <point x="38" y="274" type="line"/>
      <point x="33" y="265"/>
      <point x="25" y="246"/>
      <point x="21" y="232" type="curve"/>
      <point x="31" y="221" type="line"/>
    </contour>
  </outline>
</glyph>
<glyph name="equal" format="2">
  <advance width="369"/>
  <unicode hex="003D"/>
  <outline>
    <contour>
      <point x="336" y="195" type="curve"/>
      <point x="328" y="206" type="line"/>
      <point x="39" y="206" type="line"/>
      <point x="33" y="195"/>
      <point x="26" y="178"/>
      <point x="21" y="166" type="curve"/>
      <point x="30" y="156" type="line"/>
      <point x="319" y="156" type="line"/>
      <point x="324" y="165"/>
      <point x="332" y="184"/>
    </contour>
    <contour>
      <point x="353" y="327" type="curve"/>
      <point x="345" y="338" type="line"/>
      <point x="57" y="338" type="line"/>
      <point x="51" y="326"/>
      <point x="43" y="310"/>
      <point x="39" y="298" type="curve"/>
      <point x="47" y="287" type="line"/>
      <point x="336" y="287" type="line"/>
      <point x="341" y="297"/>
      <point x="350" y="315"/>
    </contour>
  </outline>
</glyph>
<glyph name="greater" format="2">
  <advance width="375"/>
  <unicode hex="003E"/>
  <outline>
    <contour>
      <point x="339" y="289" type="line"/>
      <point x="87" y="398" type="line"/>
      <point x="69" y="387"/>
      <point x="61" y="378"/>
      <point x="48" y="367" type="curve"/>
      <point x="53" y="349" type="line"/>
      <point x="262" y="260" type="line"/>
      <point x="30" y="171" type="line"/>
      <point x="25" y="160"/>
      <point x="17" y="134"/>
      <point x="12" y="122" type="curve"/>
      <point x="21" y="110" type="line"/>
      <point x="331" y="230" type="line"/>
      <point x="337" y="242"/>
      <point x="345" y="262"/>
      <point x="350" y="276" type="curve"/>
    </contour>
  </outline>
</glyph>
<glyph name="question" format="2">
  <advance width="357"/>
  <unicode hex="003F"/>
  <outline>
    <contour>
      <point x="355" y="521" type="curve"/>
      <point x="355" y="580"/>
      <point x="321" y="628"/>
      <point x="246" y="628" type="curve" smooth="yes"/>
      <point x="139" y="628"/>
      <point x="71" y="553"/>
      <point x="71" y="479" type="curve"/>
      <point x="79" y="465" type="line"/>
      <point x="105" y="468"/>
      <point x="118" y="470"/>
      <point x="144" y="482" type="curve"/>
      <point x="142" y="490"/>
      <point x="141" y="498"/>
      <point x="141" y="506" type="curve" smooth="yes"/>
      <point x="141" y="551"/>
      <point x="167" y="586"/>
      <point x="208" y="586" type="curve" smooth="yes"/>
      <point x="259" y="586"/>
      <point x="285" y="553"/>
      <point x="285" y="495" type="curve" smooth="yes"/>
      <point x="285" y="386"/>
      <point x="146" y="330"/>
      <point x="141" y="213" type="curve" smooth="yes"/>
      <point x="139" y="162" type="line"/>
      <point x="149" y="152" type="line"/>
      <point x="163" y="157"/>
      <point x="171" y="163"/>
      <point x="181" y="170" type="curve"/>
      <point x="187" y="213" type="line" smooth="yes"/>
      <point x="202" y="336"/>
      <point x="355" y="366"/>
    </contour>
    <contour>
      <point x="194" y="66" type="curve"/>
      <point x="194" y="90"/>
      <point x="180" y="108"/>
      <point x="157" y="108" type="curve" smooth="yes"/>
      <point x="120" y="108"/>
      <point x="91" y="63"/>
      <point x="91" y="29" type="curve" smooth="yes"/>
      <point x="91" y="3"/>
      <point x="106" y="-13"/>
      <point x="128" y="-13" type="curve" smooth="yes"/>
      <point x="168" y="-13"/>
      <point x="194" y="30"/>
    </contour>
  </outline>
</glyph>
<glyph name="at" format="2">
  <advance width="748"/>
  <unicode hex="0040"/>
  <outline>
    <contour>
      <point x="699" y="298" type="curve" smooth="yes"/>
      <point x="699" y="463"/>
      <point x="583" y="552"/>
      <point x="425" y="552" type="curve" smooth="yes"/>
      <point x="247" y="552"/>
      <point x="66" y="428"/>
      <point x="66" y="191" type="curve" smooth="yes"/>
      <point x="66" y="-3"/>
      <point x="212" y="-122"/>
      <point x="383" y="-122" type="curve" smooth="yes"/>
      <point x="476" y="-122"/>
      <point x="554" y="-90"/>
      <point x="626" y="-51" type="curve"/>
      <point x="615" y="-23" type="line"/>
      <point x="566" y="-50"/>
      <point x="496" y="-82"/>
      <point x="403" y="-82" type="curve" smooth="yes"/>
      <point x="226" y="-82"/>
      <point x="123" y="42"/>
      <point x="123" y="205" type="curve" smooth="yes"/>
      <point x="123" y="383"/>
      <point x="252" y="517"/>
      <point x="435" y="517" type="curve" smooth="yes"/>
      <point x="548" y="517"/>
      <point x="660" y="448"/>
      <point x="660" y="297" type="curve" smooth="yes"/>
      <point x="660" y="170"/>
      <point x="583" y="90"/>
      <point x="536" y="90" type="curve" smooth="yes"/>
      <point x="506" y="90"/>
      <point x="499" y="116"/>
      <point x="507" y="152" type="curve"/>
      <point x="507" y="152"/>
      <point x="558" y="377"/>
      <point x="562" y="390" type="curve"/>
      <point x="516" y="390" type="line"/>
      <point x="502" y="371" type="line"/>
      <point x="479" y="384"/>
      <point x="447" y="393"/>
      <point x="423" y="393" type="curve" smooth="yes"/>
      <point x="323" y="393"/>
      <point x="225" y="298"/>
      <point x="225" y="176" type="curve" smooth="yes"/>
      <point x="225" y="96"/>
      <point x="267" y="45"/>
      <point x="325" y="45" type="curve" smooth="yes"/>
      <point x="363" y="45"/>
      <point x="399" y="69"/>
      <point x="440" y="111" type="curve"/>
      <point x="440" y="67"/>
      <point x="459" y="44"/>
      <point x="503" y="44" type="curve" smooth="yes"/>
      <point x="583" y="44"/>
      <point x="699" y="135"/>
    </contour>
    <contour>
      <point x="475" y="314" type="curve"/>
      <point x="443" y="148" type="line"/>
      <point x="426" y="128"/>
      <point x="397" y="96"/>
      <point x="361" y="96" type="curve" smooth="yes"/>
      <point x="321" y="96"/>
      <point x="299" y="125"/>
      <point x="299" y="183" type="curve" smooth="yes"/>
      <point x="299" y="280"/>
      <point x="348" y="360"/>
      <point x="428" y="360" type="curve" smooth="yes"/>
      <point x="456" y="360"/>
      <point x="478" y="328"/>
    </contour>
  </outline>
</glyph>
<glyph name="A" format="2">
  <advance width="510"/>
  <unicode hex="0041"/>
  <outline>
    <contour>
      <point x="182" y="237" type="line"/>
      <point x="281" y="465" type="line"/>
      <point x="321" y="237" type="line"/>
    </contour>
    <contour>
      <point x="329" y="192" type="line"/>
      <point x="354" y="53" type="line" smooth="yes"/>
      <point x="358" y="34"/>
      <point x="341" y="25"/>
      <point x="299" y="23" type="curve"/>
      <point x="296" y="0" type="line"/>
      <point x="477" y="0" type="line"/>
      <point x="479" y="23" type="line"/>
      <point x="442" y="28"/>
      <point x="434" y="37"/>
      <point x="432" y="53" type="curve" smooth="yes"/>
      <point x="335" y="578" type="line"/>
      <point x="315" y="570"/>
      <point x="283" y="553"/>
      <point x="263" y="536" type="curve"/>
      <point x="51" y="53" type="line" smooth="yes"/>
      <point x="44" y="35"/>
      <point x="22" y="30"/>
      <point x="-14" y="23" type="curve"/>
      <point x="-17" y="0" type="line"/>
      <point x="152" y="0" type="line"/>
      <point x="155" y="23" type="line"/>
      <point x="111" y="29"/>
      <point x="94" y="35"/>
      <point x="102" y="53" type="curve" smooth="yes"/>
      <point x="163" y="192" type="line"/>
    </contour>
  </outline>
</glyph>
<glyph name="B" format="2">
  <advance width="445"/>
  <unicode hex="0042"/>
  <outline>
    <contour>
      <point x="410" y="180" type="curve"/>
      <point x="410" y="250"/>
      <point x="370" y="304"/>
      <point x="310" y="317" type="curve"/>
      <point x="366" y="340"/>
      <point x="407" y="395"/>
      <point x="407" y="457" type="curve" smooth="yes"/>
      <point x="407" y="525"/>
      <point x="348" y="566"/>
      <point x="254" y="566" type="curve" smooth="yes"/>
      <point x="172" y="566"/>
      <point x="116" y="554"/>
      <point x="61" y="539" type="curve"/>
      <point x="61" y="511" type="line"/>
      <point x="106" y="522"/>
      <point x="147" y="529"/>
      <point x="242" y="529" type="curve" smooth="yes"/>
      <point x="282" y="529"/>
      <point x="339" y="505"/>
      <point x="339" y="433" type="curve" smooth="yes"/>
      <point x="339" y="340"/>
      <point x="262" y="318"/>
      <point x="180" y="318" type="curve" smooth="yes"/>
      <point x="140" y="318" type="line"/>
      <point x="138" y="275" type="line"/>
      <point x="162" y="281"/>
      <point x="192" y="285"/>
      <point x="227" y="285" type="curve" smooth="yes"/>
      <point x="309" y="285"/>
      <point x="341" y="223"/>
      <point x="341" y="164" type="curve" smooth="yes"/>
      <point x="341" y="93"/>
      <point x="290" y="23"/>
      <point x="214" y="23" type="curve" smooth="yes"/>
      <point x="185" y="23"/>
      <point x="145" y="27"/>
      <point x="124" y="43" type="curve"/>
      <point x="29" y="0" type="line"/>
      <point x="73" y="-4"/>
      <point x="166" y="-13"/>
      <point x="202" y="-13" type="curve"/>
      <point x="314" y="-13"/>
      <point x="410" y="65"/>
    </contour>
    <contour>
      <point x="198" y="553" type="line"/>
      <point x="134" y="553" type="line"/>
      <point x="64" y="45" type="line" smooth="yes"/>
      <point x="63" y="37"/>
      <point x="39" y="26"/>
      <point x="2" y="18" type="curve"/>
      <point x="0" y="0" type="line"/>
      <point x="180" y="0" type="line"/>
      <point x="182" y="18" type="line"/>
      <point x="145" y="26"/>
      <point x="127" y="38"/>
      <point x="128" y="45" type="curve" smooth="yes"/>
    </contour>
  </outline>
</glyph>
<glyph name="C" format="2">
  <advance width="443"/>
  <unicode hex="0043"/>
  <outline>
    <contour>
      <point x="455" y="522" type="curve" smooth="yes"/>
      <point x="429" y="547"/>
      <point x="382" y="566"/>
      <point x="325" y="566" type="curve" smooth="yes"/>
      <point x="270" y="566"/>
      <point x="215" y="546"/>
      <point x="173" y="512" type="curve" smooth="yes"/>
      <point x="74" y="434"/>
      <point x="31" y="312"/>
      <point x="31" y="201" type="curve" smooth="yes"/>
      <point x="31" y="65"/>
      <point x="111" y="-11"/>
      <point x="204" y="-11" type="curve" smooth="yes"/>
      <point x="259" y="-11"/>
      <point x="323" y="13"/>
      <point x="402" y="92" type="curve"/>
      <point x="401" y="98"/>
      <point x="393" y="111"/>
      <point x="389" y="115" type="curve"/>
      <point x="321" y="63"/>
      <point x="277" y="47"/>
      <point x="245" y="47" type="curve" smooth="yes"/>
      <point x="186" y="47"/>
      <point x="110" y="98"/>
      <point x="110" y="226" type="curve" smooth="yes"/>
      <point x="110" y="300"/>
      <point x="137" y="425"/>
      <point x="211" y="483" type="curve" smooth="yes"/>
      <point x="234" y="501"/>
      <point x="263" y="511"/>
      <point x="286" y="511" type="curve" smooth="yes"/>
      <point x="334" y="511"/>
      <point x="367" y="486"/>
      <point x="388" y="457" type="curve"/>
      <point x="405" y="452" type="line"/>
      <point x="421" y="465"/>
      <point x="460" y="518"/>
    </contour>
  </outline>
</glyph>
<glyph name="D" format="2">
  <advance width="536"/>
  <unicode hex="0044"/>
  <anchor x="318" y="585" name="U"/>
  <outline>
    <contour>
      <point x="522" y="332" type="curve" smooth="yes"/>
      <point x="522" y="483"/>
      <point x="412" y="536"/>
      <point x="267" y="536" type="curve" smooth="yes"/>
      <point x="76" y="536" type="line"/>
      <point x="76" y="503" type="line"/>
      <point x="120" y="499" type="line" smooth="yes"/>
      <point x="135" y="498"/>
      <point x="138" y="492"/>
      <point x="136" y="483" type="curve" smooth="yes"/>
      <point x="53" y="52" type="line"/>
      <point x="51" y="43"/>
      <point x="48" y="38"/>
      <point x="37" y="37" type="curve" smooth="yes"/>
      <point x="-12" y="33" type="line"/>
      <point x="-12" y="0" type="line"/>
      <point x="176" y="0" type="line" smooth="yes"/>
      <point x="380" y="0"/>
      <point x="522" y="135"/>
    </contour>
    <contour>
      <point x="435" y="339" type="curve" smooth="yes"/>
      <point x="435" y="187"/>
      <point x="351" y="43"/>
      <point x="190" y="41" type="curve"/>
      <point x="132" y="41" type="line"/>
      <point x="219" y="496" type="line"/>
      <point x="248" y="496" type="line"/>
      <point x="348" y="493"/>
      <point x="435" y="472"/>
    </contour>
  </outline>
</glyph>
<glyph name="E" format="2">
  <advance width="424"/>
  <unicode hex="0045"/>
  <outline>
    <contour>
      <point x="422" y="541" type="curve"/>
      <point x="410" y="553" type="line"/>
      <point x="199" y="553" type="line"/>
      <point x="181" y="509" type="line"/>
      <point x="345" y="509" type="line" smooth="yes"/>
      <point x="366" y="509"/>
      <point x="374" y="489"/>
      <point x="368" y="435" type="curve"/>
      <point x="391" y="435" type="line"/>
      <point x="401" y="457"/>
      <point x="417" y="511"/>
    </contour>
    <contour>
      <point x="350" y="309" type="curve"/>
      <point x="340" y="322" type="line"/>
      <point x="160" y="322" type="line"/>
      <point x="146" y="283" type="line"/>
      <point x="208" y="283" type="line" smooth="yes"/>
      <point x="269" y="283"/>
      <point x="288" y="278"/>
      <point x="306" y="259" type="curve"/>
      <point x="318" y="269"/>
      <point x="338" y="293"/>
    </contour>
    <contour>
      <point x="389" y="116" type="curve"/>
      <point x="368" y="125" type="line"/>
      <point x="335" y="56"/>
      <point x="319" y="43"/>
      <point x="270" y="43" type="curve" smooth="yes"/>
      <point x="221" y="43" type="line" smooth="yes"/>
      <point x="150" y="43"/>
      <point x="140" y="54"/>
      <point x="142" y="72" type="curve" smooth="yes"/>
      <point x="202" y="512" type="line" smooth="yes"/>
      <point x="204" y="520"/>
      <point x="227" y="526"/>
      <point x="264" y="530" type="curve"/>
      <point x="267" y="553" type="line"/>
      <point x="75" y="553" type="line"/>
      <point x="71" y="530" type="line"/>
      <point x="109" y="522"/>
      <point x="126" y="510"/>
      <point x="126" y="503" type="curve" smooth="yes"/>
      <point x="63" y="50" type="line" smooth="yes"/>
      <point x="62" y="42"/>
      <point x="39" y="31"/>
      <point x="2" y="23" type="curve"/>
      <point x="-1" y="0" type="line"/>
      <point x="356" y="0" type="line"/>
      <point x="363" y="17"/>
      <point x="377" y="65"/>
    </contour>
  </outline>
</glyph>
<glyph name="F" format="2">
  <advance width="411"/>
  <unicode hex="0046"/>
  <anchor x="267" y="585" name="U"/>
  <outline>
    <contour>
      <point x="455" y="536" type="line"/>
      <point x="76" y="536" type="line"/>
      <point x="76" y="503" type="line"/>
      <point x="120" y="499" type="line" smooth="yes"/>
      <point x="135" y="498"/>
      <point x="138" y="492"/>
      <point x="136" y="483" type="curve" smooth="yes"/>
      <point x="53" y="52" type="line"/>
      <point x="51" y="43"/>
      <point x="44" y="38"/>
      <point x="33" y="37" type="curve" smooth="yes"/>
      <point x="-12" y="33" type="line"/>
      <point x="-12" y="0" type="line"/>
      <point x="201" y="0" type="line"/>
      <point x="201" y="33" type="line"/>
      <point x="149" y="37" type="line" smooth="yes"/>
      <point x="135" y="38"/>
      <point x="132" y="44"/>
      <point x="134" y="52" type="curve" smooth="yes"/>
      <point x="172" y="250" type="line"/>
      <point x="274" y="250" type="line" smooth="yes"/>
      <point x="285" y="250"/>
      <point x="292" y="244"/>
      <point x="290" y="234" type="curve" smooth="yes"/>
      <point x="282" y="178" type="line"/>
      <point x="328" y="178" type="line"/>
      <point x="363" y="360" type="line"/>
      <point x="317" y="360" type="line"/>
      <point x="302" y="306" type="line"/>
      <point x="300" y="295"/>
      <point x="294" y="291"/>
      <point x="283" y="291" type="curve" smooth="yes"/>
      <point x="180" y="291" type="line"/>
      <point x="219" y="496" type="line"/>
      <point x="363" y="496" type="line" smooth="yes"/>
      <point x="375" y="496"/>
      <point x="379" y="492"/>
      <point x="379" y="481" type="curve" smooth="yes"/>
      <point x="379" y="407" type="line"/>
      <point x="430" y="407" type="line"/>
    </contour>
  </outline>
</glyph>
<glyph name="G" format="2">
  <advance width="478"/>
  <unicode hex="0047"/>
  <outline>
    <contour>
      <point x="476" y="261" type="line"/>
      <point x="262" y="261" type="line"/>
      <point x="260" y="237" type="line"/>
      <point x="348" y="224"/>
      <point x="356" y="214"/>
      <point x="354" y="201" type="curve" smooth="yes"/>
      <point x="336" y="70" type="line"/>
      <point x="315" y="55"/>
      <point x="285" y="47"/>
      <point x="258" y="47" type="curve" smooth="yes"/>
      <point x="189" y="47"/>
      <point x="109" y="103"/>
      <point x="109" y="228" type="curve" smooth="yes"/>
      <point x="109" y="310"/>
      <point x="146" y="425"/>
      <point x="201" y="471" type="curve" smooth="yes"/>
      <point x="232" y="497"/>
      <point x="265" y="513"/>
      <point x="288" y="513" type="curve" smooth="yes"/>
      <point x="343" y="513"/>
      <point x="378" y="495"/>
      <point x="405" y="456" type="curve"/>
      <point x="422" y="452" type="line"/>
      <point x="438" y="465"/>
      <point x="479" y="515"/>
      <point x="472" y="522" type="curve"/>
      <point x="442" y="550"/>
      <point x="386" y="566"/>
      <point x="349" y="566" type="curve" smooth="yes"/>
      <point x="275" y="566"/>
      <point x="213" y="541"/>
      <point x="164" y="501" type="curve" smooth="yes"/>
      <point x="85" y="437"/>
      <point x="31" y="321"/>
      <point x="31" y="210" type="curve" smooth="yes"/>
      <point x="31" y="68"/>
      <point x="123" y="-13"/>
      <point x="223" y="-13" type="curve" smooth="yes"/>
      <point x="271" y="-13"/>
      <point x="320" y="-1"/>
      <point x="409" y="69" type="curve"/>
      <point x="411" y="92"/>
      <point x="422" y="170"/>
      <point x="426" y="201" type="curve" smooth="yes"/>
      <point x="428" y="215"/>
      <point x="441" y="228"/>
      <point x="473" y="237" type="curve"/>
    </contour>
  </outline>
</glyph>
<glyph name="H" format="2">
  <advance width="553"/>
  <unicode hex="0048"/>
  <outline>
    <contour>
      <point x="576" y="553" type="line"/>
      <point x="384" y="553" type="line"/>
      <point x="381" y="530" type="line"/>
      <point x="419" y="522"/>
      <point x="436" y="510"/>
      <point x="435" y="503" type="curve" smooth="yes"/>
      <point x="372" y="50" type="line" smooth="yes"/>
      <point x="371" y="42"/>
      <point x="349" y="31"/>
      <point x="312" y="23" type="curve"/>
      <point x="308" y="0" type="line"/>
      <point x="500" y="0" type="line"/>
      <point x="503" y="23" type="line"/>
      <point x="465" y="31"/>
      <point x="448" y="43"/>
      <point x="449" y="50" type="curve" smooth="yes"/>
      <point x="511" y="503" type="line" smooth="yes"/>
      <point x="512" y="511"/>
      <point x="536" y="522"/>
      <point x="573" y="530" type="curve"/>
    </contour>
    <contour>
      <point x="416" y="312" type="line"/>
      <point x="163" y="312" type="line"/>
      <point x="157" y="267" type="line"/>
      <point x="410" y="267" type="line"/>
    </contour>
    <contour>
      <point x="266" y="553" type="line"/>
      <point x="75" y="553" type="line"/>
      <point x="71" y="530" type="line"/>
      <point x="109" y="522"/>
      <point x="126" y="510"/>
      <point x="125" y="503" type="curve" smooth="yes"/>
      <point x="63" y="50" type="line" smooth="yes"/>
      <point x="62" y="42"/>
      <point x="39" y="31"/>
      <point x="1" y="23" type="curve"/>
      <point x="-1" y="0" type="line"/>
      <point x="190" y="0" type="line"/>
      <point x="193" y="23" type="line"/>
      <point x="155" y="31"/>
      <point x="138" y="43"/>
      <point x="139" y="50" type="curve"/>
      <point x="201" y="503" type="line"/>
      <point x="203" y="511"/>
      <point x="225" y="522"/>
      <point x="263" y="530" type="curve"/>
    </contour>
  </outline>
</glyph>
<glyph name="I" format="2">
  <advance width="251"/>
  <unicode hex="0049"/>
  <anchor x="85" y="0" name="H"/>
  <anchor x="190" y="585" name="U"/>
  <outline>
    <contour>
      <point x="284" y="503" type="line"/>
      <point x="284" y="536" type="line"/>
      <point x="76" y="536" type="line"/>
      <point x="76" y="503" type="line"/>
      <point x="121" y="499" type="line" smooth="yes"/>
      <point x="135" y="498"/>
      <point x="138" y="492"/>
      <point x="136" y="483" type="curve" smooth="yes"/>
      <point x="53" y="52" type="line" smooth="yes"/>
      <point x="51" y="43"/>
      <point x="48" y="38"/>
      <point x="38" y="37" type="curve" smooth="yes"/>
      <point x="-12" y="33" type="line"/>
      <point x="-12" y="0" type="line"/>
      <point x="196" y="0" type="line"/>
      <point x="196" y="33" type="line"/>
      <point x="150" y="37" type="line" smooth="yes"/>
      <point x="135" y="38"/>
      <point x="132" y="44"/>
      <point x="134" y="52" type="curve" smooth="yes"/>
      <point x="217" y="483" type="line" smooth="yes"/>
      <point x="219" y="493"/>
      <point x="223" y="498"/>
      <point x="233" y="499" type="curve" smooth="yes"/>
    </contour>
  </outline>
</glyph>
<glyph name="J" format="2">
  <advance width="374"/>
  <unicode hex="004A"/>
  <anchor x="316" y="585" name="U"/>
  <outline>
    <contour>
      <point x="405" y="503" type="line"/>
      <point x="405" y="536" type="line"/>
      <point x="197" y="536" type="line"/>
      <point x="197" y="503" type="line"/>
      <point x="244" y="499" type="line" smooth="yes"/>
      <point x="257" y="498"/>
      <point x="260" y="492"/>
      <point x="259" y="483" type="curve" smooth="yes"/>
      <point x="206" y="197" type="line" smooth="yes"/>
      <point x="187" y="90"/>
      <point x="163" y="28"/>
      <point x="95" y="28" type="curve" smooth="yes"/>
      <point x="78" y="28"/>
      <point x="63" y="36"/>
      <point x="63" y="50" type="curve" smooth="yes"/>
      <point x="63" y="148" type="line"/>
      <point x="10" y="148" type="line"/>
      <point x="-16" y="11" type="line"/>
      <point x="-7" y="7"/>
      <point x="26" y="-12"/>
      <point x="89" y="-12" type="curve" smooth="yes"/>
      <point x="226" y="-12"/>
      <point x="264" y="72"/>
      <point x="288" y="204" type="curve" smooth="yes"/>
      <point x="339" y="483" type="line" smooth="yes"/>
      <point x="342" y="493"/>
      <point x="349" y="498"/>
      <point x="360" y="499" type="curve" smooth="yes"/>
    </contour>
  </outline>
</glyph>
<glyph name="K" format="2">
  <advance width="524"/>
  <unicode hex="004B"/>
  <anchor x="79" y="0" name="H"/>
  <anchor x="334" y="585" name="U"/>
  <outline>
    <contour>
      <point x="553" y="503" type="line"/>
      <point x="553" y="536" type="line"/>
      <point x="346" y="536" type="line"/>
      <point x="346" y="503" type="line"/>
      <point x="397" y="499" type="line" smooth="yes"/>
      <point x="408" y="498"/>
      <point x="409" y="489"/>
      <point x="403" y="483" type="curve" smooth="yes"/>
      <point x="190" y="273" type="line"/>
      <point x="176" y="273" type="line"/>
      <point x="217" y="483" type="line" smooth="yes"/>
      <point x="219" y="493"/>
      <point x="227" y="498"/>
      <point x="237" y="499" type="curve" smooth="yes"/>
      <point x="284" y="503" type="line"/>
      <point x="284" y="536" type="line"/>
      <point x="76" y="536" type="line"/>
      <point x="76" y="503" type="line"/>
      <point x="121" y="499" type="line" smooth="yes"/>
      <point x="135" y="498"/>
      <point x="138" y="492"/>
      <point x="136" y="483" type="curve" smooth="yes"/>
      <point x="52" y="52" type="line" smooth="yes"/>
      <point x="51" y="43"/>
      <point x="44" y="38"/>
      <point x="33" y="37" type="curve" smooth="yes"/>
      <point x="-12" y="33" type="line"/>
      <point x="-12" y="0" type="line"/>
      <point x="196" y="0" type="line"/>
      <point x="196" y="33" type="line"/>
      <point x="149" y="37" type="line" smooth="yes"/>
      <point x="135" y="38"/>
      <point x="132" y="44"/>
      <point x="133" y="52" type="curve" smooth="yes"/>
      <point x="169" y="235" type="line"/>
      <point x="218" y="235" type="line"/>
      <point x="316" y="46" type="line" smooth="yes"/>
      <point x="341" y="0"/>
      <point x="363" y="-12"/>
      <point x="409" y="-12" type="curve" smooth="yes"/>
      <point x="430" y="-12"/>
      <point x="460" y="-7"/>
      <point x="484" y="0" type="curve"/>
      <point x="484" y="33" type="line"/>
      <point x="471" y="32"/>
      <point x="460" y="32"/>
      <point x="451" y="32" type="curve" smooth="yes"/>
      <point x="423" y="32"/>
      <point x="407" y="39"/>
      <point x="387" y="79" type="curve" smooth="yes"/>
      <point x="276" y="294" type="line"/>
      <point x="486" y="496" type="line"/>
    </contour>
  </outline>
</glyph>
<glyph name="L" format="2">
  <advance width="414"/>
  <unicode hex="004C"/>
  <outline>
    <contour>
      <point x="385" y="116" type="curve"/>
      <point x="364" y="125" type="line"/>
      <point x="332" y="56"/>
      <point x="315" y="43"/>
      <point x="266" y="43" type="curve" smooth="yes"/>
      <point x="214" y="43" type="line" smooth="yes"/>
      <point x="155" y="43"/>
      <point x="140" y="52"/>
      <point x="142" y="73" type="curve" smooth="yes"/>
      <point x="201" y="503" type="line"/>
      <point x="203" y="511"/>
      <point x="226" y="522"/>
      <point x="263" y="530" type="curve"/>
      <point x="266" y="553" type="line"/>
      <point x="75" y="553" type="line"/>
      <point x="71" y="530" type="line"/>
      <point x="109" y="522"/>
      <point x="126" y="510"/>
      <point x="126" y="503" type="curve" smooth="yes"/>
      <point x="63" y="50" type="line" smooth="yes"/>
      <point x="62" y="42"/>
      <point x="39" y="31"/>
      <point x="2" y="23" type="curve"/>
      <point x="-1" y="0" type="line"/>
      <point x="352" y="0" type="line"/>
      <point x="359" y="17"/>
      <point x="374" y="65"/>
    </contour>
  </outline>
</glyph>
<glyph name="M" format="2">
  <advance width="677"/>
  <unicode hex="004D"/>
  <outline>
    <contour>
      <point x="633" y="23" type="line"/>
      <point x="595" y="31"/>
      <point x="575" y="43"/>
      <point x="576" y="50" type="curve" smooth="yes"/>
      <point x="632" y="529" type="line"/>
      <point x="559" y="504" type="line"/>
      <point x="506" y="50" type="line" smooth="yes"/>
      <point x="505" y="42"/>
      <point x="479" y="31"/>
      <point x="442" y="23" type="curve"/>
      <point x="439" y="0" type="line"/>
      <point x="630" y="0" type="line"/>
    </contour>
    <contour>
      <point x="690" y="553" type="line"/>
      <point x="568" y="553" type="line" smooth="yes"/>
      <point x="558" y="553"/>
      <point x="553" y="548"/>
      <point x="536" y="516" type="curve" smooth="yes"/>
      <point x="325" y="115" type="line" smooth="yes"/>
      <point x="315" y="96"/>
      <point x="314" y="73"/>
      <point x="317" y="0" type="curve"/>
      <point x="318" y="0" type="line"/>
      <point x="558" y="460" type="line" smooth="yes"/>
      <point x="577" y="497"/>
      <point x="651" y="530"/>
      <point x="687" y="530" type="curve"/>
    </contour>
    <contour>
      <point x="339" y="116" type="curve"/>
      <point x="228" y="516" type="line"/>
      <point x="219" y="548"/>
      <point x="217" y="553"/>
      <point x="207" y="553" type="curve" smooth="yes"/>
      <point x="82" y="553" type="line"/>
      <point x="79" y="530" type="line"/>
      <point x="108" y="530"/>
      <point x="155" y="516"/>
      <point x="169" y="462" type="curve" smooth="yes"/>
      <point x="293" y="0" type="line"/>
      <point x="317" y="0" type="line"/>
      <point x="339" y="73"/>
      <point x="344" y="97"/>
    </contour>
    <contour>
      <point x="186" y="532" type="line"/>
      <point x="134" y="521" type="line"/>
      <point x="66" y="50" type="line" smooth="yes"/>
      <point x="64" y="42"/>
      <point x="43" y="31"/>
      <point x="5" y="23" type="curve"/>
      <point x="1" y="0" type="line"/>
      <point x="166" y="0" type="line"/>
      <point x="169" y="23" type="line"/>
      <point x="132" y="31"/>
      <point x="115" y="43"/>
      <point x="116" y="50" type="curve" smooth="yes"/>
    </contour>
  </outline>
</glyph>
<glyph name="N" format="2">
  <advance width="548"/>
  <unicode hex="004E"/>
  <outline>
    <contour>
      <point x="576" y="553" type="line"/>
      <point x="412" y="553" type="line"/>
      <point x="409" y="530" type="line"/>
      <point x="451" y="523"/>
      <point x="464" y="510"/>
      <point x="463" y="503" type="curve" smooth="yes"/>
      <point x="411" y="123" type="line"/>
      <point x="203" y="519" type="line" smooth="yes"/>
      <point x="186" y="551"/>
      <point x="184" y="553"/>
      <point x="162" y="553" type="curve" smooth="yes"/>
      <point x="72" y="553" type="line"/>
      <point x="69" y="530" type="line"/>
      <point x="92" y="526"/>
      <point x="110" y="518"/>
      <point x="125" y="501" type="curve"/>
      <point x="62" y="50" type="line" smooth="yes"/>
      <point x="61" y="42"/>
      <point x="42" y="28"/>
      <point x="2" y="23" type="curve"/>
      <point x="0" y="0" type="line"/>
      <point x="163" y="0" type="line"/>
      <point x="167" y="23" type="line"/>
      <point x="127" y="29"/>
      <point x="113" y="42"/>
      <point x="114" y="50" type="curve" smooth="yes"/>
      <point x="166" y="429" type="line"/>
      <point x="377" y="24" type="line" smooth="yes"/>
      <point x="390" y="0"/>
      <point x="409" y="-9"/>
      <point x="443" y="-13" type="curve"/>
      <point x="514" y="503" type="line" smooth="yes"/>
      <point x="515" y="513"/>
      <point x="534" y="524"/>
      <point x="573" y="530" type="curve"/>
    </contour>
  </outline>
</glyph>
<glyph name="O" format="2">
  <advance width="498"/>
  <unicode hex="004F"/>
  <outline>
    <contour>
      <point x="487" y="340" type="curve"/>
      <point x="487" y="463"/>
      <point x="432" y="566"/>
      <point x="314" y="566" type="curve" smooth="yes"/>
      <point x="227" y="566"/>
      <point x="161" y="512"/>
      <point x="112" y="447" type="curve" smooth="yes"/>
      <point x="64" y="384"/>
      <point x="37" y="291"/>
      <point x="37" y="213" type="curve" smooth="yes"/>
      <point x="37" y="90"/>
      <point x="96" y="-13"/>
      <point x="211" y="-13" type="curve" smooth="yes"/>
      <point x="289" y="-13"/>
      <point x="354" y="36"/>
      <point x="404" y="98" type="curve" smooth="yes"/>
      <point x="457" y="165"/>
      <point x="487" y="257"/>
    </contour>
    <contour>
      <point x="408" y="332" type="curve"/>
      <point x="408" y="220"/>
      <point x="361" y="45"/>
      <point x="233" y="45" type="curve" smooth="yes"/>
      <point x="162" y="45"/>
      <point x="117" y="124"/>
      <point x="117" y="233" type="curve" smooth="yes"/>
      <point x="117" y="344"/>
      <point x="167" y="510"/>
      <point x="292" y="510" type="curve" smooth="yes"/>
      <point x="367" y="510"/>
      <point x="408" y="431"/>
    </contour>
  </outline>
</glyph>
<glyph name="P" format="2">
  <advance width="438"/>
  <unicode hex="0050"/>
  <outline>
    <contour>
      <point x="444" y="413" type="curve"/>
      <point x="444" y="514"/>
      <point x="371" y="566"/>
      <point x="251" y="566" type="curve" smooth="yes"/>
      <point x="175" y="566"/>
      <point x="112" y="556"/>
      <point x="60" y="538" type="curve"/>
      <point x="60" y="507" type="line"/>
      <point x="125" y="522"/>
      <point x="173" y="526"/>
      <point x="225" y="526" type="curve" smooth="yes"/>
      <point x="300" y="526"/>
      <point x="367" y="495"/>
      <point x="367" y="397" type="curve" smooth="yes"/>
      <point x="367" y="321"/>
      <point x="317" y="270"/>
      <point x="242" y="270" type="curve" smooth="yes"/>
      <point x="223" y="270"/>
      <point x="205" y="276"/>
      <point x="185" y="284" type="curve"/>
      <point x="191" y="247" type="line"/>
      <point x="206" y="239"/>
      <point x="231" y="232"/>
      <point x="254" y="232" type="curve" smooth="yes"/>
      <point x="358" y="232"/>
      <point x="444" y="314"/>
    </contour>
    <contour>
      <point x="208" y="549" type="line"/>
      <point x="131" y="549" type="line"/>
      <point x="62" y="50" type="line" smooth="yes"/>
      <point x="61" y="42"/>
      <point x="38" y="31"/>
      <point x="1" y="23" type="curve"/>
      <point x="-1" y="0" type="line"/>
      <point x="203" y="0" type="line"/>
      <point x="206" y="23" type="line"/>
      <point x="151" y="33"/>
      <point x="139" y="43"/>
      <point x="140" y="50" type="curve" smooth="yes"/>
    </contour>
  </outline>
</glyph>
<glyph name="Q" format="2">
  <advance width="567"/>
  <unicode hex="0051"/>
  <anchor x="397" y="585" name="U"/>
  <outline>
    <contour>
      <point x="577" y="-88" type="curve"/>
      <point x="577" y="-55" type="line"/>
      <point x="552" y="-66"/>
      <point x="516" y="-81"/>
      <point x="485" y="-81" type="curve" smooth="yes"/>
      <point x="432" y="-81"/>
      <point x="408" y="-43"/>
      <point x="376" y="16" type="curve"/>
      <point x="524" y="100"/>
      <point x="551" y="248"/>
      <point x="551" y="334" type="curve" smooth="yes"/>
      <point x="551" y="456"/>
      <point x="467" y="549"/>
      <point x="336" y="549" type="curve" smooth="yes"/>
      <point x="159" y="549"/>
      <point x="36" y="372"/>
      <point x="36" y="207" type="curve" smooth="yes"/>
      <point x="36" y="67"/>
      <point x="135" y="-12"/>
      <point x="253" y="-12" type="curve" smooth="yes"/>
      <point x="266" y="-12"/>
      <point x="281" y="-11"/>
      <point x="293" y="-9" type="curve"/>
      <point x="323" y="-76"/>
      <point x="360" y="-128"/>
      <point x="442" y="-128" type="curve" smooth="yes"/>
      <point x="498" y="-128"/>
      <point x="565" y="-95"/>
    </contour>
    <contour>
      <point x="461" y="334" type="curve" smooth="yes"/>
      <point x="461" y="195"/>
      <point x="375" y="29"/>
      <point x="260" y="29" type="curve" smooth="yes"/>
      <point x="177" y="29"/>
      <point x="126" y="103"/>
      <point x="126" y="203" type="curve" smooth="yes"/>
      <point x="126" y="352"/>
      <point x="213" y="508"/>
      <point x="332" y="508" type="curve" smooth="yes"/>
      <point x="409" y="508"/>
      <point x="461" y="435"/>
    </contour>
  </outline>
</glyph>
<glyph name="R" format="2">
  <advance width="483"/>
  <unicode hex="0052"/>
  <outline>
    <contour>
      <point x="431" y="426" type="curve" smooth="yes"/>
      <point x="431" y="517"/>
      <point x="362" y="566"/>
      <point x="253" y="566" type="curve" smooth="yes"/>
      <point x="173" y="566"/>
      <point x="114" y="554"/>
      <point x="60" y="539" type="curve"/>
      <point x="60" y="508" type="line"/>
      <point x="113" y="520"/>
      <point x="173" y="526"/>
      <point x="232" y="526" type="curve" smooth="yes"/>
      <point x="286" y="526"/>
      <point x="354" y="500"/>
      <point x="354" y="413" type="curve" smooth="yes"/>
      <point x="354" y="335"/>
      <point x="291" y="295"/>
      <point x="221" y="295" type="curve" smooth="yes"/>
      <point x="203" y="295"/>
      <point x="186" y="298"/>
      <point x="168" y="304" type="curve"/>
      <point x="163" y="266" type="line"/>
      <point x="182" y="260"/>
      <point x="212" y="257"/>
      <point x="232" y="257" type="curve" smooth="yes"/>
      <point x="374" y="257"/>
      <point x="431" y="369"/>
    </contour>
    <contour>
      <point x="485" y="48" type="curve"/>
      <point x="476" y="70" type="line"/>
      <point x="420" y="50"/>
      <point x="407" y="50"/>
      <point x="387" y="85" type="curve" smooth="yes"/>
      <point x="278" y="278" type="line"/>
      <point x="215" y="268" type="line"/>
      <point x="312" y="51" type="line" smooth="yes"/>
      <point x="334" y="2"/>
      <point x="350" y="-6"/>
      <point x="370" y="-6" type="curve" smooth="yes"/>
      <point x="386" y="-6"/>
      <point x="439" y="18"/>
    </contour>
    <contour>
      <point x="208" y="550" type="line"/>
      <point x="131" y="550" type="line"/>
      <point x="62" y="50" type="line" smooth="yes"/>
      <point x="62" y="42"/>
      <point x="39" y="31"/>
      <point x="2" y="23" type="curve"/>
      <point x="-1" y="0" type="line"/>
      <point x="191" y="0" type="line"/>
      <point x="194" y="23" type="line"/>
      <point x="157" y="31"/>
      <point x="138" y="43"/>
      <point x="140" y="50" type="curve"/>
    </contour>
  </outline>
</glyph>
<glyph name="S" format="2">
  <advance width="416"/>
  <unicode hex="0053"/>
  <anchor x="171" y="0" name="H"/>
  <anchor x="283" y="585" name="U"/>
  <outline>
    <contour>
      <point x="410" y="520" type="line"/>
      <point x="400" y="525"/>
      <point x="347" y="549"/>
      <point x="275" y="549" type="curve" smooth="yes"/>
      <point x="155" y="549"/>
      <point x="67" y="480"/>
      <point x="67" y="374" type="curve" smooth="yes"/>
      <point x="67" y="310"/>
      <point x="121" y="278"/>
      <point x="177" y="249" type="curve" smooth="yes"/>
      <point x="245" y="214"/>
      <point x="290" y="191"/>
      <point x="290" y="145" type="curve" smooth="yes"/>
      <point x="290" y="72"/>
      <point x="229" y="28"/>
      <point x="160" y="28" type="curve" smooth="yes"/>
      <point x="150" y="28"/>
      <point x="66" y="46"/>
      <point x="68" y="65" type="curve" smooth="yes"/>
      <point x="77" y="157" type="line"/>
      <point x="23" y="157" type="line"/>
      <point x="-3" y="28" type="line"/>
      <point x="7" y="21"/>
      <point x="67" y="-12"/>
      <point x="150" y="-12" type="curve" smooth="yes"/>
      <point x="313" y="-12"/>
      <point x="373" y="87"/>
      <point x="373" y="164" type="curve" smooth="yes"/>
      <point x="373" y="233"/>
      <point x="313" y="271"/>
      <point x="261" y="295" type="curve" smooth="yes"/>
      <point x="200" y="323"/>
      <point x="148" y="350"/>
      <point x="148" y="400" type="curve" smooth="yes"/>
      <point x="148" y="464"/>
      <point x="207" y="510"/>
      <point x="268" y="510" type="curve" smooth="yes"/>
      <point x="307" y="510"/>
      <point x="341" y="489"/>
      <point x="340" y="479" type="curve" smooth="yes"/>
      <point x="337" y="398" type="line"/>
      <point x="384" y="398" type="line"/>
    </contour>
  </outline>
</glyph>
<glyph name="T" format="2">
  <advance width="468"/>
  <unicode hex="0054"/>
  <anchor x="195" y="0" name="H"/>
  <anchor x="300" y="585" name="U"/>
  <outline>
    <contour>
      <point x="519" y="536" type="line"/>
      <point x="76" y="536" type="line"/>
      <point x="52" y="414" type="line"/>
      <point x="103" y="414" type="line"/>
      <point x="128" y="484" type="line" smooth="yes"/>
      <point x="131" y="495"/>
      <point x="138" y="500"/>
      <point x="148" y="500" type="curve" smooth="yes"/>
      <point x="248" y="500" type="line"/>
      <point x="164" y="52" type="line" smooth="yes"/>
      <point x="163" y="43"/>
      <point x="155" y="38"/>
      <point x="145" y="37" type="curve" smooth="yes"/>
      <point x="99" y="33" type="line"/>
      <point x="99" y="0" type="line"/>
      <point x="307" y="0" type="line"/>
      <point x="307" y="33" type="line"/>
      <point x="261" y="37" type="line" smooth="yes"/>
      <point x="247" y="38"/>
      <point x="244" y="44"/>
      <point x="245" y="52" type="curve" smooth="yes"/>
      <point x="328" y="500" type="line"/>
      <point x="432" y="500" type="line" smooth="yes"/>
      <point x="443" y="500"/>
      <point x="448" y="496"/>
      <point x="447" y="484" type="curve" smooth="yes"/>
      <point x="444" y="414" type="line"/>
      <point x="494" y="414" type="line"/>
    </contour>
  </outline>
</glyph>
<glyph name="U" format="2">
  <advance width="565"/>
  <unicode hex="0055"/>
  <anchor x="240" y="0" name="H"/>
  <anchor x="351" y="585" name="U"/>
  <outline>
    <contour>
      <point x="599" y="503" type="line"/>
      <point x="599" y="536" type="line"/>
      <point x="418" y="536" type="line"/>
      <point x="418" y="503" type="line"/>
      <point x="463" y="499" type="line" smooth="yes"/>
      <point x="477" y="498"/>
      <point x="480" y="492"/>
      <point x="479" y="483" type="curve" smooth="yes"/>
      <point x="423" y="199" type="line" smooth="yes"/>
      <point x="406" y="113"/>
      <point x="373" y="39"/>
      <point x="269" y="39" type="curve" smooth="yes"/>
      <point x="200" y="39"/>
      <point x="156" y="72"/>
      <point x="156" y="139" type="curve" smooth="yes"/>
      <point x="156" y="154"/>
      <point x="159" y="180"/>
      <point x="165" y="211" type="curve" smooth="yes"/>
      <point x="220" y="483" type="line"/>
      <point x="222" y="493"/>
      <point x="230" y="498"/>
      <point x="239" y="499" type="curve" smooth="yes"/>
      <point x="287" y="503" type="line"/>
      <point x="287" y="536" type="line"/>
      <point x="79" y="536" type="line"/>
      <point x="79" y="503" type="line"/>
      <point x="123" y="499" type="line" smooth="yes"/>
      <point x="138" y="498"/>
      <point x="141" y="492"/>
      <point x="139" y="483" type="curve" smooth="yes"/>
      <point x="83" y="211" type="line" smooth="yes"/>
      <point x="76" y="174"/>
      <point x="73" y="143"/>
      <point x="73" y="127" type="curve" smooth="yes"/>
      <point x="73" y="25"/>
      <point x="150" y="-12"/>
      <point x="248" y="-12" type="curve" smooth="yes"/>
      <point x="376" y="-12"/>
      <point x="449" y="55"/>
      <point x="471" y="171" type="curve" smooth="yes"/>
      <point x="533" y="483" type="line" smooth="yes"/>
      <point x="535" y="493"/>
      <point x="543" y="498"/>
      <point x="552" y="499" type="curve" smooth="yes"/>
    </contour>
  </outline>
</glyph>
<glyph name="V" format="2">
  <advance width="538"/>
  <unicode hex="0056"/>
  <outline>
    <contour>
      <point x="580" y="553" type="line"/>
      <point x="410" y="553" type="line"/>
      <point x="407" y="530" type="line"/>
      <point x="450" y="524"/>
      <point x="467" y="518"/>
      <point x="459" y="501" type="curve" smooth="yes"/>
      <point x="273" y="98" type="line"/>
      <point x="190" y="501" type="line" smooth="yes"/>
      <point x="186" y="519"/>
      <point x="202" y="527"/>
      <point x="244" y="530" type="curve"/>
      <point x="247" y="553" type="line"/>
      <point x="62" y="553" type="line"/>
      <point x="58" y="530" type="line"/>
      <point x="92" y="525"/>
      <point x="107" y="516"/>
      <point x="109" y="501" type="curve" smooth="yes"/>
      <point x="218" y="-13" type="line"/>
      <point x="237" y="-8"/>
      <point x="280" y="3"/>
      <point x="291" y="29" type="curve" smooth="yes"/>
      <point x="510" y="501" type="line"/>
      <point x="518" y="517"/>
      <point x="539" y="522"/>
      <point x="576" y="530" type="curve"/>
    </contour>
  </outline>
</glyph>
<glyph name="W" format="2">
  <advance width="693"/>
  <unicode hex="0057"/>
  <outline>
    <contour>
      <point x="739" y="553" type="line"/>
      <point x="565" y="553" type="line"/>
      <point x="562" y="530" type="line"/>
      <point x="598" y="523"/>
      <point x="625" y="516"/>
      <point x="620" y="503" type="curve" smooth="yes"/>
      <point x="498" y="130" type="line"/>
      <point x="417" y="553" type="line"/>
      <point x="387" y="553" type="line"/>
      <point x="202" y="130" type="line"/>
      <point x="176" y="499" type="line" smooth="yes"/>
      <point x="176" y="512"/>
      <point x="183" y="524"/>
      <point x="235" y="530" type="curve"/>
      <point x="238" y="553" type="line"/>
      <point x="57" y="553" type="line"/>
      <point x="54" y="530" type="line"/>
      <point x="92" y="522"/>
      <point x="105" y="514"/>
      <point x="106" y="499" type="curve" smooth="yes"/>
      <point x="139" y="-13" type="line"/>
      <point x="156" y="-9"/>
      <point x="194" y="0"/>
      <point x="206" y="25" type="curve" smooth="yes"/>
      <point x="373" y="405" type="line"/>
      <point x="450" y="-13" type="line"/>
      <point x="465" y="-9"/>
      <point x="503" y="0"/>
      <point x="512" y="25" type="curve" smooth="yes"/>
      <point x="670" y="503" type="line" smooth="yes"/>
      <point x="674" y="516"/>
      <point x="698" y="521"/>
      <point x="736" y="530" type="curve"/>
    </contour>
  </outline>
</glyph>
<glyph name="X" format="2">
  <advance width="514"/>
  <unicode hex="0058"/>
  <anchor x="313" y="580" name="U"/>
  <outline>
    <contour>
      <point x="528" y="553" type="line"/>
      <point x="347" y="553" type="line"/>
      <point x="344" y="534" type="line"/>
      <point x="391" y="530"/>
      <point x="412" y="524"/>
      <point x="393" y="497" type="curve" smooth="yes"/>
      <point x="276" y="331" type="line"/>
      <point x="294" y="281" type="line"/>
      <point x="447" y="497" type="line" smooth="yes"/>
      <point x="465" y="522"/>
      <point x="486" y="529"/>
      <point x="525" y="534" type="curve"/>
    </contour>
    <contour>
      <point x="479" y="18" type="line"/>
      <point x="449" y="23"/>
      <point x="432" y="30"/>
      <point x="420" y="55" type="curve" smooth="yes"/>
      <point x="201" y="497" type="line" smooth="yes"/>
      <point x="188" y="523"/>
      <point x="204" y="529"/>
      <point x="250" y="534" type="curve"/>
      <point x="252" y="553" type="line"/>
      <point x="72" y="553" type="line"/>
      <point x="69" y="534" type="line"/>
      <point x="104" y="529"/>
      <point x="115" y="523"/>
      <point x="128" y="497" type="curve"/>
      <point x="346" y="55" type="line"/>
      <point x="358" y="32"/>
      <point x="346" y="24"/>
      <point x="298" y="18" type="curve"/>
      <point x="296" y="0" type="line"/>
      <point x="476" y="0" type="line"/>
    </contour>
    <contour>
      <point x="260" y="248" type="line"/>
      <point x="239" y="298" type="line"/>
      <point x="72" y="55" type="line"/>
      <point x="55" y="31"/>
      <point x="29" y="21"/>
      <point x="-6" y="18" type="curve"/>
      <point x="-8" y="0" type="line"/>
      <point x="171" y="0" type="line"/>
      <point x="174" y="18" type="line"/>
      <point x="126" y="22"/>
      <point x="108" y="29"/>
      <point x="126" y="55" type="curve" smooth="yes"/>
    </contour>
  </outline>
</glyph>
<glyph name="Y" format="2">
  <advance width="506"/>
  <unicode hex="0059"/>
  <outline>
    <contour>
      <point x="537" y="553" type="line"/>
      <point x="375" y="553" type="line"/>
      <point x="372" y="530" type="line"/>
      <point x="412" y="524"/>
      <point x="423" y="517"/>
      <point x="414" y="501" type="curve" smooth="yes"/>
      <point x="283" y="297" type="line"/>
      <point x="266" y="362"/>
      <point x="217" y="483"/>
      <point x="180" y="541" type="curve" smooth="yes"/>
      <point x="173" y="553"/>
      <point x="162" y="560"/>
      <point x="153" y="560" type="curve" smooth="yes"/>
      <point x="130" y="560"/>
      <point x="79" y="550"/>
      <point x="47" y="543" type="curve"/>
      <point x="49" y="519" type="line"/>
      <point x="92" y="523"/>
      <point x="103" y="518"/>
      <point x="114" y="502" type="curve" smooth="yes"/>
      <point x="155" y="439"/>
      <point x="210" y="301"/>
      <point x="228" y="213" type="curve"/>
      <point x="285" y="213" type="line"/>
      <point x="468" y="501" type="line" smooth="yes"/>
      <point x="478" y="516"/>
      <point x="497" y="522"/>
      <point x="534" y="530" type="curve"/>
    </contour>
    <contour>
      <point x="335" y="23" type="line"/>
      <point x="286" y="34"/>
      <point x="273" y="47"/>
      <point x="274" y="54" type="curve" smooth="yes"/>
      <point x="305" y="279" type="line"/>
      <point x="228" y="279" type="line"/>
      <point x="197" y="54" type="line" smooth="yes"/>
      <point x="196" y="46"/>
      <point x="178" y="34"/>
      <point x="128" y="23" type="curve"/>
      <point x="124" y="0" type="line"/>
      <point x="332" y="0" type="line"/>
    </contour>
  </outline>
</glyph>
<glyph name="Z" format="2">
  <advance width="450"/>
  <unicode hex="005A"/>
  <anchor x="294" y="585" name="U"/>
  <outline>
    <contour>
      <point x="476" y="536" type="line"/>
      <point x="108" y="536" type="line"/>
      <point x="83" y="409" type="line"/>
      <point x="138" y="409" type="line"/>
      <point x="160" y="480" type="line" smooth="yes"/>
      <point x="163" y="490"/>
      <point x="167" y="495"/>
      <point x="179" y="495" type="curve" smooth="yes"/>
      <point x="366" y="495" type="line"/>
      <point x="-8" y="35" type="line"/>
      <point x="-16" y="0" type="line"/>
      <point x="380" y="0" type="line"/>
      <point x="407" y="148" type="line"/>
      <point x="353" y="148" type="line"/>
      <point x="329" y="58" type="line" smooth="yes"/>
      <point x="326" y="47"/>
      <point x="320" y="42"/>
      <point x="309" y="42" type="curve" smooth="yes"/>
      <point x="92" y="42" type="line"/>
      <point x="468" y="500" type="line"/>
    </contour>
  </outline>
</glyph>
<glyph name="bracketleft" format="2">
  <advance width="286"/>
  <unicode hex="005B"/>
  <outline>
    <contour>
      <point x="339" y="690" type="curve"/>
      <point x="326" y="702" type="line"/>
      <point x="145" y="702" type="line"/>
      <point x="25" y="-147" type="line"/>
      <point x="210" y="-147" type="line"/>
      <point x="216" y="-137"/>
      <point x="225" y="-117"/>
      <point x="228" y="-106" type="curve"/>
      <point x="214" y="-92" type="line"/>
      <point x="102" y="-92" type="line"/>
      <point x="205" y="649" type="line"/>
      <point x="321" y="649" type="line"/>
      <point x="325" y="656"/>
      <point x="335" y="675"/>
    </contour>
  </outline>
</glyph>
<glyph name="backslash" format="2">
  <advance width="365"/>
  <unicode hex="005C"/>
  <outline>
    <contour>
      <point x="306" y="-135" type="line"/>
      <point x="136" y="678" type="line"/>
      <point x="122" y="689"/>
      <point x="96" y="698"/>
      <point x="79" y="702" type="curve"/>
      <point x="62" y="691" type="line"/>
      <point x="233" y="-123" type="line"/>
      <point x="242" y="-130"/>
      <point x="277" y="-143"/>
      <point x="289" y="-147" type="curve"/>
    </contour>
  </outline>
</glyph>
<glyph name="bracketright" format="2">
  <advance width="336"/>
  <unicode hex="005D"/>
  <outline>
    <contour>
      <point x="300" y="566" type="line"/>
      <point x="94" y="566" type="line"/>
      <point x="94" y="529" type="line"/>
      <point x="216" y="529" type="line"/>
      <point x="98" y="-67" type="line"/>
      <point x="-32" y="-67" type="line"/>
      <point x="-32" y="-105" type="line"/>
      <point x="166" y="-105" type="line"/>
    </contour>
  </outline>
</glyph>
<glyph name="underscore" format="2">
  <advance width="326"/>
  <unicode hex="005F"/>
  <outline>
    <contour>
      <point x="312" y="-69" type="curve"/>
      <point x="303" y="-57" type="line"/>
      <point x="-24" y="-57" type="line"/>
      <point x="-31" y="-69"/>
      <point x="-40" y="-88"/>
      <point x="-44" y="-99" type="curve"/>
      <point x="-36" y="-112" type="line"/>
      <point x="292" y="-112" type="line"/>
      <point x="298" y="-101"/>
      <point x="308" y="-81"/>
    </contour>
  </outline>
</glyph>
<glyph name="grave" format="2">
  <advance width="266"/>
  <unicode hex="0060"/>
  <outline>
    <contour>
      <point x="250" y="461" type="curve"/>
      <point x="191" y="642" type="line"/>
      <point x="176" y="642"/>
      <point x="133" y="636"/>
      <point x="119" y="634" type="curve"/>
      <point x="104" y="616" type="line"/>
      <point x="219" y="449" type="line"/>
      <point x="230" y="450"/>
      <point x="238" y="454"/>
    </contour>
  </outline>
</glyph>
<glyph name="a" format="2">
  <advance width="405"/>
  <unicode hex="0061"/>
  <anchor x="161" y="0" name="H"/>
  <anchor x="241" y="439" name="U"/>
  <outline>
    <contour>
      <point x="395" y="29" type="curve"/>
      <point x="390" y="45" type="line"/>
      <point x="367" y="36"/>
      <point x="352" y="33"/>
      <point x="340" y="33" type="curve" smooth="yes"/>
      <point x="326" y="33"/>
      <point x="318" y="55"/>
      <point x="318" y="122" type="curve" smooth="yes"/>
      <point x="318" y="148"/>
      <point x="332" y="250"/>
      <point x="350" y="333" type="curve" smooth="yes"/>
      <point x="358" y="373"/>
      <point x="363" y="379"/>
      <point x="383" y="395" type="curve"/>
      <point x="374" y="411" type="line"/>
      <point x="334" y="392"/>
      <point x="297" y="365"/>
      <point x="291" y="338" type="curve" smooth="yes"/>
      <point x="285" y="304"/>
      <point x="257" y="157"/>
      <point x="257" y="123" type="curve" smooth="yes"/>
      <point x="257" y="6"/>
      <point x="276" y="-18"/>
      <point x="297" y="-18" type="curve" smooth="yes"/>
      <point x="315" y="-18"/>
      <point x="345" y="-3"/>
    </contour>
    <contour>
      <point x="356" y="371" type="curve"/>
      <point x="335" y="374"/>
      <point x="304" y="411"/>
      <point x="264" y="411" type="curve" smooth="yes"/>
      <point x="228" y="411"/>
      <point x="181" y="391"/>
      <point x="150" y="370" type="curve" smooth="yes"/>
      <point x="67" y="313"/>
      <point x="23" y="226"/>
      <point x="23" y="134" type="curve" smooth="yes"/>
      <point x="23" y="24"/>
      <point x="78" y="-18"/>
      <point x="116" y="-18" type="curve" smooth="yes"/>
      <point x="166" y="-18"/>
      <point x="230" y="69"/>
      <point x="259" y="122" type="curve"/>
      <point x="270" y="200" type="line"/>
      <point x="237" y="130"/>
      <point x="175" y="42"/>
      <point x="145" y="42" type="curve" smooth="yes"/>
      <point x="110" y="42"/>
      <point x="83" y="90"/>
      <point x="83" y="166" type="curve" smooth="yes"/>
      <point x="83" y="235"/>
      <point x="139" y="365"/>
      <point x="219" y="365" type="curve" smooth="yes"/>
      <point x="268" y="365"/>
      <point x="303" y="316"/>
      <point x="318" y="316" type="curve" smooth="yes"/>
      <point x="333" y="316"/>
      <point x="331" y="354"/>
    </contour>
  </outline>
</glyph>
<glyph name="b" format="2">
  <advance width="393"/>
  <unicode hex="0062"/>
  <anchor x="142" y="0" name="H"/>
  <anchor x="258" y="601" name="U"/>
  <outline>
    <contour>
      <point x="367" y="248" type="curve" smooth="yes"/>
      <point x="367" y="314"/>
      <point x="339" y="395"/>
      <point x="257" y="395" type="curve" smooth="yes"/>
      <point x="219" y="395"/>
      <point x="176" y="373"/>
      <point x="148" y="347" type="curve"/>
      <point x="193" y="589" type="line"/>
      <point x="162" y="589" type="line"/>
      <point x="37" y="565" type="line"/>
      <point x="37" y="541" type="line"/>
      <point x="108" y="534" type="line"/>
      <point x="14" y="27" type="line"/>
      <point x="51" y="3"/>
      <point x="97" y="-9"/>
      <point x="142" y="-9" type="curve" smooth="yes"/>
      <point x="304" y="-9"/>
      <point x="367" y="148"/>
    </contour>
    <contour>
      <point x="288" y="244" type="curve" smooth="yes"/>
      <point x="288" y="148"/>
      <point x="233" y="28"/>
      <point x="160" y="28" type="curve" smooth="yes"/>
      <point x="131" y="28"/>
      <point x="104" y="44"/>
      <point x="94" y="59" type="curve"/>
      <point x="139" y="301" type="line"/>
      <point x="166" y="324"/>
      <point x="205" y="342"/>
      <point x="231" y="342" type="curve" smooth="yes"/>
      <point x="250" y="342"/>
      <point x="288" y="316"/>
    </contour>
  </outline>
</glyph>
<glyph name="c" format="2">
  <advance width="349"/>
  <unicode hex="0063"/>
  <outline>
    <contour>
      <point x="357" y="358" type="curve"/>
      <point x="339" y="364"/>
      <point x="310" y="411"/>
      <point x="259" y="411" type="curve" smooth="yes"/>
      <point x="223" y="411"/>
      <point x="172" y="391"/>
      <point x="140" y="370" type="curve" smooth="yes"/>
      <point x="54" y="312"/>
      <point x="23" y="220"/>
      <point x="23" y="141" type="curve" smooth="yes"/>
      <point x="23" y="18"/>
      <point x="90" y="-18"/>
      <point x="130" y="-18" type="curve" smooth="yes"/>
      <point x="172" y="-18"/>
      <point x="223" y="-4"/>
      <point x="315" y="79" type="curve"/>
      <point x="312" y="83"/>
      <point x="305" y="91"/>
      <point x="301" y="97" type="curve"/>
      <point x="238" y="45"/>
      <point x="195" y="33"/>
      <point x="173" y="33" type="curve" smooth="yes"/>
      <point x="123" y="33"/>
      <point x="87" y="81"/>
      <point x="87" y="157" type="curve" smooth="yes"/>
      <point x="87" y="239"/>
      <point x="129" y="365"/>
      <point x="209" y="365" type="curve" smooth="yes"/>
      <point x="247" y="365"/>
      <point x="272" y="316"/>
      <point x="285" y="316" type="curve" smooth="yes"/>
      <point x="300" y="316"/>
      <point x="332" y="340"/>
    </contour>
  </outline>
</glyph>
<glyph name="d" format="2">
  <advance width="425"/>
  <unicode hex="0064"/>
  <anchor x="170" y="0" name="H"/>
  <anchor x="265" y="720" name="U"/>
  <outline>
    <contour>
      <point x="406" y="29" type="curve"/>
      <point x="400" y="45" type="line"/>
      <point x="379" y="36"/>
      <point x="364" y="34"/>
      <point x="349" y="34" type="curve" smooth="yes"/>
      <point x="335" y="34"/>
      <point x="329" y="63"/>
      <point x="329" y="131" type="curve" smooth="yes"/>
      <point x="329" y="210"/>
      <point x="401" y="540"/>
      <point x="401" y="631" type="curve" smooth="yes"/>
      <point x="401" y="658"/>
      <point x="393" y="667"/>
      <point x="377" y="667" type="curve" smooth="yes"/>
      <point x="362" y="667"/>
      <point x="308" y="648"/>
      <point x="259" y="626" type="curve"/>
      <point x="264" y="609" type="line"/>
      <point x="280" y="614"/>
      <point x="304" y="620"/>
      <point x="311" y="620" type="curve" smooth="yes"/>
      <point x="322" y="620"/>
      <point x="331" y="618"/>
      <point x="331" y="591" type="curve" smooth="yes"/>
      <point x="331" y="509"/>
      <point x="267" y="185"/>
      <point x="267" y="131" type="curve" smooth="yes"/>
      <point x="267" y="17"/>
      <point x="283" y="-18"/>
      <point x="305" y="-18" type="curve" smooth="yes"/>
      <point x="325" y="-18"/>
      <point x="356" y="-3"/>
    </contour>
    <contour>
      <point x="357" y="356" type="line"/>
      <point x="323" y="356"/>
      <point x="293" y="411"/>
      <point x="260" y="411" type="curve" smooth="yes"/>
      <point x="224" y="411"/>
      <point x="177" y="391"/>
      <point x="145" y="370" type="curve" smooth="yes"/>
      <point x="62" y="315"/>
      <point x="23" y="231"/>
      <point x="23" y="138" type="curve" smooth="yes"/>
      <point x="23" y="29"/>
      <point x="81" y="-18"/>
      <point x="121" y="-18" type="curve" smooth="yes"/>
      <point x="172" y="-18"/>
      <point x="228" y="50"/>
      <point x="268" y="125" type="curve"/>
      <point x="281" y="203" type="line"/>
      <point x="236" y="114"/>
      <point x="186" y="42"/>
      <point x="152" y="42" type="curve" smooth="yes"/>
      <point x="117" y="42"/>
      <point x="83" y="90"/>
      <point x="83" y="166" type="curve" smooth="yes"/>
      <point x="83" y="235"/>
      <point x="134" y="365"/>
      <point x="214" y="365" type="curve" smooth="yes"/>
      <point x="270" y="365"/>
      <point x="305" y="289"/>
      <point x="327" y="289" type="curve"/>
    </contour>
  </outline>
</glyph>
<glyph name="e" format="2">
  <advance width="362"/>
  <unicode hex="0065"/>
  <outline>
    <contour>
      <point x="340" y="333" type="curve"/>
      <point x="340" y="371"/>
      <point x="314" y="411"/>
      <point x="259" y="411" type="curve" smooth="yes"/>
      <point x="219" y="411"/>
      <point x="174" y="389"/>
      <point x="146" y="368" type="curve" smooth="yes"/>
      <point x="70" y="308"/>
      <point x="25" y="225"/>
      <point x="25" y="133" type="curve" smooth="yes"/>
      <point x="25" y="22"/>
      <point x="96" y="-18"/>
      <point x="138" y="-18" type="curve" smooth="yes"/>
      <point x="183" y="-18"/>
      <point x="234" y="1"/>
      <point x="330" y="84" type="curve"/>
      <point x="328" y="88"/>
      <point x="321" y="103"/>
      <point x="314" y="107" type="curve"/>
      <point x="243" y="50"/>
      <point x="198" y="38"/>
      <point x="173" y="38" type="curve" smooth="yes"/>
      <point x="139" y="38"/>
      <point x="101" y="92"/>
      <point x="101" y="168" type="curve" smooth="yes"/>
      <point x="101" y="233"/>
      <point x="134" y="300"/>
      <point x="172" y="337" type="curve" smooth="yes"/>
      <point x="189" y="353"/>
      <point x="210" y="360"/>
      <point x="219" y="360" type="curve" smooth="yes"/>
      <point x="238" y="360"/>
      <point x="257" y="346"/>
      <point x="257" y="313" type="curve" smooth="yes"/>
      <point x="257" y="269"/>
      <point x="240" y="234"/>
      <point x="67" y="168" type="curve"/>
      <point x="70" y="131" type="line"/>
      <point x="312" y="214"/>
      <point x="340" y="282"/>
    </contour>
  </outline>
</glyph>
<glyph name="f" format="2">
  <advance width="257"/>
  <unicode hex="0066"/>
  <anchor x="83" y="0" name="H"/>
  <anchor x="228" y="578" name="U"/>
  <outline>
    <contour>
      <point x="352" y="539" type="curve" smooth="yes"/>
      <point x="352" y="558"/>
      <point x="333" y="589"/>
      <point x="279" y="589" type="curve" smooth="yes"/>
      <point x="169" y="589"/>
      <point x="121" y="457"/>
      <point x="105" y="372" type="curve"/>
      <point x="35" y="349" type="line"/>
      <point x="35" y="318" type="line"/>
      <point x="96" y="324" type="line"/>
      <point x="80" y="219"/>
      <point x="71" y="124"/>
      <point x="57" y="49" type="curve" smooth="yes"/>
      <point x="44" y="-24"/>
      <point x="26" y="-91"/>
      <point x="-1" y="-125" type="curve"/>
      <point x="-83" y="-104" type="line"/>
      <point x="-95" y="-113"/>
      <point x="-103" y="-123"/>
      <point x="-103" y="-143" type="curve" smooth="yes"/>
      <point x="-103" y="-151"/>
      <point x="-94" y="-183"/>
      <point x="-53" y="-183" type="curve" smooth="yes"/>
      <point x="25" y="-183"/>
      <point x="101" y="-71"/>
      <point x="123" y="17" type="curve" smooth="yes"/>
      <point x="137" y="76"/>
      <point x="166" y="289"/>
      <point x="171" y="325" type="curve"/>
      <point x="276" y="325" type="line"/>
      <point x="276" y="365" type="line"/>
      <point x="178" y="365" type="line"/>
      <point x="183" y="406"/>
      <point x="206" y="519"/>
      <point x="239" y="547" type="curve"/>
      <point x="302" y="496" type="line"/>
      <point x="332" y="500"/>
      <point x="352" y="514"/>
    </contour>
  </outline>
</glyph>
<glyph name="g" format="2">
  <advance width="351"/>
  <unicode hex="0067"/>
  <anchor x="114" y="-168" name="H"/>
  <anchor x="224" y="429" name="U"/>
  <outline>
    <contour>
      <point x="387" y="336" type="line"/>
      <point x="387" y="374" type="line"/>
      <point x="279" y="374" type="line"/>
      <point x="269" y="380"/>
      <point x="238" y="395"/>
      <point x="200" y="395" type="curve" smooth="yes"/>
      <point x="98" y="395"/>
      <point x="38" y="314"/>
      <point x="38" y="236" type="curve" smooth="yes"/>
      <point x="38" y="185"/>
      <point x="70" y="155"/>
      <point x="112" y="137" type="curve"/>
      <point x="91" y="116"/>
      <point x="76" y="68"/>
      <point x="81" y="44" type="curve"/>
      <point x="23" y="24"/>
      <point x="-24" y="-12"/>
      <point x="-24" y="-66" type="curve" smooth="yes"/>
      <point x="-24" y="-127"/>
      <point x="23" y="-183"/>
      <point x="128" y="-183" type="curve" smooth="yes"/>
      <point x="230" y="-183"/>
      <point x="331" y="-123"/>
      <point x="331" y="-54" type="curve" smooth="yes"/>
      <point x="331" y="-7"/>
      <point x="298" y="11"/>
      <point x="249" y="33" type="curve" smooth="yes"/>
      <point x="142" y="82" type="line"/>
      <point x="139" y="91"/>
      <point x="144" y="114"/>
      <point x="151" y="130" type="curve"/>
      <point x="244" y="130"/>
      <point x="324" y="181"/>
      <point x="324" y="283" type="curve" smooth="yes"/>
      <point x="324" y="304"/>
      <point x="319" y="324"/>
      <point x="314" y="336" type="curve"/>
    </contour>
    <contour>
      <point x="248" y="287" type="curve" smooth="yes"/>
      <point x="248" y="236"/>
      <point x="214" y="160"/>
      <point x="160" y="160" type="curve" smooth="yes"/>
      <point x="132" y="160"/>
      <point x="115" y="187"/>
      <point x="115" y="226" type="curve" smooth="yes"/>
      <point x="115" y="301"/>
      <point x="163" y="361"/>
      <point x="201" y="361" type="curve" smooth="yes"/>
      <point x="233" y="361"/>
      <point x="248" y="326"/>
    </contour>
    <contour>
      <point x="256" y="-70" type="curve" smooth="yes"/>
      <point x="256" y="-96"/>
      <point x="226" y="-146"/>
      <point x="149" y="-146" type="curve" smooth="yes"/>
      <point x="81" y="-146"/>
      <point x="50" y="-89"/>
      <point x="50" y="-52" type="curve" smooth="yes"/>
      <point x="50" y="-20"/>
      <point x="64" y="12"/>
      <point x="116" y="24" type="curve"/>
      <point x="216" y="-20" type="line" smooth="yes"/>
      <point x="247" y="-35"/>
      <point x="256" y="-51"/>
    </contour>
  </outline>
</glyph>
<glyph name="h" format="2">
  <advance width="454"/>
  <unicode hex="0068"/>
  <outline>
    <contour>
      <point x="437" y="37" type="curve"/>
      <point x="429" y="57" type="line"/>
      <point x="408" y="48"/>
      <point x="392" y="43"/>
      <point x="376" y="43" type="curve" smooth="yes"/>
      <point x="368" y="43"/>
      <point x="360" y="49"/>
      <point x="360" y="69" type="curve" smooth="yes"/>
      <point x="360" y="117"/>
      <point x="397" y="275"/>
      <point x="397" y="336" type="curve" smooth="yes"/>
      <point x="397" y="392"/>
      <point x="381" y="411"/>
      <point x="344" y="411" type="curve" smooth="yes"/>
      <point x="292" y="411"/>
      <point x="228" y="383"/>
      <point x="160" y="304" type="curve"/>
      <point x="170" y="368"/>
      <point x="205" y="590"/>
      <point x="205" y="631" type="curve" smooth="yes"/>
      <point x="205" y="658"/>
      <point x="194" y="667"/>
      <point x="178" y="667" type="curve" smooth="yes"/>
      <point x="160" y="667"/>
      <point x="96" y="643"/>
      <point x="46" y="621" type="curve"/>
      <point x="52" y="600" type="line"/>
      <point x="64" y="603"/>
      <point x="92" y="612"/>
      <point x="102" y="612" type="curve" smooth="yes"/>
      <point x="111" y="612"/>
      <point x="120" y="609"/>
      <point x="120" y="582" type="curve" smooth="yes"/>
      <point x="120" y="508"/>
      <point x="57" y="122"/>
      <point x="35" y="-3" type="curve"/>
      <point x="51" y="-18" type="line"/>
      <point x="65" y="-10"/>
      <point x="110" y="9"/>
      <point x="126" y="16" type="curve"/>
      <point x="126" y="39"/>
      <point x="126" y="67"/>
      <point x="136" y="132" type="curve" smooth="yes"/>
      <point x="143" y="184"/>
      <point x="153" y="228"/>
      <point x="170" y="255" type="curve" smooth="yes"/>
      <point x="211" y="324"/>
      <point x="272" y="353"/>
      <point x="287" y="353" type="curve" smooth="yes"/>
      <point x="309" y="353"/>
      <point x="315" y="341"/>
      <point x="315" y="298" type="curve" smooth="yes"/>
      <point x="315" y="259"/>
      <point x="278" y="64"/>
      <point x="278" y="33" type="curve" smooth="yes"/>
      <point x="278" y="1"/>
      <point x="293" y="-18"/>
      <point x="311" y="-18" type="curve" smooth="yes"/>
      <point x="338" y="-18"/>
      <point x="383" y="5"/>
    </contour>
  </outline>
</glyph>
<glyph name="i" format="2">
  <advance width="221"/>
  <unicode hex="0069"/>
  <outline>
    <contour>
      <point x="211" y="554" type="curve"/>
      <point x="211" y="574"/>
      <point x="201" y="585"/>
      <point x="183" y="585" type="curve" smooth="yes"/>
      <point x="150" y="585"/>
      <point x="129" y="547"/>
      <point x="129" y="516" type="curve" smooth="yes"/>
      <point x="129" y="497"/>
      <point x="139" y="486"/>
      <point x="157" y="486" type="curve" smooth="yes"/>
      <point x="191" y="486"/>
      <point x="211" y="522"/>
    </contour>
    <contour>
      <point x="199" y="31" type="curve"/>
      <point x="193" y="47" type="line"/>
      <point x="169" y="37"/>
      <point x="154" y="33"/>
      <point x="136" y="33" type="curve" smooth="yes"/>
      <point x="127" y="33"/>
      <point x="123" y="41"/>
      <point x="123" y="59" type="curve" smooth="yes"/>
      <point x="123" y="110"/>
      <point x="169" y="322"/>
      <point x="169" y="374" type="curve" smooth="yes"/>
      <point x="169" y="401"/>
      <point x="163" y="411"/>
      <point x="146" y="411" type="curve" smooth="yes"/>
      <point x="131" y="411"/>
      <point x="79" y="391"/>
      <point x="30" y="369" type="curve"/>
      <point x="36" y="352" type="line"/>
      <point x="51" y="357"/>
      <point x="73" y="363"/>
      <point x="80" y="363" type="curve" smooth="yes"/>
      <point x="91" y="363"/>
      <point x="98" y="360"/>
      <point x="98" y="333" type="curve" smooth="yes"/>
      <point x="98" y="290"/>
      <point x="54" y="85"/>
      <point x="54" y="33" type="curve" smooth="yes"/>
      <point x="54" y="1"/>
      <point x="67" y="-18"/>
      <point x="87" y="-18" type="curve" smooth="yes"/>
      <point x="113" y="-18"/>
      <point x="145" y="0"/>
    </contour>
  </outline>
</glyph>
<glyph name="j" format="2">
  <advance width="218"/>
  <unicode hex="006A"/>
  <anchor x="167" y="429" name="U"/>
  <outline>
    <contour>
      <point x="212" y="512" type="curve" smooth="yes"/>
      <point x="212" y="536"/>
      <point x="195" y="558"/>
      <point x="163" y="558" type="curve" smooth="yes"/>
      <point x="129" y="558"/>
      <point x="113" y="536"/>
      <point x="113" y="512" type="curve" smooth="yes"/>
      <point x="113" y="487"/>
      <point x="134" y="467"/>
      <point x="163" y="467" type="curve" smooth="yes"/>
      <point x="192" y="467"/>
      <point x="212" y="493"/>
    </contour>
    <contour>
      <point x="184" y="395" type="line"/>
      <point x="155" y="395" type="line"/>
      <point x="34" y="370" type="line"/>
      <point x="34" y="347" type="line"/>
      <point x="101" y="339" type="line"/>
      <point x="41" y="-9" type="line" smooth="yes"/>
      <point x="33" y="-53"/>
      <point x="14" y="-109"/>
      <point x="0" y="-126" type="curve"/>
      <point x="-80" y="-104" type="line"/>
      <point x="-88" y="-109"/>
      <point x="-103" y="-120"/>
      <point x="-103" y="-140" type="curve" smooth="yes"/>
      <point x="-103" y="-164"/>
      <point x="-83" y="-183"/>
      <point x="-49" y="-183" type="curve" smooth="yes"/>
      <point x="57" y="-183"/>
      <point x="114" y="-16"/>
      <point x="128" y="64" type="curve" smooth="yes"/>
    </contour>
  </outline>
</glyph>
<glyph name="k" format="2">
  <advance width="395"/>
  <unicode hex="006B"/>
  <outline>
    <contour>
      <point x="395" y="381" type="curve"/>
      <point x="395" y="401"/>
      <point x="389" y="408"/>
      <point x="361" y="408" type="curve" smooth="yes"/>
      <point x="324" y="408"/>
      <point x="294" y="398"/>
      <point x="260" y="394" type="curve"/>
      <point x="261" y="377" type="line"/>
      <point x="293" y="377"/>
      <point x="308" y="374"/>
      <point x="308" y="366" type="curve" smooth="yes"/>
      <point x="308" y="353"/>
      <point x="279" y="330"/>
      <point x="232" y="294" type="curve" smooth="yes"/>
      <point x="135" y="221" type="line"/>
      <point x="163" y="206" type="line"/>
      <point x="254" y="261" type="line" smooth="yes"/>
      <point x="342" y="314"/>
      <point x="395" y="364"/>
    </contour>
    <contour>
      <point x="193" y="622" type="curve" smooth="yes"/>
      <point x="193" y="664"/>
      <point x="183" y="667"/>
      <point x="167" y="667" type="curve" smooth="yes"/>
      <point x="152" y="667"/>
      <point x="97" y="648"/>
      <point x="48" y="626" type="curve"/>
      <point x="54" y="609" type="line"/>
      <point x="66" y="613"/>
      <point x="93" y="620"/>
      <point x="102" y="620" type="curve" smooth="yes"/>
      <point x="116" y="620"/>
      <point x="123" y="619"/>
      <point x="123" y="590" type="curve" smooth="yes"/>
      <point x="123" y="501"/>
      <point x="46" y="63"/>
      <point x="37" y="-4" type="curve"/>
      <point x="53" y="-18" type="line"/>
      <point x="67" y="-10"/>
      <point x="102" y="4"/>
      <point x="118" y="11" type="curve"/>
      <point x="101" y="72"/>
      <point x="193" y="509"/>
    </contour>
    <contour>
      <point x="390" y="29" type="curve"/>
      <point x="383" y="44" type="line"/>
      <point x="373" y="38"/>
      <point x="355" y="33"/>
      <point x="333" y="33" type="curve" smooth="yes"/>
      <point x="293" y="33"/>
      <point x="235" y="217"/>
      <point x="183" y="248" type="curve"/>
      <point x="135" y="221" type="line"/>
      <point x="183" y="187"/>
      <point x="237" y="-17"/>
      <point x="301" y="-17" type="curve" smooth="yes"/>
      <point x="323" y="-17"/>
      <point x="352" y="-2"/>
    </contour>
  </outline>
</glyph>
<glyph name="l" format="2">
  <advance width="221"/>
  <unicode hex="006C"/>
  <outline>
    <contour>
      <point x="203" y="37" type="curve"/>
      <point x="197" y="57" type="line"/>
      <point x="171" y="47"/>
      <point x="155" y="43"/>
      <point x="142" y="43" type="curve" smooth="yes"/>
      <point x="132" y="43"/>
      <point x="126" y="49"/>
      <point x="126" y="69" type="curve" smooth="yes"/>
      <point x="126" y="149"/>
      <point x="202" y="540"/>
      <point x="202" y="631" type="curve" smooth="yes"/>
      <point x="202" y="658"/>
      <point x="191" y="667"/>
      <point x="175" y="667" type="curve" smooth="yes"/>
      <point x="157" y="667"/>
      <point x="92" y="643"/>
      <point x="43" y="621" type="curve"/>
      <point x="50" y="600" type="line"/>
      <point x="50" y="600"/>
      <point x="85" y="612"/>
      <point x="95" y="612" type="curve" smooth="yes"/>
      <point x="106" y="612"/>
      <point x="117" y="609"/>
      <point x="117" y="582" type="curve" smooth="yes"/>
      <point x="117" y="500"/>
      <point x="42" y="92"/>
      <point x="42" y="34" type="curve" smooth="yes"/>
      <point x="42" y="0"/>
      <point x="58" y="-18"/>
      <point x="74" y="-18" type="curve" smooth="yes"/>
      <point x="106" y="-18"/>
      <point x="145" y="1"/>
    </contour>
  </outline>
</glyph>
<glyph name="m" format="2">
  <advance width="620"/>
  <unicode hex="006D"/>
  <anchor x="504" y="0" name="H"/>
  <anchor x="365" y="429" name="U"/>
  <outline>
    <contour>
      <point x="618" y="20" type="curve"/>
      <point x="618" y="48" type="line"/>
      <point x="598" y="41"/>
      <point x="580" y="33"/>
      <point x="567" y="33" type="curve" smooth="yes"/>
      <point x="547" y="33"/>
      <point x="528" y="51"/>
      <point x="533" y="77" type="curve" smooth="yes"/>
      <point x="578" y="293" type="line" smooth="yes"/>
      <point x="591" y="355"/>
      <point x="563" y="395"/>
      <point x="509" y="395" type="curve" smooth="yes"/>
      <point x="460" y="395"/>
      <point x="402" y="360"/>
      <point x="364" y="321" type="curve"/>
      <point x="360" y="350"/>
      <point x="346" y="395"/>
      <point x="292" y="395" type="curve" smooth="yes"/>
      <point x="245" y="395"/>
      <point x="193" y="359"/>
      <point x="154" y="321" type="curve"/>
      <point x="169" y="395" type="line"/>
      <point x="136" y="395" type="line"/>
      <point x="16" y="370" type="line"/>
      <point x="16" y="347" type="line"/>
      <point x="83" y="339" type="line"/>
      <point x="14" y="0" type="line"/>
      <point x="87" y="0" type="line"/>
      <point x="144" y="268" type="line"/>
      <point x="160" y="288"/>
      <point x="211" y="339"/>
      <point x="248" y="339" type="curve" smooth="yes"/>
      <point x="283" y="339"/>
      <point x="289" y="295"/>
      <point x="282" y="260" type="curve" smooth="yes"/>
      <point x="228" y="0" type="line"/>
      <point x="303" y="0" type="line"/>
      <point x="359" y="270" type="line"/>
      <point x="370" y="288"/>
      <point x="417" y="339"/>
      <point x="466" y="339" type="curve" smooth="yes"/>
      <point x="487" y="339"/>
      <point x="507" y="313"/>
      <point x="496" y="260" type="curve" smooth="yes"/>
      <point x="452" y="46" type="line" smooth="yes"/>
      <point x="445" y="9"/>
      <point x="474" y="-9"/>
      <point x="517" y="-9" type="curve" smooth="yes"/>
      <point x="548" y="-9"/>
      <point x="591" y="9"/>
    </contour>
  </outline>
</glyph>
<glyph name="n" format="2">
  <advance width="423"/>
  <unicode hex="006E"/>
  <anchor x="309" y="0" name="H"/>
  <anchor x="253" y="429" name="U"/>
  <outline>
    <contour>
      <point x="421" y="16" type="curve"/>
      <point x="420" y="44" type="line"/>
      <point x="402" y="38"/>
      <point x="384" y="33"/>
      <point x="370" y="33" type="curve" smooth="yes"/>
      <point x="360" y="33"/>
      <point x="330" y="36"/>
      <point x="335" y="67" type="curve" smooth="yes"/>
      <point x="378" y="292" type="line"/>
      <point x="391" y="364"/>
      <point x="365" y="395"/>
      <point x="307" y="395" type="curve" smooth="yes"/>
      <point x="253" y="395"/>
      <point x="193" y="356"/>
      <point x="158" y="320" type="curve"/>
      <point x="173" y="395" type="line"/>
      <point x="141" y="395" type="line"/>
      <point x="20" y="370" type="line"/>
      <point x="20" y="347" type="line"/>
      <point x="87" y="339" type="line"/>
      <point x="18" y="0" type="line"/>
      <point x="92" y="0" type="line"/>
      <point x="148" y="268" type="line"/>
      <point x="183" y="306"/>
      <point x="237" y="338"/>
      <point x="263" y="338" type="curve" smooth="yes"/>
      <point x="280" y="338"/>
      <point x="306" y="325"/>
      <point x="298" y="283" type="curve" smooth="yes"/>
      <point x="249" y="37" type="line" smooth="yes"/>
      <point x="240" y="-5"/>
      <point x="295" y="-9"/>
      <point x="314" y="-9" type="curve" smooth="yes"/>
      <point x="348" y="-9"/>
      <point x="407" y="11"/>
    </contour>
  </outline>
</glyph>
<glyph name="o" format="2">
  <advance width="404"/>
  <unicode hex="006F"/>
  <anchor x="163" y="0" name="H"/>
  <anchor x="251" y="429" name="U"/>
  <outline>
    <contour>
      <point x="380" y="239" type="curve" smooth="yes"/>
      <point x="380" y="348"/>
      <point x="313" y="395"/>
      <point x="236" y="395" type="curve" smooth="yes"/>
      <point x="111" y="395"/>
      <point x="24" y="271"/>
      <point x="24" y="141" type="curve" smooth="yes"/>
      <point x="24" y="48"/>
      <point x="79" y="-9"/>
      <point x="167" y="-9" type="curve" smooth="yes"/>
      <point x="290" y="-9"/>
      <point x="380" y="110"/>
    </contour>
    <contour>
      <point x="299" y="243" type="curve" smooth="yes"/>
      <point x="299" y="148"/>
      <point x="252" y="26"/>
      <point x="176" y="26" type="curve" smooth="yes"/>
      <point x="136" y="26"/>
      <point x="105" y="66"/>
      <point x="105" y="145" type="curve" smooth="yes"/>
      <point x="105" y="249"/>
      <point x="158" y="360"/>
      <point x="228" y="360" type="curve" smooth="yes"/>
      <point x="268" y="360"/>
      <point x="299" y="319"/>
    </contour>
  </outline>
</glyph>
<glyph name="p" format="2">
  <advance width="432"/>
  <unicode hex="0070"/>
  <outline>
    <contour>
      <point x="399" y="275" type="curve"/>
      <point x="399" y="363"/>
      <point x="359" y="411"/>
      <point x="312" y="411" type="curve" smooth="yes"/>
      <point x="273" y="411"/>
      <point x="217" y="395"/>
      <point x="135" y="268" type="curve"/>
      <point x="137" y="205" type="line"/>
      <point x="175" y="291"/>
      <point x="242" y="347"/>
      <point x="270" y="347" type="curve" smooth="yes"/>
      <point x="296" y="347"/>
      <point x="322" y="308"/>
      <point x="322" y="232" type="curve" smooth="yes"/>
      <point x="322" y="194"/>
      <point x="319" y="141"/>
      <point x="300" y="100" type="curve" smooth="yes"/>
      <point x="286" y="72"/>
      <point x="263" y="54"/>
      <point x="234" y="54" type="curve" smooth="yes"/>
      <point x="191" y="54"/>
      <point x="140" y="105"/>
      <point x="124" y="139" type="curve"/>
      <point x="106" y="96" type="line"/>
      <point x="140" y="41"/>
      <point x="185" y="-18"/>
      <point x="226" y="-18" type="curve" smooth="yes"/>
      <point x="275" y="-18"/>
      <point x="318" y="33"/>
      <point x="345" y="79" type="curve" smooth="yes"/>
      <point x="381" y="141"/>
      <point x="399" y="213"/>
    </contour>
    <contour>
      <point x="163" y="382" type="curve"/>
      <point x="163" y="405"/>
      <point x="155" y="411"/>
      <point x="142" y="411" type="curve" smooth="yes"/>
      <point x="125" y="411"/>
      <point x="60" y="387"/>
      <point x="9" y="364" type="curve"/>
      <point x="16" y="344" type="line"/>
      <point x="26" y="347"/>
      <point x="51" y="354"/>
      <point x="59" y="354" type="curve" smooth="yes"/>
      <point x="69" y="354"/>
      <point x="80" y="352"/>
      <point x="80" y="325" type="curve" smooth="yes"/>
      <point x="80" y="250"/>
      <point x="3" y="-138"/>
      <point x="-4" y="-205" type="curve"/>
      <point x="10" y="-219" type="line"/>
      <point x="25" y="-212"/>
      <point x="71" y="-195"/>
      <point x="88" y="-190" type="curve"/>
      <point x="82" y="-174"/>
      <point x="86" y="-118"/>
      <point x="105" y="2" type="curve" smooth="yes"/>
      <point x="144" y="246"/>
      <point x="163" y="344"/>
    </contour>
  </outline>
</glyph>
<glyph name="q" format="2">
  <advance width="417"/>
  <unicode hex="0071"/>
  <anchor x="279" y="429" name="U"/>
  <outline>
    <contour>
      <point x="392" y="395" type="line"/>
      <point x="344" y="395" type="line"/>
      <point x="325" y="371" type="line"/>
      <point x="311" y="383"/>
      <point x="283" y="395"/>
      <point x="250" y="395" type="curve" smooth="yes"/>
      <point x="116" y="395"/>
      <point x="25" y="258"/>
      <point x="25" y="135" type="curve" smooth="yes"/>
      <point x="25" y="39"/>
      <point x="71" y="-9"/>
      <point x="135" y="-9" type="curve" smooth="yes"/>
      <point x="173" y="-9"/>
      <point x="212" y="12"/>
      <point x="249" y="42" type="curve"/>
      <point x="216" y="-123" type="line" smooth="yes"/>
      <point x="214" y="-134"/>
      <point x="207" y="-139"/>
      <point x="196" y="-139" type="curve" smooth="yes"/>
      <point x="154" y="-144" type="line"/>
      <point x="154" y="-174" type="line"/>
      <point x="355" y="-174" type="line"/>
      <point x="355" y="-144" type="line"/>
      <point x="306" y="-139" type="line" smooth="yes"/>
      <point x="292" y="-138"/>
      <point x="288" y="-132"/>
      <point x="290" y="-123" type="curve" smooth="yes"/>
    </contour>
    <contour>
      <point x="301" y="310" type="curve"/>
      <point x="258" y="90" type="line"/>
      <point x="230" y="65"/>
      <point x="200" y="39"/>
      <point x="167" y="39" type="curve" smooth="yes"/>
      <point x="128" y="39"/>
      <point x="103" y="77"/>
      <point x="103" y="138" type="curve" smooth="yes"/>
      <point x="103" y="263"/>
      <point x="173" y="358"/>
      <point x="260" y="358" type="curve" smooth="yes"/>
      <point x="272" y="358"/>
      <point x="303" y="322"/>
    </contour>
  </outline>
</glyph>
<glyph name="r" format="2">
  <advance width="335"/>
  <unicode hex="0072"/>
  <outline>
    <contour>
      <point x="355" y="373" type="curve"/>
      <point x="329" y="384"/>
      <point x="311" y="411"/>
      <point x="290" y="411" type="curve" smooth="yes"/>
      <point x="252" y="411"/>
      <point x="210" y="388"/>
      <point x="154" y="280" type="curve"/>
      <point x="157" y="302"/>
      <point x="164" y="350"/>
      <point x="164" y="362" type="curve" smooth="yes"/>
      <point x="164" y="402"/>
      <point x="162" y="411"/>
      <point x="146" y="411" type="curve" smooth="yes"/>
      <point x="129" y="411"/>
      <point x="65" y="387"/>
      <point x="15" y="364" type="curve"/>
      <point x="22" y="344" type="line"/>
      <point x="31" y="347"/>
      <point x="57" y="354"/>
      <point x="66" y="354" type="curve" smooth="yes"/>
      <point x="76" y="354"/>
      <point x="84" y="352"/>
      <point x="84" y="325" type="curve" smooth="yes"/>
      <point x="84" y="272"/>
      <point x="62" y="121"/>
      <point x="36" y="-3" type="curve"/>
      <point x="51" y="-18" type="line"/>
      <point x="65" y="-11"/>
      <point x="111" y="9"/>
      <point x="126" y="16" type="curve"/>
      <point x="124" y="63"/>
      <point x="134" y="124"/>
      <point x="146" y="168" type="curve" smooth="yes"/>
      <point x="170" y="252"/>
      <point x="222" y="334"/>
      <point x="253" y="334" type="curve" smooth="yes"/>
      <point x="270" y="334"/>
      <point x="281" y="303"/>
      <point x="303" y="303" type="curve" smooth="yes"/>
      <point x="314" y="303"/>
      <point x="341" y="354"/>
    </contour>
  </outline>
</glyph>
<glyph name="s" format="2">
  <advance width="323"/>
  <unicode hex="0073"/>
  <outline>
    <contour>
      <point x="319" y="370" type="curve"/>
      <point x="291" y="377"/>
      <point x="268" y="411"/>
      <point x="207" y="411" type="curve" smooth="yes"/>
      <point x="137" y="411"/>
      <point x="51" y="360"/>
      <point x="51" y="286" type="curve" smooth="yes"/>
      <point x="51" y="249"/>
      <point x="71" y="219"/>
      <point x="133" y="189" type="curve" smooth="yes"/>
      <point x="177" y="168"/>
      <point x="219" y="140"/>
      <point x="219" y="96" type="curve" smooth="yes"/>
      <point x="219" y="58"/>
      <point x="188" y="28"/>
      <point x="148" y="28" type="curve" smooth="yes"/>
      <point x="71" y="28"/>
      <point x="56" y="108"/>
      <point x="43" y="108" type="curve" smooth="yes"/>
      <point x="30" y="108"/>
      <point x="-3" y="59"/>
      <point x="-3" y="45" type="curve" smooth="yes"/>
      <point x="-3" y="20"/>
      <point x="53" y="-18"/>
      <point x="115" y="-18" type="curve" smooth="yes"/>
      <point x="191" y="-18"/>
      <point x="290" y="45"/>
      <point x="290" y="127" type="curve" smooth="yes"/>
      <point x="290" y="188"/>
      <point x="238" y="222"/>
      <point x="190" y="245" type="curve" smooth="yes"/>
      <point x="143" y="268"/>
      <point x="123" y="289"/>
      <point x="123" y="312" type="curve" smooth="yes"/>
      <point x="123" y="347"/>
      <point x="152" y="370"/>
      <point x="184" y="370" type="curve" smooth="yes"/>
      <point x="224" y="370"/>
      <point x="244" y="317"/>
      <point x="260" y="317" type="curve" smooth="yes"/>
      <point x="270" y="317"/>
      <point x="297" y="344"/>
    </contour>
  </outline>
</glyph>
<glyph name="t" format="2">
  <advance width="239"/>
  <unicode hex="0074"/>
  <anchor x="100" y="0" name="H"/>
  <anchor x="190" y="532" name="U"/>
  <outline>
    <contour>
      <point x="279" y="335" type="line"/>
      <point x="279" y="371" type="line"/>
      <point x="168" y="371" type="line"/>
      <point x="184" y="463" type="line"/>
      <point x="135" y="463" type="line"/>
      <point x="96" y="383" type="line"/>
      <point x="36" y="356" type="line"/>
      <point x="36" y="330" type="line"/>
      <point x="87" y="335" type="line"/>
      <point x="38" y="92" type="line" smooth="yes"/>
      <point x="35" y="80"/>
      <point x="35" y="69"/>
      <point x="35" y="59" type="curve" smooth="yes"/>
      <point x="35" y="19"/>
      <point x="52" y="-9"/>
      <point x="110" y="-9" type="curve" smooth="yes"/>
      <point x="156" y="-9"/>
      <point x="227" y="20"/>
      <point x="240" y="26" type="curve"/>
      <point x="240" y="58" type="line"/>
      <point x="223" y="52"/>
      <point x="187" y="39"/>
      <point x="157" y="39" type="curve" smooth="yes"/>
      <point x="130" y="39"/>
      <point x="105" y="55"/>
      <point x="111" y="83" type="curve" smooth="yes"/>
      <point x="161" y="335" type="line"/>
    </contour>
  </outline>
</glyph>
<glyph name="u" format="2">
  <advance width="421"/>
  <unicode hex="0075"/>
  <anchor x="179" y="0" name="H"/>
  <anchor x="256" y="429" name="U"/>
  <outline>
    <contour>
      <point x="419" y="19" type="curve"/>
      <point x="419" y="47" type="line"/>
      <point x="396" y="34"/>
      <point x="379" y="32"/>
      <point x="368" y="32" type="curve" smooth="yes"/>
      <point x="351" y="32"/>
      <point x="326" y="44"/>
      <point x="333" y="77" type="curve" smooth="yes"/>
      <point x="397" y="385" type="line"/>
      <point x="323" y="385" type="line"/>
      <point x="262" y="91" type="line"/>
      <point x="232" y="63"/>
      <point x="190" y="39"/>
      <point x="151" y="39" type="curve" smooth="yes"/>
      <point x="131" y="39"/>
      <point x="104" y="63"/>
      <point x="110" y="90" type="curve" smooth="yes"/>
      <point x="174" y="395" type="line"/>
      <point x="141" y="395" type="line"/>
      <point x="20" y="370" type="line"/>
      <point x="20" y="347" type="line"/>
      <point x="87" y="339" type="line"/>
      <point x="35" y="90" type="line" smooth="yes"/>
      <point x="27" y="48"/>
      <point x="43" y="-9"/>
      <point x="117" y="-9" type="curve" smooth="yes"/>
      <point x="171" y="-9"/>
      <point x="216" y="10"/>
      <point x="258" y="50" type="curve"/>
      <point x="258" y="37"/>
      <point x="250" y="-9"/>
      <point x="310" y="-9" type="curve" smooth="yes"/>
      <point x="344" y="-9"/>
      <point x="399" y="7"/>
    </contour>
  </outline>
</glyph>
<glyph name="v" format="2">
  <advance width="410"/>
  <unicode hex="0076"/>
  <outline>
    <contour>
      <point x="403" y="374" type="curve"/>
      <point x="403" y="402"/>
      <point x="390" y="411"/>
      <point x="370" y="411" type="curve" smooth="yes"/>
      <point x="348" y="411"/>
      <point x="293" y="389"/>
      <point x="258" y="371" type="curve"/>
      <point x="267" y="351" type="line"/>
      <point x="280" y="356"/>
      <point x="291" y="358"/>
      <point x="301" y="358" type="curve" smooth="yes"/>
      <point x="317" y="358"/>
      <point x="327" y="351"/>
      <point x="327" y="339" type="curve" smooth="yes"/>
      <point x="327" y="313"/>
      <point x="293" y="214"/>
      <point x="207" y="78" type="curve"/>
      <point x="207" y="100"/>
      <point x="171" y="310"/>
      <point x="158" y="355" type="curve" smooth="yes"/>
      <point x="146" y="396"/>
      <point x="139" y="411"/>
      <point x="121" y="411" type="curve" smooth="yes"/>
      <point x="106" y="411"/>
      <point x="54" y="386"/>
      <point x="4" y="363" type="curve"/>
      <point x="12" y="342" type="line"/>
      <point x="24" y="346"/>
      <point x="46" y="353"/>
      <point x="55" y="353" type="curve" smooth="yes"/>
      <point x="65" y="353"/>
      <point x="77" y="349"/>
      <point x="86" y="317" type="curve" smooth="yes"/>
      <point x="101" y="263"/>
      <point x="132" y="95"/>
      <point x="144" y="-3" type="curve"/>
      <point x="159" y="-18" type="line"/>
      <point x="171" y="-13"/>
      <point x="201" y="1"/>
      <point x="211" y="6" type="curve"/>
      <point x="355" y="237"/>
      <point x="403" y="336"/>
    </contour>
  </outline>
</glyph>
<glyph name="w" format="2">
  <advance width="581"/>
  <unicode hex="0077"/>
  <outline>
    <contour>
      <point x="578" y="377" type="curve"/>
      <point x="578" y="406"/>
      <point x="560" y="411"/>
      <point x="541" y="411" type="curve" smooth="yes"/>
      <point x="527" y="411"/>
      <point x="487" y="401"/>
      <point x="446" y="376" type="curve"/>
      <point x="455" y="355" type="line"/>
      <point x="468" y="359"/>
      <point x="481" y="362"/>
      <point x="489" y="362" type="curve" smooth="yes"/>
      <point x="505" y="362"/>
      <point x="513" y="354"/>
      <point x="513" y="342" type="curve" smooth="yes"/>
      <point x="513" y="301"/>
      <point x="491" y="223"/>
      <point x="411" y="78" type="curve"/>
      <point x="406" y="134"/>
      <point x="392" y="208"/>
      <point x="384" y="263" type="curve" smooth="yes"/>
      <point x="374" y="316"/>
      <point x="355" y="411"/>
      <point x="348" y="411" type="curve" smooth="yes"/>
      <point x="334" y="411"/>
      <point x="301" y="390"/>
      <point x="282" y="373" type="curve"/>
      <point x="278" y="301"/>
      <point x="228" y="177"/>
      <point x="181" y="86" type="curve"/>
      <point x="178" y="130"/>
      <point x="158" y="306"/>
      <point x="148" y="351" type="curve" smooth="yes"/>
      <point x="138" y="393"/>
      <point x="132" y="411"/>
      <point x="116" y="411" type="curve" smooth="yes"/>
      <point x="99" y="411"/>
      <point x="49" y="387"/>
      <point x="0" y="363" type="curve"/>
      <point x="6" y="342" type="line"/>
      <point x="6" y="342"/>
      <point x="40" y="353"/>
      <point x="50" y="353" type="curve" smooth="yes"/>
      <point x="60" y="353"/>
      <point x="74" y="349"/>
      <point x="81" y="317" type="curve"/>
      <point x="94" y="265"/>
      <point x="108" y="95"/>
      <point x="121" y="-3" type="curve"/>
      <point x="136" y="-18" type="line"/>
      <point x="148" y="-12"/>
      <point x="181" y="5"/>
      <point x="191" y="10" type="curve"/>
      <point x="249" y="109"/>
      <point x="303" y="247"/>
      <point x="308" y="285" type="curve"/>
      <point x="323" y="231"/>
      <point x="341" y="95"/>
      <point x="354" y="-3" type="curve"/>
      <point x="370" y="-18" type="line"/>
      <point x="381" y="-12"/>
      <point x="411" y="1"/>
      <point x="421" y="7" type="curve"/>
      <point x="553" y="250"/>
      <point x="578" y="331"/>
    </contour>
  </outline>
</glyph>
<glyph name="x" format="2">
  <advance width="422"/>
  <unicode hex="0078"/>
  <anchor x="281" y="0" name="H"/>
  <anchor x="260" y="429" name="U"/>
  <outline>
    <contour>
      <point x="431" y="348" type="curve" smooth="yes"/>
      <point x="431" y="376"/>
      <point x="411" y="395"/>
      <point x="382" y="395" type="curve" smooth="yes"/>
      <point x="315" y="395"/>
      <point x="259" y="303"/>
      <point x="228" y="243" type="curve"/>
      <point x="203" y="339"/>
      <point x="175" y="395"/>
      <point x="137" y="395" type="curve" smooth="yes"/>
      <point x="127" y="395"/>
      <point x="55" y="371"/>
      <point x="41" y="366" type="curve"/>
      <point x="41" y="344" type="line"/>
      <point x="111" y="335" type="line" smooth="yes"/>
      <point x="122" y="334"/>
      <point x="165" y="226"/>
      <point x="172" y="194" type="curve"/>
      <point x="143" y="118"/>
      <point x="100" y="69"/>
      <point x="68" y="49" type="curve"/>
      <point x="35" y="81" type="line"/>
      <point x="3" y="76"/>
      <point x="-14" y="60"/>
      <point x="-14" y="34" type="curve" smooth="yes"/>
      <point x="-14" y="6"/>
      <point x="8" y="-9"/>
      <point x="41" y="-9" type="curve" smooth="yes"/>
      <point x="115" y="-9"/>
      <point x="163" y="82"/>
      <point x="192" y="138" type="curve"/>
      <point x="206" y="83"/>
      <point x="236" y="-9"/>
      <point x="289" y="-9" type="curve" smooth="yes"/>
      <point x="323" y="-9"/>
      <point x="352" y="0"/>
      <point x="383" y="16" type="curve"/>
      <point x="383" y="44" type="line"/>
      <point x="361" y="34"/>
      <point x="349" y="33"/>
      <point x="337" y="33" type="curve" smooth="yes"/>
      <point x="318" y="33"/>
      <point x="298" y="61"/>
      <point x="283" y="96" type="curve" smooth="yes"/>
      <point x="268" y="129"/>
      <point x="255" y="172"/>
      <point x="250" y="192" type="curve"/>
      <point x="281" y="266"/>
      <point x="323" y="316"/>
      <point x="351" y="327" type="curve"/>
      <point x="387" y="296" type="line"/>
      <point x="418" y="306"/>
      <point x="431" y="327"/>
    </contour>
  </outline>
</glyph>
<glyph name="y" format="2">
  <advance width="414"/>
  <unicode hex="0079"/>
  <outline>
    <contour>
      <point x="233" y="21" type="line"/>
      <point x="213" y="139"/>
      <point x="174" y="281"/>
      <point x="148" y="355" type="curve" smooth="yes"/>
      <point x="134" y="395"/>
      <point x="126" y="411"/>
      <point x="109" y="411" type="curve" smooth="yes"/>
      <point x="93" y="411"/>
      <point x="41" y="388"/>
      <point x="-5" y="364" type="curve"/>
      <point x="0" y="344" type="line"/>
      <point x="15" y="348"/>
      <point x="36" y="354"/>
      <point x="44" y="354" type="curve" smooth="yes"/>
      <point x="54" y="354"/>
      <point x="62" y="348"/>
      <point x="75" y="318" type="curve" smooth="yes"/>
      <point x="101" y="262"/>
      <point x="148" y="68"/>
      <point x="166" y="-32" type="curve"/>
      <point x="180" y="-45" type="line"/>
    </contour>
    <contour>
      <point x="402" y="377" type="curve"/>
      <point x="402" y="406"/>
      <point x="384" y="411"/>
      <point x="365" y="411" type="curve" smooth="yes"/>
      <point x="342" y="411"/>
      <point x="301" y="396"/>
      <point x="259" y="372" type="curve"/>
      <point x="268" y="352" type="line"/>
      <point x="285" y="359"/>
      <point x="296" y="362"/>
      <point x="307" y="362" type="curve" smooth="yes"/>
      <point x="322" y="362"/>
      <point x="330" y="352"/>
      <point x="330" y="338" type="curve" smooth="yes"/>
      <point x="330" y="303"/>
      <point x="256" y="147"/>
      <point x="196" y="32" type="curve" smooth="yes"/>
      <point x="137" y="-79"/>
      <point x="86" y="-145"/>
      <point x="34" y="-145" type="curve" smooth="yes"/>
      <point x="12" y="-145"/>
      <point x="-5" y="-141"/>
      <point x="-33" y="-120" type="curve"/>
      <point x="-50" y="-128"/>
      <point x="-81" y="-177"/>
      <point x="-81" y="-191" type="curve" smooth="yes"/>
      <point x="-81" y="-202"/>
      <point x="-46" y="-219"/>
      <point x="-8" y="-219" type="curve" smooth="yes"/>
      <point x="93" y="-219"/>
      <point x="167" y="-116"/>
      <point x="246" y="36" type="curve" smooth="yes"/>
      <point x="354" y="242"/>
      <point x="402" y="338"/>
    </contour>
  </outline>
</glyph>
<glyph name="z" format="2">
  <advance width="355"/>
  <unicode hex="007A"/>
  <anchor x="143" y="0" name="H"/>
  <anchor x="218" y="429" name="U"/>
  <outline>
    <contour>
      <point x="360" y="374" type="line"/>
      <point x="300" y="405" type="line"/>
      <point x="282" y="360" type="line"/>
      <point x="272" y="355"/>
      <point x="267" y="355"/>
      <point x="264" y="355" type="curve" smooth="yes"/>
      <point x="232" y="355"/>
      <point x="192" y="395"/>
      <point x="144" y="395" type="curve" smooth="yes"/>
      <point x="73" y="395"/>
      <point x="31" y="329"/>
      <point x="31" y="280" type="curve" smooth="yes"/>
      <point x="31" y="260"/>
      <point x="44" y="233"/>
      <point x="75" y="233" type="curve" smooth="yes"/>
      <point x="97" y="233"/>
      <point x="115" y="253"/>
      <point x="119" y="260" type="curve"/>
      <point x="76" y="311" type="line"/>
      <point x="85" y="325"/>
      <point x="106" y="334"/>
      <point x="119" y="334" type="curve" smooth="yes"/>
      <point x="141" y="334"/>
      <point x="166" y="323"/>
      <point x="187" y="311" type="curve"/>
      <point x="258" y="326" type="line"/>
      <point x="-12" y="8" type="line"/>
      <point x="42" y="-20" type="line"/>
      <point x="62" y="16" type="line"/>
      <point x="69" y="23"/>
      <point x="79" y="24"/>
      <point x="83" y="24" type="curve" smooth="yes"/>
      <point x="122" y="24"/>
      <point x="160" y="-9"/>
      <point x="209" y="-9" type="curve" smooth="yes"/>
      <point x="261" y="-9"/>
      <point x="325" y="38"/>
      <point x="325" y="103" type="curve" smooth="yes"/>
      <point x="325" y="126"/>
      <point x="308" y="152"/>
      <point x="280" y="152" type="curve" smooth="yes"/>
      <point x="265" y="152"/>
      <point x="245" y="141"/>
      <point x="235" y="122" type="curve"/>
      <point x="279" y="73" type="line"/>
      <point x="270" y="62"/>
      <point x="259" y="47"/>
      <point x="236" y="47" type="curve" smooth="yes"/>
      <point x="215" y="47"/>
      <point x="177" y="66"/>
      <point x="155" y="74" type="curve"/>
      <point x="88" y="56" type="line"/>
    </contour>
  </outline>
</glyph>
<glyph name="braceleft" format="2">
  <advance width="388"/>
  <unicode hex="007B"/>
  <outline>
    <contour>
      <point x="408" y="562" type="line"/>
      <point x="344" y="562"/>
      <point x="297" y="555"/>
      <point x="264" y="533" type="curve" smooth="yes"/>
      <point x="177" y="475"/>
      <point x="213" y="331"/>
      <point x="154" y="274" type="curve" smooth="yes"/>
      <point x="131" y="251"/>
      <point x="97" y="250"/>
      <point x="53" y="250" type="curve"/>
      <point x="46" y="213" type="line"/>
      <point x="77" y="213"/>
      <point x="112" y="216"/>
      <point x="131" y="198" type="curve" smooth="yes"/>
      <point x="186" y="149"/>
      <point x="84" y="0"/>
      <point x="144" y="-65" type="curve" smooth="yes"/>
      <point x="171" y="-94"/>
      <point x="222" y="-98"/>
      <point x="280" y="-98" type="curve"/>
      <point x="287" y="-64" type="line"/>
      <point x="261" y="-64"/>
      <point x="233" y="-63"/>
      <point x="216" y="-48" type="curve" smooth="yes"/>
      <point x="163" y="-3"/>
      <point x="264" y="141"/>
      <point x="198" y="203" type="curve" smooth="yes"/>
      <point x="185" y="216"/>
      <point x="167" y="224"/>
      <point x="144" y="232" type="curve"/>
      <point x="184" y="243"/>
      <point x="210" y="258"/>
      <point x="228" y="275" type="curve" smooth="yes"/>
      <point x="288" y="335"/>
      <point x="260" y="448"/>
      <point x="315" y="500" type="curve" smooth="yes"/>
      <point x="332" y="517"/>
      <point x="360" y="528"/>
      <point x="403" y="528" type="curve"/>
    </contour>
  </outline>
</glyph>
<glyph name="bar" format="2">
  <advance width="230"/>
  <unicode hex="007C"/>
  <outline>
    <contour>
      <point x="217" y="693" type="line"/>
      <point x="204" y="703" type="line"/>
      <point x="187" y="698"/>
      <point x="170" y="691"/>
      <point x="154" y="681" type="curve"/>
      <point x="30" y="-208" type="line"/>
      <point x="43" y="-219" type="line"/>
      <point x="57" y="-215"/>
      <point x="82" y="-205"/>
      <point x="93" y="-197" type="curve"/>
    </contour>
  </outline>
</glyph>
<glyph name="braceright" format="2">
  <advance width="388"/>
  <unicode hex="007D"/>
  <outline>
    <contour>
      <point x="350" y="250" type="line"/>
      <point x="319" y="250"/>
      <point x="284" y="248"/>
      <point x="265" y="265" type="curve" smooth="yes"/>
      <point x="210" y="314"/>
      <point x="312" y="464"/>
      <point x="251" y="529" type="curve" smooth="yes"/>
      <point x="224" y="558"/>
      <point x="174" y="562"/>
      <point x="116" y="562" type="curve"/>
      <point x="109" y="528" type="line"/>
      <point x="135" y="528"/>
      <point x="163" y="527"/>
      <point x="180" y="512" type="curve" smooth="yes"/>
      <point x="233" y="467"/>
      <point x="132" y="322"/>
      <point x="199" y="260" type="curve" smooth="yes"/>
      <point x="211" y="248"/>
      <point x="228" y="239"/>
      <point x="252" y="232" type="curve"/>
      <point x="212" y="220"/>
      <point x="186" y="206"/>
      <point x="168" y="188" type="curve" smooth="yes"/>
      <point x="107" y="128"/>
      <point x="136" y="15"/>
      <point x="82" y="-36" type="curve" smooth="yes"/>
      <point x="64" y="-53"/>
      <point x="36" y="-64"/>
      <point x="-6" y="-64" type="curve"/>
      <point x="-12" y="-98" type="line"/>
      <point x="52" y="-98"/>
      <point x="99" y="-92"/>
      <point x="132" y="-69" type="curve" smooth="yes"/>
      <point x="219" y="-11"/>
      <point x="183" y="132"/>
      <point x="242" y="189" type="curve" smooth="yes"/>
      <point x="265" y="212"/>
      <point x="299" y="213"/>
      <point x="343" y="213" type="curve"/>
    </contour>
  </outline>
</glyph>
<glyph name="asciitilde" format="2">
  <advance width="431"/>
  <unicode hex="007E"/>
  <outline>
    <contour>
      <point x="423" y="340" type="curve"/>
      <point x="403" y="351" type="line"/>
      <point x="374" y="303"/>
      <point x="348" y="280"/>
      <point x="322" y="280" type="curve" smooth="yes"/>
      <point x="278" y="280"/>
      <point x="231" y="351"/>
      <point x="180" y="351" type="curve" smooth="yes"/>
      <point x="129" y="351"/>
      <point x="69" y="278"/>
      <point x="39" y="220" type="curve"/>
      <point x="59" y="208" type="line"/>
      <point x="87" y="257"/>
      <point x="113" y="279"/>
      <point x="140" y="279" type="curve" smooth="yes"/>
      <point x="187" y="279"/>
      <point x="235" y="209"/>
      <point x="282" y="209" type="curve" smooth="yes"/>
      <point x="333" y="209"/>
      <point x="392" y="282"/>
    </contour>
  </outline>
</glyph>
<glyph name="exclamdown" format="2">
  <advance width="270"/>
  <unicode hex="00A1"/>
  <outline>
    <contour>
      <point x="214" y="350" type="curve" smooth="yes"/>
      <point x="214" y="380"/>
      <point x="186" y="395"/>
      <point x="162" y="395" type="curve" smooth="yes"/>
      <point x="132" y="395"/>
      <point x="110" y="374"/>
      <point x="110" y="347" type="curve" smooth="yes"/>
      <point x="110" y="321"/>
      <point x="134" y="300"/>
      <point x="162" y="300" type="curve" smooth="yes"/>
      <point x="192" y="300"/>
      <point x="214" y="322"/>
    </contour>
    <contour>
      <point x="175" y="252" type="line"/>
      <point x="123" y="252" type="line"/>
      <point x="123" y="252"/>
      <point x="28" y="-100"/>
      <point x="28" y="-118" type="curve" smooth="yes"/>
      <point x="28" y="-142"/>
      <point x="40" y="-158"/>
      <point x="71" y="-158" type="curve" smooth="yes"/>
      <point x="103" y="-158"/>
      <point x="127" y="-140"/>
      <point x="133" y="-96" type="curve" smooth="yes"/>
    </contour>
  </outline>
</glyph>
<glyph name="cent" format="2">
  <advance width="361"/>
  <unicode hex="00A2"/>
  <outline>
    <contour>
      <point x="379" y="411" type="curve"/>
      <point x="361" y="417"/>
      <point x="333" y="463"/>
      <point x="281" y="463" type="curve" smooth="yes"/>
      <point x="245" y="463"/>
      <point x="195" y="448"/>
      <point x="163" y="427" type="curve" smooth="yes"/>
      <point x="76" y="370"/>
      <point x="45" y="286"/>
      <point x="45" y="206" type="curve" smooth="yes"/>
      <point x="45" y="83"/>
      <point x="121" y="48"/>
      <point x="161" y="48" type="curve" smooth="yes"/>
      <point x="204" y="48"/>
      <point x="245" y="61"/>
      <point x="337" y="145" type="curve"/>
      <point x="334" y="150"/>
      <point x="328" y="156"/>
      <point x="323" y="163" type="curve"/>
      <point x="261" y="111"/>
      <point x="226" y="98"/>
      <point x="205" y="98" type="curve" smooth="yes"/>
      <point x="154" y="98"/>
      <point x="109" y="147"/>
      <point x="109" y="224" type="curve" smooth="yes"/>
      <point x="109" y="304"/>
      <point x="156" y="418"/>
      <point x="236" y="418" type="curve" smooth="yes"/>
      <point x="291" y="418"/>
      <point x="304" y="365"/>
      <point x="316" y="365" type="curve" smooth="yes"/>
      <point x="331" y="365"/>
      <point x="354" y="393"/>
    </contour>
    <contour>
      <point x="266" y="524" type="line"/>
      <point x="257" y="534" type="line"/>
      <point x="241" y="529"/>
      <point x="246" y="531"/>
      <point x="231" y="521" type="curve"/>
      <point x="158" y="-11" type="line"/>
      <point x="166" y="-21" type="line"/>
      <point x="180" y="-17"/>
      <point x="182" y="-17"/>
      <point x="193" y="-7" type="curve"/>
    </contour>
  </outline>
</glyph>
<glyph name="sterling" format="2">
  <advance width="377"/>
  <unicode hex="00A3"/>
  <outline>
    <contour>
      <point x="380" y="511" type="curve"/>
      <point x="334" y="539"/>
      <point x="306" y="542"/>
      <point x="278" y="542" type="curve" smooth="yes"/>
      <point x="152" y="542"/>
      <point x="77" y="429"/>
      <point x="65" y="254" type="curve" smooth="yes"/>
      <point x="52" y="75"/>
      <point x="36" y="57"/>
      <point x="-21" y="11" type="curve"/>
      <point x="-13" y="-13" type="line"/>
      <point x="72" y="41"/>
      <point x="229" y="-43"/>
      <point x="306" y="0" type="curve"/>
      <point x="312" y="17"/>
      <point x="329" y="68"/>
      <point x="340" y="119" type="curve"/>
      <point x="320" y="128" type="line"/>
      <point x="288" y="59"/>
      <point x="268" y="51"/>
      <point x="219" y="49" type="curve" smooth="yes"/>
      <point x="160" y="48"/>
      <point x="149" y="56"/>
      <point x="75" y="49" type="curve"/>
      <point x="113" y="98"/>
      <point x="144" y="172"/>
      <point x="147" y="261" type="curve" smooth="yes"/>
      <point x="155" y="478"/>
      <point x="209" y="495"/>
      <point x="248" y="495" type="curve" smooth="yes"/>
      <point x="300" y="495"/>
      <point x="326" y="460"/>
      <point x="324" y="387" type="curve"/>
      <point x="347" y="387" type="line"/>
      <point x="356" y="410"/>
      <point x="374" y="482"/>
    </contour>
    <contour>
      <point x="262" y="266" type="line"/>
      <point x="252" y="277" type="line"/>
      <point x="25" y="277" type="line"/>
      <point x="20" y="268"/>
      <point x="13" y="254"/>
      <point x="10" y="245" type="curve"/>
      <point x="17" y="233" type="line"/>
      <point x="245" y="233" type="line"/>
    </contour>
  </outline>
</glyph>
<glyph name="currency" format="2">
  <advance width="361"/>
  <unicode hex="00A4"/>
  <outline>
    <contour>
      <point x="199" y="338" type="curve" smooth="yes"/>
      <point x="238" y="338"/>
      <point x="261" y="301"/>
      <point x="255" y="264" type="curve" smooth="yes"/>
      <point x="250" y="224"/>
      <point x="220" y="190"/>
      <point x="179" y="190" type="curve" smooth="yes"/>
      <point x="140" y="190"/>
      <point x="118" y="227"/>
      <point x="122" y="264" type="curve" smooth="yes"/>
      <point x="127" y="305"/>
      <point x="159" y="338"/>
    </contour>
    <contour>
      <point x="84" y="263" type="curve"/>
      <point x="76" y="205"/>
      <point x="112" y="148"/>
      <point x="173" y="148" type="curve" smooth="yes"/>
      <point x="234" y="148"/>
      <point x="284" y="200"/>
      <point x="293" y="263" type="curve" smooth="yes"/>
      <point x="300" y="320"/>
      <point x="266" y="380"/>
      <point x="205" y="380" type="curve" smooth="yes"/>
      <point x="164" y="380"/>
      <point x="94" y="346"/>
    </contour>
    <contour>
      <point x="126" y="216" type="line"/>
      <point x="112" y="215" type="line"/>
      <point x="46" y="151" type="line"/>
      <point x="48" y="142"/>
      <point x="51" y="132"/>
      <point x="54" y="124" type="curve"/>
      <point x="67" y="123" type="line"/>
      <point x="134" y="187" type="line"/>
    </contour>
    <contour>
      <point x="152" y="329" type="line"/>
      <point x="153" y="344" type="line"/>
      <point x="106" y="406" type="line"/>
      <point x="97" y="402"/>
      <point x="84" y="399"/>
      <point x="76" y="395" type="curve"/>
      <point x="73" y="381" type="line"/>
      <point x="124" y="315" type="line"/>
    </contour>
    <contour>
      <point x="302" y="132" type="line"/>
      <point x="303" y="147" type="line"/>
      <point x="253" y="213" type="line"/>
      <point x="244" y="209"/>
      <point x="234" y="204"/>
      <point x="226" y="199" type="curve"/>
      <point x="223" y="185" type="line"/>
      <point x="270" y="123" type="line"/>
    </contour>
    <contour>
      <point x="322" y="405" type="line"/>
      <point x="309" y="404" type="line"/>
      <point x="242" y="340" type="line"/>
      <point x="244" y="331"/>
      <point x="247" y="320"/>
      <point x="250" y="312" type="curve"/>
      <point x="264" y="312" type="line"/>
      <point x="330" y="376" type="line"/>
    </contour>
  </outline>
</glyph>
<glyph name="yen" format="2">
  <advance width="444"/>
  <unicode hex="00A5"/>
  <outline>
    <contour>
      <point x="511" y="496" type="line"/>
      <point x="511" y="531" type="line"/>
      <point x="351" y="531" type="line"/>
      <point x="351" y="496" type="line"/>
      <point x="386" y="488" type="line" smooth="yes"/>
      <point x="399" y="486"/>
      <point x="395" y="479"/>
      <point x="391" y="473" type="curve" smooth="yes"/>
      <point x="243" y="281" type="line"/>
      <point x="180" y="477" type="line" smooth="yes"/>
      <point x="178" y="484"/>
      <point x="181" y="491"/>
      <point x="188" y="492" type="curve" smooth="yes"/>
      <point x="235" y="496" type="line"/>
      <point x="235" y="531" type="line"/>
      <point x="49" y="531" type="line"/>
      <point x="49" y="497" type="line"/>
      <point x="92" y="487" type="line"/>
      <point x="140" y="337" type="line"/>
      <point x="45" y="337" type="line"/>
      <point x="45" y="301" type="line"/>
      <point x="155" y="301" type="line"/>
      <point x="181" y="223" type="line"/>
      <point x="22" y="223" type="line"/>
      <point x="22" y="187" type="line"/>
      <point x="175" y="187" type="line"/>
      <point x="150" y="53" type="line"/>
      <point x="148" y="41"/>
      <point x="132" y="38"/>
      <point x="120" y="36" type="curve" smooth="yes"/>
      <point x="107" y="35"/>
      <point x="89" y="35"/>
      <point x="74" y="35" type="curve"/>
      <point x="74" y="0" type="line"/>
      <point x="291" y="0" type="line"/>
      <point x="291" y="35" type="line"/>
      <point x="237" y="39" type="line"/>
      <point x="225" y="40"/>
      <point x="226" y="48"/>
      <point x="227" y="53" type="curve" smooth="yes"/>
      <point x="251" y="187" type="line"/>
      <point x="417" y="187" type="line"/>
      <point x="417" y="223" type="line"/>
      <point x="258" y="223" type="line"/>
      <point x="316" y="301" type="line"/>
      <point x="440" y="301" type="line"/>
      <point x="440" y="337" type="line"/>
      <point x="348" y="337" type="line"/>
      <point x="462" y="486" type="line"/>
    </contour>
  </outline>
</glyph>
<glyph name="brokenbar" format="2">
  <advance width="230"/>
  <unicode hex="00A6"/>
  <outline>
    <contour>
      <point x="215" y="692" type="line"/>
      <point x="201" y="703" type="line"/>
      <point x="184" y="698"/>
      <point x="165" y="690"/>
      <point x="147" y="680" type="curve"/>
      <point x="95" y="308" type="line"/>
      <point x="110" y="298" type="line"/>
      <point x="124" y="302"/>
      <point x="152" y="312"/>
      <point x="164" y="321" type="curve"/>
    </contour>
    <contour>
      <point x="145" y="188" type="line"/>
      <point x="129" y="200" type="line"/>
      <point x="112" y="194"/>
      <point x="93" y="186"/>
      <point x="78" y="176" type="curve"/>
      <point x="26" y="-189" type="line"/>
      <point x="40" y="-201" type="line"/>
      <point x="53" y="-197"/>
      <point x="82" y="-186"/>
      <point x="93" y="-178" type="curve"/>
    </contour>
  </outline>
</glyph>
<glyph name="section" format="2">
  <advance width="400"/>
  <unicode hex="00A7"/>
  <outline>
    <contour>
      <point x="398" y="554" type="line"/>
      <point x="367" y="567"/>
      <point x="323" y="574"/>
      <point x="289" y="574" type="curve" smooth="yes"/>
      <point x="196" y="574"/>
      <point x="104" y="533"/>
      <point x="104" y="438" type="curve" smooth="yes"/>
      <point x="104" y="401"/>
      <point x="128" y="376"/>
      <point x="165" y="353" type="curve"/>
      <point x="96" y="323"/>
      <point x="46" y="276"/>
      <point x="46" y="204" type="curve" smooth="yes"/>
      <point x="46" y="166"/>
      <point x="64" y="140"/>
      <point x="88" y="119" type="curve" smooth="yes"/>
      <point x="128" y="87"/>
      <point x="232" y="55"/>
      <point x="232" y="1" type="curve" smooth="yes"/>
      <point x="232" y="-47"/>
      <point x="176" y="-72"/>
      <point x="141" y="-72" type="curve" smooth="yes"/>
      <point x="122" y="-72"/>
      <point x="98" y="-67"/>
      <point x="76" y="-52" type="curve"/>
      <point x="79" y="18" type="line"/>
      <point x="28" y="18" type="line"/>
      <point x="9" y="-85" type="line"/>
      <point x="44" y="-103"/>
      <point x="84" y="-112"/>
      <point x="127" y="-112" type="curve" smooth="yes"/>
      <point x="217" y="-112"/>
      <point x="307" y="-58"/>
      <point x="307" y="30" type="curve" smooth="yes"/>
      <point x="307" y="67"/>
      <point x="280" y="94"/>
      <point x="242" y="116" type="curve"/>
      <point x="307" y="143"/>
      <point x="366" y="200"/>
      <point x="366" y="265" type="curve" smooth="yes"/>
      <point x="366" y="302"/>
      <point x="348" y="328"/>
      <point x="323" y="349" type="curve" smooth="yes"/>
      <point x="267" y="396"/>
      <point x="180" y="411"/>
      <point x="180" y="464" type="curve" smooth="yes"/>
      <point x="180" y="512"/>
      <point x="235" y="535"/>
      <point x="267" y="535" type="curve" smooth="yes"/>
      <point x="288" y="535"/>
      <point x="311" y="529"/>
      <point x="333" y="515" type="curve"/>
      <point x="330" y="449" type="line"/>
      <point x="378" y="449" type="line"/>
    </contour>
    <contour>
      <point x="289" y="244" type="curve" smooth="yes"/>
      <point x="289" y="200"/>
      <point x="255" y="160"/>
      <point x="208" y="134" type="curve"/>
      <point x="138" y="171"/>
      <point x="122" y="192"/>
      <point x="122" y="231" type="curve" smooth="yes"/>
      <point x="122" y="264"/>
      <point x="144" y="312"/>
      <point x="203" y="335" type="curve"/>
      <point x="269" y="305"/>
      <point x="289" y="278"/>
    </contour>
  </outline>
</glyph>
<glyph name="dieresis" format="2">
  <advance width="457"/>
  <unicode hex="00A8"/>
  <outline>
    <contour>
      <point x="395" y="555" type="curve"/>
      <point x="395" y="576"/>
      <point x="382" y="591"/>
      <point x="361" y="591" type="curve" smooth="yes"/>
      <point x="324" y="591"/>
      <point x="301" y="550"/>
      <point x="301" y="517" type="curve" smooth="yes"/>
      <point x="301" y="497"/>
      <point x="313" y="482"/>
      <point x="334" y="482" type="curve" smooth="yes"/>
      <point x="371" y="482"/>
      <point x="395" y="522"/>
    </contour>
    <contour>
      <point x="229" y="555" type="curve"/>
      <point x="229" y="576"/>
      <point x="217" y="591"/>
      <point x="195" y="591" type="curve" smooth="yes"/>
      <point x="159" y="591"/>
      <point x="135" y="550"/>
      <point x="135" y="517" type="curve" smooth="yes"/>
      <point x="135" y="497"/>
      <point x="147" y="482"/>
      <point x="169" y="482" type="curve" smooth="yes"/>
      <point x="205" y="482"/>
      <point x="229" y="522"/>
    </contour>
  </outline>
</glyph>
<glyph name="copyright" format="2">
  <advance width="669"/>
  <unicode hex="00A9"/>
  <outline>
    <contour>
      <point x="658" y="280" type="curve" smooth="yes"/>
      <point x="658" y="448"/>
      <point x="523" y="589"/>
      <point x="351" y="589" type="curve" smooth="yes"/>
      <point x="180" y="589"/>
      <point x="43" y="450"/>
      <point x="43" y="280" type="curve" smooth="yes"/>
      <point x="43" y="110"/>
      <point x="181" y="-28"/>
      <point x="350" y="-28" type="curve" smooth="yes"/>
      <point x="520" y="-28"/>
      <point x="658" y="110"/>
    </contour>
    <contour>
      <point x="623" y="280" type="curve" smooth="yes"/>
      <point x="623" y="128"/>
      <point x="500" y="4"/>
      <point x="350" y="4" type="curve" smooth="yes"/>
      <point x="200" y="4"/>
      <point x="77" y="128"/>
      <point x="77" y="280" type="curve" smooth="yes"/>
      <point x="77" y="432"/>
      <point x="200" y="555"/>
      <point x="351" y="555" type="curve" smooth="yes"/>
      <point x="502" y="555"/>
      <point x="623" y="431"/>
    </contour>
    <contour>
      <point x="476" y="110" type="curve"/>
      <point x="476" y="211" type="line"/>
      <point x="441" y="211" type="line"/>
      <point x="430" y="143" type="line"/>
      <point x="416" y="136"/>
      <point x="390" y="128"/>
      <point x="364" y="128" type="curve" smooth="yes"/>
      <point x="301" y="128"/>
      <point x="240" y="183"/>
      <point x="240" y="281" type="curve" smooth="yes"/>
      <point x="240" y="376"/>
      <point x="303" y="430"/>
      <point x="371" y="430" type="curve" smooth="yes"/>
      <point x="394" y="430"/>
      <point x="416" y="421"/>
      <point x="428" y="413" type="curve"/>
      <point x="440" y="352" type="line"/>
      <point x="476" y="352" type="line"/>
      <point x="476" y="448" type="line"/>
      <point x="441" y="458"/>
      <point x="405" y="467"/>
      <point x="364" y="467" type="curve" smooth="yes"/>
      <point x="244" y="467"/>
      <point x="167" y="390"/>
      <point x="167" y="280" type="curve" smooth="yes"/>
      <point x="167" y="179"/>
      <point x="237" y="91"/>
      <point x="363" y="91" type="curve" smooth="yes"/>
      <point x="422" y="91"/>
      <point x="474" y="109"/>
    </contour>
  </outline>
</glyph>
<glyph name="ordfeminine" format="2">
  <advance width="270"/>
  <unicode hex="00AA"/>
  <outline>
    <contour>
      <point x="315" y="319" type="curve"/>
      <point x="315" y="335" type="line"/>
      <point x="309" y="335"/>
      <point x="287" y="328"/>
      <point x="280" y="328" type="curve" smooth="yes"/>
      <point x="266" y="328"/>
      <point x="257" y="334"/>
      <point x="257" y="350" type="curve" smooth="yes"/>
      <point x="257" y="371"/>
      <point x="284" y="484"/>
      <point x="291" y="510" type="curve" smooth="yes"/>
      <point x="292" y="515"/>
      <point x="298" y="530"/>
      <point x="301" y="537" type="curve"/>
      <point x="266" y="537" type="line"/>
      <point x="258" y="526" type="line"/>
      <point x="248" y="534"/>
      <point x="231" y="543"/>
      <point x="212" y="543" type="curve" smooth="yes"/>
      <point x="114" y="543"/>
      <point x="61" y="460"/>
      <point x="61" y="386" type="curve" smooth="yes"/>
      <point x="61" y="351"/>
      <point x="76" y="300"/>
      <point x="136" y="300" type="curve" smooth="yes"/>
      <point x="167" y="300"/>
      <point x="195" y="319"/>
      <point x="211" y="333" type="curve"/>
      <point x="212" y="312"/>
      <point x="221" y="300"/>
      <point x="247" y="300" type="curve" smooth="yes"/>
      <point x="267" y="300"/>
      <point x="306" y="316"/>
    </contour>
    <contour>
      <point x="279" y="273" type="line"/>
      <point x="39" y="273" type="line"/>
      <point x="33" y="244" type="line"/>
      <point x="273" y="244" type="line"/>
    </contour>
    <contour>
      <point x="238" y="494" type="curve"/>
      <point x="211" y="362" type="line"/>
      <point x="203" y="355"/>
      <point x="178" y="332"/>
      <point x="153" y="332" type="curve" smooth="yes"/>
      <point x="120" y="332"/>
      <point x="113" y="362"/>
      <point x="113" y="389" type="curve" smooth="yes"/>
      <point x="113" y="442"/>
      <point x="139" y="519"/>
      <point x="219" y="519" type="curve" smooth="yes"/>
      <point x="225" y="519"/>
      <point x="239" y="497"/>
    </contour>
  </outline>
</glyph>
<glyph name="guillemetleft" format="2">
  <advance width="387"/>
  <unicode hex="00AB"/>
  <outline>
    <contour>
      <point x="286" y="3" type="line"/>
      <point x="304" y="15" type="line"/>
      <point x="239" y="197" type="line"/>
      <point x="238" y="196"/>
      <point x="353" y="377"/>
      <point x="353" y="377" type="curve"/>
      <point x="338" y="390" type="line"/>
      <point x="174" y="213" type="line"/>
      <point x="173" y="211"/>
      <point x="169" y="181"/>
      <point x="169" y="181" type="curve"/>
    </contour>
    <contour>
      <point x="141" y="3" type="line"/>
      <point x="160" y="15" type="line"/>
      <point x="95" y="197" type="line"/>
      <point x="94" y="196"/>
      <point x="209" y="377"/>
      <point x="209" y="377" type="curve"/>
      <point x="194" y="390" type="line"/>
      <point x="30" y="213" type="line"/>
      <point x="29" y="211"/>
      <point x="25" y="181"/>
      <point x="25" y="181" type="curve"/>
    </contour>
  </outline>
</glyph>
<glyph name="guillemotleft" format="2">
  <advance width="400"/>
  <unicode hex="00AB"/>
  <outline>
    <contour>
      <point x="298" y="1" type="line"/>
      <point x="319" y="17" type="line"/>
      <point x="257" y="199" type="line"/>
      <point x="264" y="214"/>
      <point x="360" y="365"/>
      <point x="368" y="380" type="curve"/>
      <point x="351" y="395" type="line"/>
      <point x="180" y="215" type="line"/>
      <point x="179" y="211"/>
      <point x="175" y="186"/>
      <point x="175" y="183" type="curve"/>
    </contour>
    <contour>
      <point x="147" y="1" type="line"/>
      <point x="168" y="17" type="line"/>
      <point x="106" y="199" type="line"/>
      <point x="113" y="214"/>
      <point x="209" y="365"/>
      <point x="217" y="380" type="curve"/>
      <point x="200" y="395" type="line"/>
      <point x="29" y="215" type="line"/>
      <point x="28" y="211"/>
      <point x="24" y="186"/>
      <point x="24" y="183" type="curve"/>
    </contour>
  </outline>
</glyph>
<glyph name="logicalnot" format="2">
  <advance width="377"/>
  <unicode hex="00AC"/>
  <outline>
    <contour>
      <point x="347" y="263" type="line"/>
      <point x="336" y="273" type="line"/>
      <point x="336" y="273"/>
      <point x="359" y="273"/>
      <point x="41" y="273" type="curve"/>
      <point x="35" y="262"/>
      <point x="25" y="243"/>
      <point x="20" y="231" type="curve"/>
      <point x="30" y="220" type="line"/>
      <point x="289" y="220" type="line"/>
      <point x="274" y="119" type="line"/>
      <point x="284" y="107" type="line"/>
      <point x="298" y="112"/>
      <point x="317" y="123"/>
      <point x="329" y="132" type="curve"/>
    </contour>
  </outline>
</glyph>
<glyph name="registered" format="2">
  <advance width="309"/>
  <unicode hex="00AE"/>
  <outline>
    <contour>
      <point x="326" y="476" type="curve"/>
      <point x="338" y="562"/>
      <point x="291" y="630"/>
      <point x="214" y="630" type="curve" smooth="yes"/>
      <point x="136" y="630"/>
      <point x="71" y="562"/>
      <point x="59" y="476" type="curve" smooth="yes"/>
      <point x="47" y="390"/>
      <point x="93" y="322"/>
      <point x="171" y="322" type="curve" smooth="yes"/>
      <point x="249" y="322"/>
      <point x="314" y="390"/>
    </contour>
    <contour>
      <point x="300" y="476" type="curve"/>
      <point x="290" y="406"/>
      <point x="241" y="348"/>
      <point x="176" y="348" type="curve" smooth="yes"/>
      <point x="111" y="348"/>
      <point x="75" y="406"/>
      <point x="85" y="476" type="curve" smooth="yes"/>
      <point x="94" y="545"/>
      <point x="143" y="604"/>
      <point x="208" y="604" type="curve" smooth="yes"/>
      <point x="273" y="604"/>
      <point x="309" y="545"/>
    </contour>
    <contour>
      <point x="254" y="521" type="curve"/>
      <point x="257" y="544"/>
      <point x="239" y="567"/>
      <point x="198" y="567" type="curve" smooth="yes"/>
      <point x="176" y="567"/>
      <point x="158" y="563"/>
      <point x="143" y="559" type="curve"/>
      <point x="142" y="546" type="line"/>
      <point x="158" y="548"/>
      <point x="177" y="551"/>
      <point x="191" y="551" type="curve" smooth="yes"/>
      <point x="220" y="551"/>
      <point x="229" y="534"/>
      <point x="226" y="517" type="curve" smooth="yes"/>
      <point x="223" y="494"/>
      <point x="209" y="487"/>
      <point x="184" y="487" type="curve" smooth="yes"/>
      <point x="179" y="487"/>
      <point x="176" y="487"/>
      <point x="170" y="488" type="curve"/>
      <point x="169" y="471" type="line"/>
      <point x="174" y="470"/>
      <point x="179" y="469"/>
      <point x="183" y="469" type="curve" smooth="yes"/>
      <point x="218" y="469"/>
      <point x="249" y="486"/>
    </contour>
    <contour>
      <point x="261" y="401" type="line"/>
      <point x="259" y="408" type="line"/>
      <point x="248" y="404"/>
      <point x="243" y="405"/>
      <point x="239" y="411" type="curve" smooth="yes"/>
      <point x="202" y="482" type="line"/>
      <point x="183" y="474" type="line"/>
      <point x="215" y="394" type="line" smooth="yes"/>
      <point x="217" y="391"/>
      <point x="221" y="386"/>
      <point x="226" y="386" type="curve" smooth="yes"/>
      <point x="232" y="386"/>
      <point x="250" y="394"/>
      <point x="259" y="400" type="curve"/>
    </contour>
    <contour>
      <point x="178" y="389" type="line"/>
      <point x="179" y="398" type="line"/>
      <point x="167" y="400"/>
      <point x="163" y="404"/>
      <point x="163" y="406" type="curve" smooth="yes"/>
      <point x="184" y="558" type="line"/>
      <point x="160" y="558" type="line"/>
      <point x="139" y="406" type="line" smooth="yes"/>
      <point x="138" y="403"/>
      <point x="132" y="400"/>
      <point x="121" y="398" type="curve"/>
      <point x="120" y="389" type="line"/>
    </contour>
  </outline>
</glyph>
<glyph name="degree" format="2">
  <advance width="275"/>
  <unicode hex="00B0"/>
  <outline>
    <contour>
      <point x="269" y="471" type="curve" smooth="yes"/>
      <point x="269" y="511"/>
      <point x="242" y="542"/>
      <point x="204" y="542" type="curve" smooth="yes"/>
      <point x="153" y="542"/>
      <point x="78" y="480"/>
      <point x="78" y="403" type="curve" smooth="yes"/>
      <point x="78" y="364"/>
      <point x="104" y="333"/>
      <point x="143" y="333" type="curve" smooth="yes"/>
      <point x="187" y="333"/>
      <point x="269" y="388"/>
    </contour>
    <contour>
      <point x="159" y="373" type="curve" smooth="yes"/>
      <point x="136" y="373"/>
      <point x="124" y="397"/>
      <point x="124" y="424" type="curve" smooth="yes"/>
      <point x="124" y="466"/>
      <point x="157" y="501"/>
      <point x="188" y="501" type="curve" smooth="yes"/>
      <point x="210" y="501"/>
      <point x="223" y="479"/>
      <point x="223" y="451" type="curve" smooth="yes"/>
      <point x="223" y="418"/>
      <point x="199" y="373"/>
    </contour>
  </outline>
</glyph>
<glyph name="plusminus" format="2">
  <advance width="338"/>
  <unicode hex="00B1"/>
  <outline>
    <contour>
      <point x="227" y="427" type="line"/>
      <point x="217" y="437" type="line"/>
      <point x="206" y="434"/>
      <point x="184" y="428"/>
      <point x="174" y="424" type="curve"/>
      <point x="137" y="159" type="line"/>
      <point x="147" y="149" type="line"/>
      <point x="159" y="152"/>
      <point x="179" y="157"/>
      <point x="190" y="163" type="curve"/>
    </contour>
    <contour>
      <point x="295" y="112" type="curve"/>
      <point x="287" y="123" type="line"/>
      <point x="29" y="123" type="line"/>
      <point x="23" y="111"/>
      <point x="16" y="94"/>
      <point x="11" y="83" type="curve"/>
      <point x="20" y="72" type="line"/>
      <point x="278" y="72" type="line"/>
      <point x="283" y="82"/>
      <point x="291" y="100"/>
    </contour>
    <contour>
      <point x="322" y="308" type="curve"/>
      <point x="314" y="318" type="line"/>
      <point x="57" y="318" type="line"/>
      <point x="50" y="307"/>
      <point x="43" y="290"/>
      <point x="39" y="278" type="curve"/>
      <point x="47" y="268" type="line"/>
      <point x="305" y="268" type="line"/>
      <point x="310" y="277"/>
      <point x="319" y="296"/>
    </contour>
  </outline>
</glyph>
<glyph name="twosuperior" format="2">
  <advance width="265"/>
  <unicode hex="00B2"/>
  <outline>
    <contour>
      <point x="278" y="535" type="curve"/>
      <point x="278" y="573"/>
      <point x="245" y="594"/>
      <point x="195" y="594" type="curve" smooth="yes"/>
      <point x="129" y="593"/>
      <point x="69" y="546"/>
      <point x="63" y="510" type="curve"/>
      <point x="70" y="499" type="line"/>
      <point x="87" y="500"/>
      <point x="112" y="506"/>
      <point x="126" y="513" type="curve"/>
      <point x="128" y="538"/>
      <point x="144" y="563"/>
      <point x="173" y="563" type="curve" smooth="yes"/>
      <point x="202" y="563"/>
      <point x="215" y="549"/>
      <point x="215" y="526" type="curve" smooth="yes"/>
      <point x="215" y="480"/>
      <point x="173" y="422"/>
      <point x="23" y="291" type="curve"/>
      <point x="28" y="268" type="line"/>
      <point x="237" y="268" type="line"/>
      <point x="254" y="351" type="line"/>
      <point x="234" y="354" type="line"/>
      <point x="234" y="354"/>
      <point x="223" y="308"/>
      <point x="198" y="308" type="curve" smooth="yes"/>
      <point x="90" y="308" type="line"/>
      <point x="238" y="439"/>
      <point x="278" y="489"/>
    </contour>
  </outline>
</glyph>
<glyph name="SupThree" format="2">
  <advance width="265"/>
  <unicode hex="00B3"/>
  <outline>
    <contour>
      <point x="262" y="532" type="curve"/>
      <point x="262" y="562"/>
      <point x="240" y="594"/>
      <point x="181" y="594" type="curve" smooth="yes"/>
      <point x="120" y="594"/>
      <point x="66" y="549"/>
      <point x="61" y="520" type="curve"/>
      <point x="68" y="509" type="line"/>
      <point x="85" y="511"/>
      <point x="108" y="515"/>
      <point x="123" y="522" type="curve"/>
      <point x="121" y="546"/>
      <point x="140" y="563"/>
      <point x="162" y="563" type="curve" smooth="yes"/>
      <point x="189" y="563"/>
      <point x="199" y="545"/>
      <point x="199" y="525" type="curve" smooth="yes"/>
      <point x="199" y="483"/>
      <point x="168" y="461"/>
      <point x="116" y="449" type="curve"/>
      <point x="118" y="426" type="line"/>
      <point x="129" y="428"/>
      <point x="128" y="428"/>
      <point x="138" y="428" type="curve" smooth="yes"/>
      <point x="166" y="428"/>
      <point x="191" y="413"/>
      <point x="192" y="374" type="curve" smooth="yes"/>
      <point x="192" y="329"/>
      <point x="161" y="295"/>
      <point x="113" y="295" type="curve" smooth="yes"/>
      <point x="88" y="295"/>
      <point x="66" y="303"/>
      <point x="34" y="327" type="curve"/>
      <point x="21" y="301" type="line"/>
      <point x="52" y="272"/>
      <point x="87" y="260"/>
      <point x="116" y="260" type="curve" smooth="yes"/>
      <point x="198" y="260"/>
      <point x="255" y="315"/>
      <point x="255" y="381" type="curve" smooth="yes"/>
      <point x="255" y="415"/>
      <point x="233" y="448"/>
      <point x="194" y="452" type="curve"/>
      <point x="233" y="465"/>
      <point x="262" y="494"/>
    </contour>
  </outline>
</glyph>
<glyph name="threesuperior" format="2">
  <advance width="288"/>
  <unicode hex="00B3"/>
  <anchor x="222" y="644" name="U"/>
  <outline>
    <contour>
      <point x="319" y="564" type="curve" smooth="yes"/>
      <point x="319" y="611"/>
      <point x="283" y="633"/>
      <point x="228" y="633" type="curve" smooth="yes"/>
      <point x="171" y="633"/>
      <point x="105" y="606"/>
      <point x="105" y="564" type="curve" smooth="yes"/>
      <point x="105" y="546"/>
      <point x="122" y="539"/>
      <point x="131" y="539" type="curve" smooth="yes"/>
      <point x="141" y="539"/>
      <point x="158" y="546"/>
      <point x="158" y="546" type="curve"/>
      <point x="165" y="591" type="line"/>
      <point x="169" y="594"/>
      <point x="187" y="605"/>
      <point x="212" y="605" type="curve" smooth="yes"/>
      <point x="235" y="605"/>
      <point x="264" y="592"/>
      <point x="264" y="558" type="curve" smooth="yes"/>
      <point x="264" y="517"/>
      <point x="223" y="485"/>
      <point x="156" y="489" type="curve"/>
      <point x="151" y="455" type="line"/>
      <point x="151" y="455"/>
      <point x="167" y="458"/>
      <point x="186" y="458" type="curve" smooth="yes"/>
      <point x="209" y="458"/>
      <point x="244" y="451"/>
      <point x="244" y="410" type="curve" smooth="yes"/>
      <point x="244" y="365"/>
      <point x="205" y="329"/>
      <point x="152" y="329" type="curve" smooth="yes"/>
      <point x="133" y="329"/>
      <point x="118" y="337"/>
      <point x="113" y="339" type="curve"/>
      <point x="105" y="380" type="line"/>
      <point x="105" y="380"/>
      <point x="96" y="384"/>
      <point x="84" y="384" type="curve" smooth="yes"/>
      <point x="59" y="384"/>
      <point x="53" y="364"/>
      <point x="53" y="355" type="curve" smooth="yes"/>
      <point x="53" y="331"/>
      <point x="82" y="300"/>
      <point x="147" y="300" type="curve" smooth="yes"/>
      <point x="230" y="300"/>
      <point x="300" y="353"/>
      <point x="300" y="416" type="curve" smooth="yes"/>
      <point x="300" y="455"/>
      <point x="270" y="473"/>
      <point x="236" y="479" type="curve"/>
      <point x="290" y="496"/>
      <point x="319" y="529"/>
    </contour>
  </outline>
</glyph>
<glyph name="mu" format="2">
  <advance width="470"/>
  <unicode hex="00B5"/>
  <outline>
    <contour>
      <point x="460" y="94" type="curve"/>
      <point x="444" y="111" type="line"/>
      <point x="413" y="64"/>
      <point x="402" y="59"/>
      <point x="390" y="59" type="curve" smooth="yes"/>
      <point x="381" y="59"/>
      <point x="374" y="68"/>
      <point x="374" y="116" type="curve" smooth="yes"/>
      <point x="374" y="173"/>
      <point x="408" y="341"/>
      <point x="419" y="393" type="curve"/>
      <point x="417" y="398"/>
      <point x="414" y="405"/>
      <point x="409" y="411" type="curve"/>
      <point x="385" y="405"/>
      <point x="340" y="388"/>
      <point x="319" y="381" type="curve"/>
      <point x="325" y="370"/>
      <point x="327" y="348"/>
      <point x="327" y="329" type="curve" smooth="yes"/>
      <point x="327" y="286"/>
      <point x="296" y="148"/>
      <point x="296" y="111" type="curve" smooth="yes"/>
      <point x="296" y="30"/>
      <point x="312" y="-18"/>
      <point x="340" y="-18" type="curve" smooth="yes"/>
      <point x="376" y="-18"/>
      <point x="410" y="4"/>
    </contour>
    <contour>
      <point x="337" y="251" type="line"/>
      <point x="275" y="113"/>
      <point x="225" y="61"/>
      <point x="187" y="61" type="curve" smooth="yes"/>
      <point x="160" y="61"/>
      <point x="140" y="99"/>
      <point x="140" y="158" type="curve" smooth="yes"/>
      <point x="140" y="206"/>
      <point x="167" y="322"/>
      <point x="167" y="374" type="curve" smooth="yes"/>
      <point x="167" y="401"/>
      <point x="163" y="411"/>
      <point x="146" y="411" type="curve" smooth="yes"/>
      <point x="132" y="411"/>
      <point x="65" y="387"/>
      <point x="15" y="364" type="curve"/>
      <point x="21" y="344" type="line"/>
      <point x="21" y="344"/>
      <point x="55" y="354"/>
      <point x="66" y="354" type="curve" smooth="yes"/>
      <point x="75" y="354"/>
      <point x="83" y="352"/>
      <point x="83" y="325" type="curve" smooth="yes"/>
      <point x="83" y="282"/>
      <point x="66" y="214"/>
      <point x="66" y="162" type="curve" smooth="yes"/>
      <point x="66" y="61"/>
      <point x="108" y="-18"/>
      <point x="167" y="-18" type="curve" smooth="yes"/>
      <point x="228" y="-18"/>
      <point x="283" y="63"/>
      <point x="333" y="177" type="curve"/>
    </contour>
    <contour>
      <point x="105" y="194" type="curve"/>
      <point x="105" y="217"/>
      <point x="77" y="261"/>
      <point x="77" y="261" type="curve"/>
      <point x="65" y="162"/>
      <point x="16" y="-87"/>
      <point x="0" y="-205" type="curve"/>
      <point x="16" y="-219" type="line"/>
      <point x="30" y="-212"/>
      <point x="90" y="-186"/>
      <point x="107" y="-180" type="curve"/>
      <point x="101" y="-164"/>
      <point x="65" y="-74"/>
      <point x="81" y="45" type="curve"/>
      <point x="91" y="113"/>
      <point x="94" y="141"/>
    </contour>
  </outline>
</glyph>
<glyph name="paragraph" format="2">
  <advance width="388"/>
  <unicode hex="00B6"/>
  <outline>
    <contour>
      <point x="386" y="507" type="line"/>
      <point x="386" y="536" type="line"/>
      <point x="228" y="536" type="line" smooth="yes"/>
      <point x="109" y="536"/>
      <point x="40" y="497"/>
      <point x="40" y="380" type="curve" smooth="yes"/>
      <point x="40" y="255"/>
      <point x="121" y="224"/>
      <point x="236" y="224" type="curve"/>
      <point x="236" y="503" type="line"/>
      <point x="298" y="503" type="line"/>
      <point x="298" y="-63" type="line"/>
      <point x="336" y="-63" type="line"/>
      <point x="336" y="500" type="line"/>
    </contour>
  </outline>
</glyph>
<glyph name="periodcentered" format="2">
  <advance width="190"/>
  <unicode hex="00B7"/>
  <outline>
    <contour>
      <point x="156" y="297" type="curve"/>
      <point x="156" y="323"/>
      <point x="141" y="341"/>
      <point x="115" y="341" type="curve" smooth="yes"/>
      <point x="73" y="341"/>
      <point x="43" y="296"/>
      <point x="43" y="261" type="curve" smooth="yes"/>
      <point x="43" y="234"/>
      <point x="58" y="216"/>
      <point x="86" y="216" type="curve" smooth="yes"/>
      <point x="130" y="216"/>
      <point x="156" y="261"/>
    </contour>
  </outline>
</glyph>
<glyph name="cedilla" format="2">
  <advance width="142"/>
  <unicode hex="00B8"/>
  <outline>
    <contour>
      <point x="98" y="-97" type="curve"/>
      <point x="98" y="-68"/>
      <point x="78" y="-48"/>
      <point x="46" y="-47" type="curve"/>
      <point x="50" y="-34"/>
      <point x="58" y="0"/>
      <point x="62" y="21" type="curve"/>
      <point x="27" y="22" type="line"/>
      <point x="21" y="-9"/>
      <point x="10" y="-52"/>
      <point x="-6" y="-94" type="curve"/>
      <point x="17" y="-93"/>
      <point x="30" y="-102"/>
      <point x="30" y="-116" type="curve" smooth="yes"/>
      <point x="30" y="-143"/>
      <point x="-4" y="-168"/>
      <point x="-61" y="-143" type="curve"/>
      <point x="-60" y="-164" type="line"/>
      <point x="16" y="-206"/>
      <point x="98" y="-159"/>
    </contour>
  </outline>
</glyph>
<glyph name="SupOne" format="2">
  <advance width="266"/>
  <unicode hex="00B9"/>
  <outline>
    <contour>
      <point x="241" y="289" type="line"/>
      <point x="186" y="296"/>
      <point x="178" y="306"/>
      <point x="180" y="313" type="curve" smooth="yes"/>
      <point x="221" y="586" type="line"/>
      <point x="212" y="596" type="line"/>
      <point x="185" y="584"/>
      <point x="109" y="559"/>
      <point x="77" y="551" type="curve"/>
      <point x="81" y="531" type="line"/>
      <point x="131" y="541"/>
      <point x="146" y="539"/>
      <point x="149" y="535" type="curve" smooth="yes"/>
      <point x="154" y="530"/>
      <point x="153" y="523"/>
      <point x="151" y="509" type="curve" smooth="yes"/>
      <point x="120" y="313" type="line" smooth="yes"/>
      <point x="119" y="305"/>
      <point x="105" y="296"/>
      <point x="46" y="289" type="curve"/>
      <point x="42" y="268" type="line"/>
      <point x="238" y="268" type="line"/>
    </contour>
  </outline>
</glyph>
<glyph name="onesuperior" format="2">
  <advance width="253"/>
  <unicode hex="00B9"/>
  <anchor x="177" y="615" name="U"/>
  <outline>
    <contour>
      <point x="228" y="285" type="line"/>
      <point x="173" y="292"/>
      <point x="165" y="302"/>
      <point x="166" y="309" type="curve" smooth="yes"/>
      <point x="210" y="586" type="line"/>
      <point x="202" y="595" type="line"/>
      <point x="175" y="582"/>
      <point x="107" y="558"/>
      <point x="75" y="550" type="curve"/>
      <point x="79" y="532" type="line"/>
      <point x="128" y="542"/>
      <point x="144" y="540"/>
      <point x="147" y="536" type="curve" smooth="yes"/>
      <point x="151" y="531"/>
      <point x="150" y="524"/>
      <point x="148" y="510" type="curve" smooth="yes"/>
      <point x="116" y="309" type="line" smooth="yes"/>
      <point x="115" y="301"/>
      <point x="101" y="292"/>
      <point x="42" y="285" type="curve"/>
      <point x="39" y="267" type="line"/>
      <point x="224" y="267" type="line"/>
    </contour>
  </outline>
</glyph>
<glyph name="ordmasculine" format="2">
  <advance width="223"/>
  <unicode hex="00BA"/>
  <outline>
    <contour>
      <point x="227" y="454" type="curve"/>
      <point x="227" y="506"/>
      <point x="209" y="543"/>
      <point x="159" y="543" type="curve" smooth="yes"/>
      <point x="140" y="543"/>
      <point x="119" y="533"/>
      <point x="103" y="521" type="curve" smooth="yes"/>
      <point x="61" y="488"/>
      <point x="48" y="449"/>
      <point x="48" y="404" type="curve" smooth="yes"/>
      <point x="48" y="352"/>
      <point x="73" y="313"/>
      <point x="117" y="313" type="curve" smooth="yes"/>
      <point x="136" y="313"/>
      <point x="156" y="323"/>
      <point x="173" y="337" type="curve" smooth="yes"/>
      <point x="208" y="366"/>
      <point x="227" y="412"/>
    </contour>
    <contour>
      <point x="206" y="279" type="curve"/>
      <point x="198" y="289" type="line"/>
      <point x="36" y="289" type="line"/>
      <point x="32" y="280"/>
      <point x="29" y="275"/>
      <point x="25" y="266" type="curve"/>
      <point x="33" y="257" type="line"/>
      <point x="195" y="257" type="line"/>
      <point x="199" y="265"/>
      <point x="203" y="269"/>
    </contour>
    <contour>
      <point x="193" y="442" type="curve"/>
      <point x="193" y="403"/>
      <point x="177" y="339"/>
      <point x="133" y="339" type="curve" smooth="yes"/>
      <point x="104" y="339"/>
      <point x="81" y="375"/>
      <point x="81" y="416" type="curve" smooth="yes"/>
      <point x="81" y="457"/>
      <point x="97" y="516"/>
      <point x="143" y="516" type="curve" smooth="yes"/>
      <point x="174" y="516"/>
      <point x="193" y="489"/>
    </contour>
  </outline>
</glyph>
<glyph name="guillemetright" format="2">
  <advance width="325"/>
  <unicode hex="00BB"/>
  <outline>
    <contour>
      <point x="225" y="385" type="line"/>
      <point x="189" y="385" type="line"/>
      <point x="242" y="192" type="line"/>
      <point x="111" y="0" type="line"/>
      <point x="147" y="0" type="line"/>
      <point x="301" y="173" type="line"/>
      <point x="309" y="213" type="line"/>
    </contour>
    <contour>
      <point x="89" y="385" type="line"/>
      <point x="53" y="385" type="line"/>
      <point x="105" y="192" type="line"/>
      <point x="-24" y="0" type="line"/>
      <point x="11" y="0" type="line"/>
      <point x="164" y="173" type="line"/>
      <point x="173" y="213" type="line"/>
    </contour>
  </outline>
</glyph>
<glyph name="guillemotright" format="2">
  <advance width="400"/>
  <unicode hex="00BB"/>
  <outline>
    <contour>
      <point x="217" y="214" type="curve"/>
      <point x="94" y="395" type="line"/>
      <point x="73" y="380" type="line"/>
      <point x="77" y="365"/>
      <point x="132" y="213"/>
      <point x="135" y="199" type="curve"/>
      <point x="24" y="17" type="line"/>
      <point x="40" y="1" type="line"/>
      <point x="213" y="183" type="line"/>
      <point x="213" y="185"/>
      <point x="216" y="211"/>
    </contour>
    <contour>
      <point x="368" y="214" type="curve"/>
      <point x="245" y="395" type="line"/>
      <point x="224" y="380" type="line"/>
      <point x="228" y="365"/>
      <point x="283" y="213"/>
      <point x="286" y="199" type="curve"/>
      <point x="175" y="17" type="line"/>
      <point x="192" y="1" type="line"/>
      <point x="364" y="183" type="line"/>
      <point x="364" y="185"/>
      <point x="368" y="211"/>
    </contour>
  </outline>
</glyph>
<glyph name="onequarter" format="2">
  <advance width="703"/>
  <unicode hex="00BC"/>
  <outline>
    <contour>
      <point x="632" y="129" type="line"/>
      <point x="574" y="129" type="line"/>
      <point x="616" y="328" type="line"/>
      <point x="579" y="328" type="line"/>
      <point x="361" y="128" type="line"/>
      <point x="354" y="92" type="line"/>
      <point x="519" y="92" type="line"/>
      <point x="496" y="-16" type="line"/>
      <point x="543" y="-16" type="line"/>
      <point x="566" y="92" type="line"/>
      <point x="623" y="92" type="line"/>
    </contour>
    <contour>
      <point x="601" y="558" type="line"/>
      <point x="544" y="558" type="line"/>
      <point x="80" y="0" type="line"/>
      <point x="136" y="0" type="line"/>
    </contour>
    <contour>
      <point x="223" y="560" type="line"/>
      <point x="206" y="560" type="line"/>
      <point x="87" y="529" type="line"/>
      <point x="87" y="503" type="line"/>
      <point x="164" y="512" type="line"/>
      <point x="116" y="276" type="line"/>
      <point x="114" y="267"/>
      <point x="109" y="263"/>
      <point x="98" y="263" type="curve"/>
      <point x="54" y="260" type="line"/>
      <point x="54" y="233" type="line"/>
      <point x="210" y="233" type="line"/>
      <point x="210" y="260" type="line"/>
      <point x="176" y="263" type="line"/>
      <point x="167" y="263"/>
      <point x="163" y="267"/>
      <point x="164" y="276" type="curve" smooth="yes"/>
    </contour>
    <contour>
      <point x="555" y="263" type="line"/>
      <point x="528" y="129" type="line"/>
      <point x="412" y="129" type="line"/>
    </contour>
  </outline>
</glyph>
<glyph name="onehalf" format="2">
  <advance width="498"/>
  <unicode hex="00BD"/>
  <outline>
    <contour>
      <point x="494" y="530" type="line"/>
      <point x="486" y="542" type="line"/>
      <point x="474" y="540"/>
      <point x="454" y="533"/>
      <point x="443" y="528" type="curve"/>
      <point x="47" y="0" type="line"/>
      <point x="55" y="-13" type="line"/>
      <point x="70" y="-9"/>
      <point x="86" y="-5"/>
      <point x="99" y="1" type="curve"/>
    </contour>
    <contour>
      <point x="215" y="279" type="line"/>
      <point x="217" y="296" type="line"/>
      <point x="173" y="301"/>
      <point x="165" y="309"/>
      <point x="166" y="314" type="curve" smooth="yes"/>
      <point x="198" y="534" type="line"/>
      <point x="191" y="542" type="line"/>
      <point x="169" y="532"/>
      <point x="110" y="512"/>
      <point x="83" y="506" type="curve"/>
      <point x="86" y="490" type="line"/>
      <point x="127" y="499"/>
      <point x="140" y="497"/>
      <point x="143" y="494" type="curve" smooth="yes"/>
      <point x="146" y="490"/>
      <point x="145" y="484"/>
      <point x="144" y="473" type="curve" smooth="yes"/>
      <point x="121" y="314" type="line" smooth="yes"/>
      <point x="120" y="308"/>
      <point x="107" y="301"/>
      <point x="59" y="296" type="curve"/>
      <point x="57" y="279" type="line"/>
    </contour>
    <contour>
      <point x="451" y="65" type="line"/>
      <point x="435" y="68" type="line"/>
      <point x="435" y="68"/>
      <point x="427" y="31"/>
      <point x="406" y="31" type="curve" smooth="yes"/>
      <point x="319" y="31" type="line"/>
      <point x="431" y="134"/>
      <point x="463" y="167"/>
      <point x="467" y="204" type="curve" smooth="yes"/>
      <point x="472" y="243"/>
      <point x="444" y="260"/>
      <point x="405" y="260" type="curve" smooth="yes"/>
      <point x="353" y="260"/>
      <point x="302" y="222"/>
      <point x="297" y="193" type="curve"/>
      <point x="303" y="184" type="line"/>
      <point x="316" y="185"/>
      <point x="334" y="190"/>
      <point x="345" y="195" type="curve"/>
      <point x="347" y="215"/>
      <point x="362" y="236"/>
      <point x="386" y="236" type="curve" smooth="yes"/>
      <point x="413" y="236"/>
      <point x="422" y="222"/>
      <point x="419" y="197" type="curve" smooth="yes"/>
      <point x="416" y="164"/>
      <point x="385" y="128"/>
      <point x="264" y="15" type="curve"/>
      <point x="268" y="0" type="line"/>
      <point x="438" y="0" type="line"/>
    </contour>
  </outline>
</glyph>
<glyph name="threequarters" format="2">
  <advance width="703"/>
  <unicode hex="00BE"/>
  <outline>
    <contour>
      <point x="657" y="129" type="line"/>
      <point x="600" y="129" type="line"/>
      <point x="641" y="328" type="line"/>
      <point x="605" y="328" type="line"/>
      <point x="387" y="128" type="line"/>
      <point x="380" y="92" type="line"/>
      <point x="545" y="92" type="line"/>
      <point x="523" y="-16" type="line"/>
      <point x="569" y="-16" type="line"/>
      <point x="592" y="92" type="line"/>
      <point x="649" y="92" type="line"/>
    </contour>
    <contour>
      <point x="638" y="558" type="line"/>
      <point x="581" y="558" type="line"/>
      <point x="116" y="0" type="line"/>
      <point x="173" y="0" type="line"/>
    </contour>
    <contour>
      <point x="306" y="494" type="curve" smooth="yes"/>
      <point x="306" y="541"/>
      <point x="268" y="564"/>
      <point x="213" y="564" type="curve" smooth="yes"/>
      <point x="155" y="564"/>
      <point x="88" y="536"/>
      <point x="88" y="495" type="curve" smooth="yes"/>
      <point x="88" y="476"/>
      <point x="104" y="468"/>
      <point x="114" y="468" type="curve" smooth="yes"/>
      <point x="124" y="468"/>
      <point x="142" y="476"/>
      <point x="142" y="476" type="curve"/>
      <point x="149" y="521" type="line"/>
      <point x="153" y="524"/>
      <point x="171" y="535"/>
      <point x="196" y="535" type="curve" smooth="yes"/>
      <point x="220" y="535"/>
      <point x="249" y="522"/>
      <point x="249" y="487" type="curve" smooth="yes"/>
      <point x="249" y="447"/>
      <point x="209" y="415"/>
      <point x="140" y="419" type="curve"/>
      <point x="135" y="384" type="line"/>
      <point x="172" y="389"/>
      <point x="229" y="392"/>
      <point x="229" y="338" type="curve" smooth="yes"/>
      <point x="229" y="293"/>
      <point x="190" y="257"/>
      <point x="136" y="257" type="curve" smooth="yes"/>
      <point x="117" y="257"/>
      <point x="101" y="265"/>
      <point x="96" y="267" type="curve"/>
      <point x="88" y="308" type="line"/>
      <point x="88" y="308"/>
      <point x="78" y="313"/>
      <point x="67" y="313" type="curve" smooth="yes"/>
      <point x="40" y="313"/>
      <point x="35" y="292"/>
      <point x="35" y="283" type="curve" smooth="yes"/>
      <point x="35" y="258"/>
      <point x="64" y="228"/>
      <point x="131" y="228" type="curve" smooth="yes"/>
      <point x="215" y="228"/>
      <point x="285" y="281"/>
      <point x="285" y="345" type="curve" smooth="yes"/>
      <point x="285" y="384"/>
      <point x="255" y="402"/>
      <point x="222" y="407" type="curve"/>
      <point x="276" y="424"/>
      <point x="306" y="459"/>
    </contour>
    <contour>
      <point x="581" y="263" type="line"/>
      <point x="553" y="129" type="line"/>
      <point x="437" y="129" type="line"/>
    </contour>
  </outline>
</glyph>
<glyph name="questiondown" format="2">
  <advance width="357"/>
  <unicode hex="00BF"/>
  <outline>
    <contour>
      <point x="277" y="-83" type="curve"/>
      <point x="268" y="-70" type="line"/>
      <point x="243" y="-72"/>
      <point x="229" y="-75"/>
      <point x="205" y="-87" type="curve"/>
      <point x="214" y="-142"/>
      <point x="188" y="-190"/>
      <point x="139" y="-190" type="curve" smooth="yes"/>
      <point x="89" y="-190"/>
      <point x="62" y="-158"/>
      <point x="62" y="-100" type="curve" smooth="yes"/>
      <point x="62" y="8"/>
      <point x="204" y="64"/>
      <point x="207" y="181" type="curve"/>
      <point x="208" y="232" type="line"/>
      <point x="199" y="243" type="line"/>
      <point x="184" y="238"/>
      <point x="178" y="232"/>
      <point x="167" y="224" type="curve"/>
      <point x="161" y="181" type="line" smooth="yes"/>
      <point x="142" y="55"/>
      <point x="-7" y="29"/>
      <point x="-7" y="-125" type="curve" smooth="yes"/>
      <point x="-7" y="-184"/>
      <point x="27" y="-232"/>
      <point x="101" y="-232" type="curve" smooth="yes"/>
      <point x="209" y="-232"/>
      <point x="277" y="-158"/>
    </contour>
    <contour>
      <point x="154" y="329" type="curve"/>
      <point x="154" y="304"/>
      <point x="169" y="287"/>
      <point x="190" y="287" type="curve" smooth="yes"/>
      <point x="227" y="287"/>
      <point x="256" y="332"/>
      <point x="256" y="365" type="curve" smooth="yes"/>
      <point x="256" y="391"/>
      <point x="243" y="408"/>
      <point x="219" y="408" type="curve" smooth="yes"/>
      <point x="180" y="408"/>
      <point x="154" y="364"/>
    </contour>
  </outline>
</glyph>
<glyph name="AE" format="2">
  <advance width="653"/>
  <unicode hex="00C6"/>
  <outline>
    <contour>
      <point x="622" y="116" type="curve"/>
      <point x="601" y="125" type="line"/>
      <point x="569" y="56"/>
      <point x="550" y="43"/>
      <point x="501" y="43" type="curve" smooth="yes"/>
      <point x="455" y="43" type="line" smooth="yes"/>
      <point x="384" y="43"/>
      <point x="374" y="54"/>
      <point x="376" y="72" type="curve"/>
      <point x="406" y="283" type="line"/>
      <point x="467" y="283" type="line" smooth="yes"/>
      <point x="505" y="283"/>
      <point x="524" y="276"/>
      <point x="537" y="259" type="curve"/>
      <point x="550" y="268"/>
      <point x="570" y="293"/>
      <point x="581" y="309" type="curve"/>
      <point x="571" y="322" type="line"/>
      <point x="411" y="322" type="line"/>
      <point x="436" y="509" type="line"/>
      <point x="577" y="509" type="line" smooth="yes"/>
      <point x="598" y="509"/>
      <point x="605" y="489"/>
      <point x="601" y="435" type="curve"/>
      <point x="623" y="435" type="line"/>
      <point x="633" y="457"/>
      <point x="648" y="511"/>
      <point x="653" y="541" type="curve"/>
      <point x="642" y="553" type="line"/>
      <point x="211" y="553" type="line"/>
      <point x="208" y="530" type="line"/>
      <point x="258" y="519"/>
      <point x="284" y="513"/>
      <point x="274" y="493" type="curve" smooth="yes"/>
      <point x="52" y="53" type="line" smooth="yes"/>
      <point x="43" y="36"/>
      <point x="22" y="29"/>
      <point x="-12" y="23" type="curve"/>
      <point x="-15" y="0" type="line"/>
      <point x="150" y="0" type="line"/>
      <point x="152" y="23" type="line"/>
      <point x="112" y="28"/>
      <point x="99" y="36"/>
      <point x="108" y="53" type="curve" smooth="yes"/>
      <point x="224" y="283" type="line"/>
      <point x="329" y="283" type="line"/>
      <point x="298" y="50" type="line" smooth="yes"/>
      <point x="297" y="42"/>
      <point x="274" y="31"/>
      <point x="237" y="23" type="curve"/>
      <point x="234" y="0" type="line"/>
      <point x="589" y="0" type="line"/>
      <point x="596" y="17"/>
      <point x="610" y="65"/>
    </contour>
    <contour>
      <point x="335" y="322" type="line"/>
      <point x="244" y="322" type="line"/>
      <point x="328" y="492" type="line" smooth="yes"/>
      <point x="338" y="513"/>
      <point x="360" y="512"/>
      <point x="359" y="499" type="curve" smooth="yes"/>
    </contour>
  </outline>
</glyph>
